<?xml version="1.0" encoding="utf-8"?>
<!-- Generator: Adobe Illustrator 28.2.0, SVG Export Plug-In . SVG Version: 6.00 Build 0)  -->
<svg version="1.1" id="Layer_1" xmlns="http://www.w3.org/2000/svg" xmlns:xlink="http://www.w3.org/1999/xlink" x="0px" y="0px"
	 viewBox="0 0 452 189" style="enable-background:new 0 0 452 189;" xml:space="preserve">
<style type="text/css">
	.st0{fill:#BF5E28;}
</style>
<g>
	<path class="st0" d="M147.8,134c-0.4,0.6-0.9,1.2-1.3,1.8c-2.2,3.2-4.3,6.5-6.7,9.6c-2.5,3.3-5.2,6.4-8.9,8.5
		c-4.2,2.4-8.7,3-13.3,1.5c-3-1-5.2-3.1-7.1-5.5c-2.7-3.4-4.7-7.3-6.2-11.4c-1.8-5.1-3.5-10.3-5-15.5c-1.6-5.3-3-10.6-4.3-15.9
		c-2.3-9.1-4.5-18.2-6.7-27.3c-1.1-4.7-2.2-9.4-3.4-14.1c-0.4-1.6-1.3-3.1-2.2-4.5c-1.3-1.9-3.2-2.1-5-0.8c-2.6,1.8-4.4,4.4-6,7.1
		c-5.1,8.1-8.8,16.8-12.4,25.6c-2.9,7.3-5.9,14.6-8.6,22c-3,8.2-5.8,16.6-8.6,24.9c-1.2,3.6-2.2,7.2-3.4,10.8
		c-0.3,0.9-0.8,1.9-1.3,2.7c-1,1.5-2.5,2.4-4.4,2.5c-2,0.1-3.9,0.2-5.8-0.5c-0.8-0.3-1.7-0.7-2.4-1.3c-0.6-0.5-1.1-1.4-1.1-2.1
		c0-1.8,0.2-3.6,0.7-5.3c1.3-4.8,2.8-9.5,4.3-14.2c2-6.3,4-12.6,6.2-18.8c2.1-5.8,4.4-11.6,6.8-17.3c2.3-5.5,4.7-11,7.1-16.4
		c3.7-8.3,7.8-16.3,12.8-23.8c2.4-3.7,5.1-7.2,8.4-10.1c2.7-2.5,5.8-4.4,9.4-5.2c4.4-1,8.1,0.4,11.3,3.3C94,47.1,96,50.9,97.3,55
		c2,6.2,3.9,12.5,5.7,18.8c2.6,9.5,4.9,19,7.4,28.5c2.1,8,4.2,16.1,6.5,24.1c1,3.5,2.7,6.8,5.1,9.7c0.6,0.7,1.4,1.4,2.2,1.9
		c2.1,1.3,4.2,0.8,6.1-0.5c2.4-1.8,4.3-4.1,5.9-6.6c6.2-9.4,11-19.5,14.6-30.1c2.5-7.4,4.6-14.9,6.9-22.3c1.3-4.2,2.7-8.4,4.4-12.5
		c2.6-6.2,10.3-8.4,16.1-5c1.7,1,2.6,2.4,2.3,4.3c-0.4,2.6-0.9,5.1-1.6,7.6c-2.5,8.4-5.2,16.7-7.6,25.1c-2.7,9.2-5.2,18.5-6.9,28
		c-0.5,2.7-0.5,5.4-0.7,8.1c0,0.7,0.1,1.5,0.3,2.3c0.8,3,3.1,4.2,6.1,3.2c2.2-0.8,4.1-2,5.7-3.6c3.2-3,6.3-6.2,9.4-9.3
		c0.2-0.2,0.4-0.3,0.5-0.5c1-1.5,2.3-1.3,3.7-0.7c0.6,0.3,1.2,0.6,1.7,0.9c1.3,0.9,1.7,2.1,1.1,3.7c-1.8,4.4-4.2,8.5-7.2,12.2
		c-3.7,4.6-8,8.5-13.2,11.3c-4.4,2.4-9.1,3.5-14.1,2c-3.5-1-5.9-3.3-7.5-6.6c-2-4.2-2.6-8.6-2.3-13.1c0-0.6,0-1.1,0-1.7
		C148,134,147.9,134,147.8,134z"/>
	<path class="st0" d="M192.6,44.4c0,5.9-4.9,12.5-12.7,12.4c-6.5-0.1-11.3-5.4-11.3-12.7c0-6.4,5.4-11.5,12.2-11.4
		C187,32.7,192.6,38.3,192.6,44.4z"/>
	<path class="st0" d="M384.9,108.2c2.5,2.4,2.8,5.4,2.8,8.6c0,1.2,0.3,2.4,0.5,3.9c-1.9,0-4.1,0-6.2-0.1c-0.3,0-0.7-0.8-0.8-1.2
		c-0.2-1.3-0.3-2.6-0.3-3.8c-0.1-2.8-1.4-4-4.1-4c-2.3,0-4.5,0-6.8,0c-0.9,0-1.2,0.3-1.2,1.2c0,2.3,0,4.5,0,6.8c0,1-0.3,1.3-1.3,1.3
		c-1.5,0-3-0.1-4.5,0c-0.9,0-1.2-0.4-1.2-1.3c0-8.7,0-17.4,0-26.1c0-0.9,0.3-1.2,1.2-1.2c4.7,0,9.4,0,14.1,0c3.4,0,6.5,1,8.7,3.7
		c2.6,3.1,2.6,7.7,0.1,11C385.6,107.3,385.3,107.7,384.9,108.2z M368.8,105.3c3.1,0,6,0.1,8.8,0c1.7-0.1,3.2-2.1,3.2-4
		c-0.1-1.7-1.3-3-3.2-3.1c-2.6-0.1-5.2-0.1-7.8,0c-0.3,0-0.9,0.6-0.9,0.9C368.7,101.1,368.8,103.1,368.8,105.3z"/>
	<path class="st0" d="M402.6,120.5c0-1.2,0-2.3,0-3.5c0-7.7,0-15.4,0-23.2c0-1.2,0.4-1.5,1.5-1.5c7.6,0,15.2,0,22.7,0
		c1.1,0,1.6,0.3,1.5,1.5c-0.1,1-0.1,2,0,3c0.1,1.1-0.4,1.4-1.4,1.4c-5.2,0-10.4,0-15.6,0c-1.4,0-1.9,0.4-1.8,1.8
		c0.1,1.1,0,2.2,0,3.5c0.5,0,1,0.1,1.5,0.1c3.5,0,7.1,0.1,10.6,0c1.4,0,1.9,0.4,1.8,1.8c-0.1,0.9-0.1,1.8,0,2.8
		c0.1,1.1-0.3,1.4-1.4,1.4c-3.6-0.1-7.2,0-10.8-0.1c-1.3,0-1.7,0.4-1.7,1.7c0,3.7,0,3.7,3.7,3.7c4.6,0,9.2,0,13.8,0
		c1,0,1.4,0.3,1.3,1.4c-0.1,1.1,0,2.3,0,3.4c0,0.7-0.2,1.1-1,1.1c-8.1,0-16.2,0-24.3,0C403,120.6,402.8,120.5,402.6,120.5z"/>
	<path class="st0" d="M215.2,120.6c0.9-2.2,1.8-4.2,2.6-6.1c3.1-6.9,6.2-13.8,9.2-20.8c0.5-1.1,1.1-1.6,2.4-1.5
		c1.2,0.1,2.4,0.1,3.6,0c0.9,0,1.3,0.3,1.7,1.1c3.2,7.3,6.5,14.5,9.7,21.7c0.8,1.8,1.5,3.5,2.4,5.5c-2.3,0-4.5,0-6.6,0
		c-0.3,0-0.6-0.5-0.7-0.9c-0.7-1.4-1.3-2.8-1.9-4.3c-0.3-0.7-0.7-1.1-1.5-1c-3.4,0-6.7,0-10.1,0c-0.9,0-1.3,0.3-1.6,1.1
		c-0.6,1.5-1.2,2.9-1.9,4.3c-0.2,0.4-0.6,0.9-0.9,0.9C219.6,120.7,217.5,120.6,215.2,120.6z M227.6,108.3c2.4,0,4.4,0,6.7,0
		c-1.1-2.5-2.1-4.8-3.1-7.1c-0.1,0-0.3,0-0.4,0C229.8,103.5,228.7,105.8,227.6,108.3z"/>
	<path class="st0" d="M348.6,120.6c-2.3,0-4.2,0.1-6.2,0c-0.4,0-0.9-0.5-1.1-1c-0.7-1.4-1.3-2.8-1.9-4.3c-0.3-0.7-0.7-1-1.5-1
		c-3.4,0.1-6.7,0-10.1,0c-0.8,0-1.3,0.3-1.6,1c-0.6,1.4-1.2,2.8-1.8,4.2c-0.3,0.8-0.7,1.2-1.6,1.1c-1.9-0.1-3.7,0-5.9,0
		c1-2.2,1.9-4.2,2.8-6.2c3.1-7,6.2-13.9,9.2-20.9c0.4-1,1-1.4,2.1-1.3c0.4,0,0.8,0,1.2,0c4.6,0.1,3.3-0.7,5.2,3.3
		c3.5,7.7,6.9,15.5,10.4,23.3C348.1,119.3,348.3,119.8,348.6,120.6z M333,101.1c-0.1,0-0.3,0-0.4,0c-1,2.3-2.1,4.7-3.2,7.2
		c2.3,0,4.4,0,6.8,0C335,105.8,334,103.4,333,101.1z"/>
	<path class="st0" d="M283.7,92.3c-2.1,4.8-4.1,9.2-6,13.7c-2,4.5-4,9-6,13.5c-0.4,1-1,1.3-2,1.3c-1.2-0.1-2.5,0.1-3.7-0.1
		c-0.5,0-1.2-0.4-1.4-0.8c-4.1-9-8.1-18.1-12.1-27.2c0,0,0-0.1,0-0.3c2.1,0,4.2-0.1,6.2,0.1c0.5,0,1,1,1.3,1.6
		c2.4,5.4,4.8,10.9,7.2,16.4c0.2,0.4,0.4,0.7,0.7,1.3c0.3-0.6,0.6-1,0.8-1.5c2.5-5.6,5-11.2,7.4-16.8c0.3-0.8,0.7-1.2,1.6-1.2
		C279.7,92.3,281.5,92.3,283.7,92.3z"/>
	<path class="st0" d="M303.7,106.4c0,4.2,0,8.5,0,12.7c0,1.2-0.2,1.7-1.5,1.6c-1.4-0.1-2.8,0-4.1,0c-0.8,0-1.2-0.2-1.2-1.1
		c0-8.7,0-17.4,0-26c0-1,0.3-1.3,1.3-1.3c1.3,0,2.7,0.1,4,0c1.1-0.1,1.5,0.3,1.5,1.5C303.7,97.9,303.7,102.2,303.7,106.4z"/>
</g>
</svg>
