<svg viewBox="0 0 277 72" fill="none" xmlns="http://www.w3.org/2000/svg"><g clip-path="url(#clip0_7006_15933)"><path d="M36.8465 0L0 36L36.8465 71.9973L73.6903 35.9973L36.8465 0ZM36.8465 2.04143L71.5983 35.9973L36.8465 69.9586L2.09477 36.0027L36.8465 2.04143Z" fill="black" fill-opacity="0.9"></path><path d="M26.0734 27.4936L48.9182 24.7761H26.1915L23.9622 26.4903V29.4706L26.0734 28.4378V27.4936Z" fill="black" fill-opacity="0.9"></path><path d="M37.3105 4.83671L36.4484 4.64893L35.9021 17.2302L37.791 17.4662L37.3105 4.83671Z" fill="black" fill-opacity="0.9"></path><path d="M32.2809 21.2298L42.5873 19.5129H32.4017L30.6447 20.7711V23.7433L32.2809 22.7186V21.2298Z" fill="black" fill-opacity="0.9"></path><path d="M26.0734 57.2487L48.9182 54.5312H26.1915L23.9622 56.2481V56.3661L25.9169 58.2734L26.0734 58.1983V57.2487Z" fill="black" fill-opacity="0.9"></path><path d="M26.0734 39.3935L48.9182 36.6787H26.1915L23.9622 38.3956V41.3732L26.0734 40.3404V39.3935Z" fill="black" fill-opacity="0.9"></path><path d="M26.0734 33.4408L48.9182 30.7261H26.1915L23.9622 32.4456V35.4232L26.0734 34.3905V33.4408Z" fill="black" fill-opacity="0.9"></path><path d="M26.0734 45.3434L48.9182 42.6313H26.1915L23.9622 44.3482V47.3232L26.0734 46.293V45.3434Z" fill="black" fill-opacity="0.9"></path><path d="M26.1915 48.5813L23.9622 50.2981V53.2731L26.0707 52.2457V51.2961L48.9182 48.5813H26.1915Z" fill="black" fill-opacity="0.9"></path><path d="M45.5139 60.4836H28.1737L30.425 62.6807L45.0444 60.9424L45.5139 60.4836Z" fill="black" fill-opacity="0.9"></path><path d="M132.284 37.9905H133.956L135.652 45.0081H135.677L137.571 37.9905H139.257L141.094 45.0081H141.124L142.873 37.9905H144.545L141.953 47.1702H140.281L138.403 40.1499H138.376L136.451 47.1702H134.757L132.284 37.9905Z" fill="black" fill-opacity="0.9"></path><path d="M146.17 42.5777C146.17 44.3374 147.01 46.073 149.022 46.073C151.035 46.073 151.875 44.3374 151.875 42.5777C151.875 40.8179 151.032 39.0823 149.022 39.0823C147.013 39.0823 146.17 40.8179 146.17 42.5777ZM153.52 42.5777C153.52 45.1985 151.834 47.3848 149.02 47.3848C146.206 47.3848 144.523 45.1985 144.523 42.5777C144.523 39.9568 146.203 37.7732 149.02 37.7732C151.837 37.7732 153.52 39.9568 153.52 42.5777Z" fill="black" fill-opacity="0.9"></path><path d="M162.934 37.9905H164.578V45.7806H169.352V47.1702H162.934V37.9905Z" fill="black" fill-opacity="0.9"></path><path d="M171.826 45.8558H173.443C176.021 45.8558 176.573 44.4152 176.573 42.5777C176.573 40.7401 176.021 39.2996 173.443 39.2996H171.826V45.8558ZM170.182 37.9905H174.075C176.968 37.9905 178.217 40.0453 178.217 42.5777C178.217 45.11 176.968 47.1648 174.075 47.1648H170.182V37.9905Z" fill="black" fill-opacity="0.9"></path><path d="M180.864 37.9905H188.469V39.3774H185.485V47.1675H183.837V39.3774H180.864V37.9905Z" fill="black" fill-opacity="0.9"></path><path d="M200.653 43.5166H203.519L202.111 39.5678H202.073L200.653 43.5166ZM201.233 37.9905H202.984L206.603 47.1675H204.84L203.959 44.7371H200.208L199.33 47.1675H197.636L201.238 37.9905H201.233Z" fill="black" fill-opacity="0.9"></path><path d="M208.969 45.8558H210.589C213.167 45.8558 213.719 44.4179 213.719 42.5777C213.719 40.7374 213.167 39.2996 210.589 39.2996H208.969V45.8558ZM207.325 37.9905H211.218C214.111 37.9905 215.36 40.0453 215.36 42.5777C215.36 45.11 214.111 47.1648 211.218 47.1648H207.325V37.9905Z" fill="black" fill-opacity="0.9"></path><path d="M216.398 37.9905H223.158V39.3774H218.043V41.7809H222.776V43.0927H218.043V45.7806H223.251V47.1675H216.398V37.9905Z" fill="black" fill-opacity="0.9"></path><path d="M233.228 40.9091C232.951 39.8522 232.253 39.085 230.883 39.085C228.871 39.085 228.028 40.8206 228.028 42.5803C228.028 44.3401 228.871 46.0757 230.883 46.0757C232.344 46.0757 233.148 45.0107 233.277 43.6695H234.881C234.752 45.8692 233.159 47.3848 230.883 47.3848C228.066 47.3848 226.386 45.1985 226.386 42.5777C226.386 39.9568 228.066 37.7678 230.883 37.7678C233.003 37.7839 234.675 38.9267 234.87 40.9064H233.225L233.228 40.9091Z" fill="black" fill-opacity="0.9"></path><path d="M235.91 37.9905H242.669V39.3774H237.552V41.7809H242.288V43.0927H237.552V45.7806H242.76V47.1675H235.91V37.9905Z" fill="black" fill-opacity="0.9"></path><path d="M243.589 37.9905H245.33L249.618 44.7505H249.643V37.9905H251.208V47.1675H249.47L245.195 40.4182H245.157V47.1675H243.589V37.9905Z" fill="black" fill-opacity="0.9"></path><path d="M252.037 37.9905H259.639V39.3774H256.652V47.1675H255.007V39.3774H252.037V37.9905Z" fill="black" fill-opacity="0.9"></path><path d="M268.844 37.9905H275.607V39.3774H270.489V41.7809H275.225V43.0927H270.489V45.7806H275.7V47.1675H268.844V37.9905Z" fill="black" fill-opacity="0.9"></path><path d="M194.918 43.4227C196.321 42.9318 196.639 41.7112 196.639 40.8286C196.639 39.6859 196.126 37.9878 193.441 37.9878H189.298V47.1648H190.94V39.2996H193.375C194.243 39.2996 194.992 39.6081 194.992 40.8152C194.992 42.0224 194.086 42.3362 193.348 42.3362H192.195L191.42 43.6453H193.224L195.017 47.1648H196.9L194.915 43.4227H194.918Z" fill="black" fill-opacity="0.9"></path><path d="M266.088 43.42C267.491 42.9291 267.809 41.7058 267.809 40.8259C267.809 39.6832 267.296 37.9851 264.614 37.9851H260.468V47.1648H262.113V39.2996H264.548C265.415 39.2996 266.168 39.6081 266.168 40.8152C266.168 42.0224 265.259 42.3362 264.52 42.3362H263.37L262.593 43.6453H264.397L266.19 47.1675H268.073L266.085 43.4227L266.088 43.42Z" fill="black" fill-opacity="0.9"></path><path d="M160.174 43.42C161.58 42.9291 161.896 41.7058 161.896 40.8259C161.896 39.6832 161.385 37.9851 158.7 37.9851H154.557V47.1648H156.199V39.2996H158.634C159.499 39.2996 160.251 39.6081 160.251 40.8152C160.251 42.0224 159.345 42.3362 158.607 42.3362H157.454L156.679 43.6453H158.483L160.279 47.1675H162.159L160.172 43.4227L160.174 43.42Z" fill="black" fill-opacity="0.9"></path><path d="M93.3119 45.8558H94.929C97.5097 45.8558 98.0588 44.4179 98.0588 42.5777C98.0588 40.7374 97.507 39.2996 94.929 39.2996H93.3119V45.8558ZM91.6702 37.9905H95.5605C98.4569 37.9905 99.7061 40.0453 99.7061 42.5777C99.7061 45.11 98.4569 47.1648 95.5605 47.1648H91.6702V37.9905Z" fill="black" fill-opacity="0.9"></path><path d="M100.741 37.9905H102.386V43.3368C102.386 44.5681 102.463 45.9953 104.596 45.9953C106.729 45.9953 106.806 44.5708 106.806 43.3368V37.9905H108.45V43.8626C108.45 46.2152 106.913 47.3848 104.596 47.3848C102.279 47.3848 100.741 46.2152 100.741 43.8626V37.9905Z" fill="black" fill-opacity="0.9"></path><path d="M120.366 43.5166H123.232L121.823 39.5678H121.785L120.366 43.5166ZM120.945 37.9905H122.694L126.312 47.1675H124.55L123.668 44.7371H119.921L119.039 47.1675H117.343L120.948 37.9905H120.945Z" fill="black" fill-opacity="0.9"></path><path d="M128.679 37.9905H127.034V47.1675H128.679V37.9905Z" fill="black" fill-opacity="0.9"></path><path d="M114.037 45.8558H111.133V39.2996H113.815C114.71 39.2996 115.196 39.6322 115.196 40.5604C115.196 41.3839 114.603 41.8346 113.815 41.8346H112.36L111.676 42.9908H114.037C115.039 42.9908 115.616 43.5058 115.616 44.4045C115.616 45.3031 115.039 45.8584 114.037 45.8584M115.501 42.245V42.2182C116.355 41.8587 116.84 41.1908 116.84 40.2653C116.84 38.7362 115.734 37.9905 114.051 37.9905H109.488V47.1702H113.801C116.234 47.1702 117.26 46.0516 117.26 44.611C117.26 43.3663 116.643 42.4918 115.501 42.2477" fill="black" fill-opacity="0.9"></path><path d="M245.451 24.8325H243.952V25.9833H245.451V24.8325Z" fill="black" fill-opacity="0.9"></path><path d="M234.386 26.2195H230.491L231.265 27.5313H233.752C236.33 27.5313 236.882 28.9718 236.882 30.8093V32.6228H229.505V34.0096H238.527V30.8093C238.527 28.277 237.277 26.2195 234.384 26.2195" fill="black" fill-opacity="0.9"></path><path d="M211.495 34.6802H209.993V35.831H211.495V34.6802Z" fill="black" fill-opacity="0.9"></path><path d="M213.678 34.6802H212.179V35.831H213.678V34.6802Z" fill="black" fill-opacity="0.9"></path><path d="M228.475 34.6802H226.976V35.831H228.475V34.6802Z" fill="black" fill-opacity="0.9"></path><path d="M228.476 26.2195H226.831V32.6228H222.084V26.2195H218.191C215.297 26.2195 214.045 28.2743 214.045 30.8093V32.6201H210.921C209.463 32.6201 208.659 31.6302 208.527 30.2943V26.2195H206.924V30.2943C207.056 32.494 208.648 34.0096 210.921 34.0096H215.69V30.8093C215.69 28.9691 216.245 27.5313 218.82 27.5313H220.442V34.0096H228.478V26.2195H228.476Z" fill="black" fill-opacity="0.9"></path><path d="M96.2413 34.6802H94.7423V35.831H96.2413V34.6802Z" fill="black" fill-opacity="0.9"></path><path d="M98.4268 34.6802H96.9277V35.831H98.4268V34.6802Z" fill="black" fill-opacity="0.9"></path><path d="M124.267 32.6227H119.465C119.849 31.9628 120.053 31.1714 120.053 30.3264C120.053 28.0811 118.611 26.2114 116.203 26.2114C113.93 26.2114 112.519 27.8799 112.368 29.9535C112.368 29.9562 112.368 29.9616 112.368 29.967C112.253 31.547 111.693 32.6254 109.716 32.6254H106.833V26.2221H102.94C100.049 26.2221 98.7974 28.2769 98.7974 30.812V32.6227H95.6731C94.2125 32.6227 93.4108 31.6328 93.2791 30.2969V26.2221H91.673V30.2969C91.8048 32.4966 93.3944 34.0123 95.6703 34.0123H100.439V30.812C100.439 28.9717 100.991 27.5339 103.569 27.5339H105.189V34.0123H105.974H109.87C111.135 34.0123 112.083 33.6152 112.752 32.9607C113.505 32.2257 113.906 31.1661 113.996 29.9616C113.996 29.9267 113.996 29.8918 113.999 29.857L114.01 29.8489C114.15 28.6552 114.823 27.6036 116.206 27.6036C117.777 27.6036 118.433 28.9556 118.433 30.3291C118.433 31.7026 117.777 33.0573 116.206 33.0573C115.594 33.0573 115.122 32.8507 114.773 32.5181L113.425 33.2772C114.084 33.9962 115.028 34.4468 116.206 34.4468C116.898 34.4468 117.508 34.2886 118.032 34.0123H125.917V24.8379H124.272V32.6254L124.267 32.6227Z" fill="black" fill-opacity="0.9"></path><path d="M255.806 28.3547H252.762L256.369 24.8298H254.343L249.506 29.6611H255.716C256.454 29.6611 257.363 30.0233 257.363 31.1768C257.363 32.3893 256.611 32.6173 255.743 32.6173H245.453V26.5628H243.952V33.693C243.952 34.3476 243.899 34.6695 243.348 34.6695H242.151L242.837 35.8257H243.507C244.827 35.8257 245.382 35.1738 245.448 34.0042H255.809C258.494 34.0042 259.008 32.3088 259.008 31.1634C259.008 30.0179 258.494 28.3359 255.809 28.352" fill="black" fill-opacity="0.9"></path><path d="M170.731 33.6985C170.731 34.353 170.678 34.6749 170.124 34.6749H168.927L169.61 35.8311H170.283C171.689 35.8311 172.23 35.0854 172.23 33.7629V26.2195H170.731V33.6985Z" fill="black" fill-opacity="0.9"></path><path d="M193.125 24.8325H191.626V25.9833H193.125V24.8325Z" fill="black" fill-opacity="0.9"></path><path d="M190.934 24.8325H189.438V25.9833H190.934V24.8325Z" fill="black" fill-opacity="0.9"></path><path d="M197.175 32.6227H193.125V26.6567H191.626V32.6227H187.448V31.0266C187.448 28.4057 185.765 26.2221 182.951 26.2221C181.089 26.2221 179.722 27.1798 179.011 28.5827L180.384 29.358C180.779 28.3118 181.6 27.5312 182.951 27.5312C184.966 27.5312 185.806 29.2668 185.806 31.0266V32.6227H174.915V24.8352H173.27V34.0096H198.822V24.8352H197.177V32.6227H197.175Z" fill="black" fill-opacity="0.9"></path><path d="M201.499 24.8325H199.854V34.0096H201.499V24.8325Z" fill="black" fill-opacity="0.9"></path><path d="M166.744 28.792C166.258 28.6498 163.06 27.8424 162.914 27.8021V27.1207C162.914 26.1926 163.875 25.9243 164.636 25.9243C165.767 25.9243 166.582 26.3616 166.662 27.5446H168.309C168.309 25.6292 166.662 24.6152 164.702 24.6152C163.005 24.6152 161.27 25.4763 161.27 27.3139V28.8912C162.56 29.2373 165.492 29.9374 166.148 30.1816C166.53 30.3237 166.925 30.6081 166.925 31.3109C166.925 32.0137 166.385 32.7032 164.941 32.7032H158.969C157.509 32.7032 156.71 31.6328 156.578 30.2996V26.2221H154.972V30.2996C155.104 32.4966 156.696 34.0123 158.969 34.0123H164.833C166.7 34.0123 168.567 33.1914 168.567 31.1339C168.567 30.1816 167.977 29.1541 166.742 28.7947" fill="black" fill-opacity="0.9"></path><path d="M162.118 34.6802H160.619V35.831H162.118V34.6802Z" fill="black" fill-opacity="0.9"></path><path d="M164.304 34.6802H162.805V35.831H164.304V34.6802Z" fill="black" fill-opacity="0.9"></path><path d="M183.955 34.6802H182.456V35.831H183.955V34.6802Z" fill="black" fill-opacity="0.9"></path><path d="M145.226 32.6227H134.334V31.0266C134.334 29.2668 135.177 27.5312 137.19 27.5312C138.538 27.5312 139.361 28.3145 139.757 29.358L141.129 28.5827C140.416 27.1798 139.051 26.2221 137.19 26.2221C134.376 26.2221 132.69 28.4057 132.69 31.0266V32.6227H128.591V24.8352H126.946V34.0096H146.87V24.8352H145.226V32.6227Z" fill="black" fill-opacity="0.9"></path><path d="M149.552 24.8325H147.908V34.0096H149.552V24.8325Z" fill="black" fill-opacity="0.9"></path><path d="M272.345 26.2114C270.072 26.2114 268.66 27.8773 268.509 29.9536C268.509 29.9563 268.509 29.9616 268.507 29.967C268.397 31.547 267.834 32.6254 265.857 32.6254H262.695V26.2222H261.157V33.7011C261.157 34.353 261.102 34.6776 260.55 34.6776H259.353L260.037 35.8338H260.075H260.748C262.069 35.8338 262.623 35.1819 262.689 34.0123H266.011C267.277 34.0123 268.227 33.6153 268.897 32.9608C269.649 32.2257 270.05 31.1661 270.137 29.9616C270.14 29.9268 270.137 29.8892 270.143 29.8543L270.148 29.849C270.286 28.6552 270.961 27.601 272.35 27.601C273.921 27.601 274.577 28.953 274.577 30.3265C274.577 31.7 273.921 33.0546 272.35 33.0546C271.738 33.0546 271.266 32.8481 270.914 32.5154L269.569 33.2746C270.228 33.9935 271.173 34.4415 272.35 34.4415C274.758 34.4415 276.199 32.5718 276.199 30.3265C276.199 28.0812 274.758 26.2114 272.35 26.2114" fill="black" fill-opacity="0.9"></path></g><defs><clipPath id="clip0_7006_15933"><rect width="276.197" height="72" fill="white"></rect></clipPath></defs></svg>