<svg id="Layer_2" xmlns="http://www.w3.org/2000/svg" viewBox="0 0 697.42 280.92">
  <defs>
    <style>.cls-1{fill:#fff;}</style>
  </defs>
  <g id="Layer_1-2">
    <path class="cls-1" d="m121.94,80.19c-11.36,0-20.9,3.9-28.73,11.7-.86.9-1.46,1.5-1.79,1.9-8.18-9.06-18.34-13.6-30.51-13.6-10.6,0-19.83,3.59-27.64,10.67-6.17-7.08-13.88-10.67-23.15-10.67-3.6,0-6.94.54-10.13,1.74,6.01,2.16,10.91,5.81,14.6,11,3.7,5.23,5.56,11,5.56,17.31v80.18c0,6.74,3.4,10.1,10.23,10.1s10.13-3.36,10.13-10.1v-70.23c0-5.63,2-10.36,5.93-14.2,3.93-3.89,8.78-5.8,14.48-5.8s10.57,1.91,14.5,5.8c3.94,3.84,5.94,8.57,5.94,14.2v70.23c0,6.74,3.39,10.1,10.14,10.1,3.84,0,6.76-1.64,8.76-4.93.96-1.6,1.44-3.37,1.44-5.17,0-.21-.01-.34-.1-.5h.1v-69.73c0-5.63,1.96-10.36,5.88-14.2,3.9-3.89,8.68-5.8,14.38-5.8s10.5,1.91,14.5,5.8c3.89,3.84,5.87,8.57,5.87,14.2v70.23c0,6.74,3.39,10.1,10.11,10.1s10.24-3.36,10.24-10.1v-70.22c0-11.08-4-20.51-11.91-28.34-7.96-7.77-17.56-11.67-28.84-11.67m105.52,0c-11.34,0-20.95,3.86-28.88,11.61-7.9,7.78-11.84,17.24-11.84,28.4v50.14c0,8.4,2.97,15.58,8.9,21.37,5.93,5.89,13.17,8.81,21.7,8.81,3.21,0,6.64-.6,10.13-1.74-6.17-2.11-11.08-5.74-14.8-10.93-3.71-5.18-5.57-11-5.57-17.51v-9.97h40.74c5.67,0,10.47-1.94,14.44-5.8,3.96-3.96,5.9-8.68,5.9-14.26v-20.11c0-11.08-3.99-20.51-11.91-28.34-7.94-7.77-17.54-11.67-28.8-11.67m20.37,60.69c0,6.38-3.24,9.58-9.74,9.58h-21.27c-6.48,0-9.73-3.2-9.73-9.58v-20.68c0-5.64,1.97-10.37,5.91-14.21,3.91-3.89,8.73-5.8,14.46-5.8s10.5,1.91,14.46,5.8c3.93,3.84,5.91,8.57,5.91,14.21v20.68ZM448.48,0c-3.54,0-6.86.53-10.13,1.66,6.06,2.23,11,5.91,14.77,11.04,3.67,5.2,5.57,10.94,5.57,17.31v55.55c-6.38-3.61-13.11-5.37-20.34-5.37-11.33,0-21,3.86-28.87,11.61-7.93,7.78-11.88,17.24-11.88,28.4v40.18c0,11.13,3.96,20.6,11.88,28.44,7.87,7.78,17.54,11.7,28.87,11.7s20.93-3.91,28.83-11.7c7.93-7.84,11.86-17.31,11.86-28.44V30.08c0-8.38-2.96-15.5-8.87-21.31-5.97-5.86-13.23-8.77-21.68-8.77m10.21,160.38c0,5.63-1.99,10.4-5.91,14.3-3.9,3.87-8.76,5.83-14.43,5.83s-10.57-1.96-14.53-5.81c-3.89-3.87-5.84-8.63-5.84-14.31v-40.18c0-5.64,1.96-10.36,5.93-14.21,3.93-3.89,8.76-5.8,14.44-5.8s10.53,1.91,14.43,5.8c3.93,3.86,5.91,8.57,5.91,14.21v40.18Zm238.73-40.18c0-11.08-3.93-20.51-11.88-28.34-7.98-7.77-17.56-11.67-28.85-11.67-10.54,0-19.77,3.59-27.61,10.67-6.11-7.08-13.9-10.67-23.1-10.67-3.6,0-6.96.54-10.16,1.74,6.03,2.16,10.9,5.81,14.58,11,3.74,5.23,5.59,11,5.59,17.31v80.18c0,6.74,3.4,10.1,10.27,10.1s10.1-3.36,10.1-10.1v-70.23c0-5.63,1.94-10.36,5.91-14.2,3.96-3.89,8.76-5.8,14.41-5.8s10.53,1.91,14.51,5.8c3.91,3.84,5.86,8.57,5.86,14.2v70.23c0,6.74,3.41,10.1,10.13,10.1s10.24-3.36,10.24-10.1c0-.21-.03-.34-.11-.5h.11v-69.72Zm-334.07-40.01c-6.74,0-10.13,3.31-10.13,9.98v70.23c0,5.6-2,10.37-5.9,14.28-3.94,3.86-8.76,5.81-14.46,5.81s-10.64-1.96-14.51-5.81c-3.89-3.87-5.84-8.63-5.84-14.28v-70.23c0-6.67-3.41-9.98-10.11-9.98s-10.24,3.31-10.24,9.98v70.21c0,11.13,3.96,20.6,11.86,28.44,7.9,7.78,17.51,11.7,28.85,11.7,7.27,0,14.07-1.86,20.35-5.46v55.72c0,6.36-1.86,12.18-5.63,17.34-3.7,5.14-8.63,8.8-14.73,11.01,3.43,1.21,6.8,1.79,10.13,1.79,8.46,0,15.68-2.9,21.65-8.78,5.94-5.91,8.94-13.01,8.94-21.35V90.73h-.13c.07-.1.13-.31.13-.56,0-6.67-3.4-9.98-10.24-9.98m226.64,107.66c-3.63-5.18-5.5-11-5.5-17.51v-50.14c0-11.08-3.94-20.51-11.91-28.34-7.93-7.77-17.56-11.67-28.8-11.67s-20.93,3.86-28.87,11.61c-7.9,7.78-11.83,17.24-11.83,28.4v40.18c0,11.13,3.93,20.6,11.83,28.44,7.94,7.78,17.54,11.7,28.87,11.7,10.47,0,19.67-3.57,27.6-10.8,6.09,7.23,13.81,10.8,23.27,10.8,3.2,0,6.64-.6,10.16-1.74-6.14-2.11-11.11-5.74-14.81-10.93m-25.87-27.47c0,5.63-1.93,10.4-5.89,14.3-3.93,3.87-8.73,5.83-14.46,5.83s-10.57-1.96-14.48-5.81c-3.9-3.87-5.89-8.63-5.89-14.31v-40.18c0-5.64,1.99-10.36,5.91-14.21,3.94-3.89,8.77-5.8,14.46-5.8s10.53,1.91,14.46,5.8c3.96,3.86,5.89,8.57,5.89,14.21v40.18Z" />
  </g>
</svg>