<svg width="85" height="85" viewBox="0 0 85 85" fill="none" xmlns="http://www.w3.org/2000/svg">
    <g clip-path="url(#clip0_687_227)">
    <path d="M85 42.5C85 19.0279 65.9721 0 42.5 0C19.0279 0 0 19.0279 0 42.5C0 65.9721 19.0279 85 42.5 85C65.9721 85 85 65.9721 85 42.5Z" fill="#BF5E28"/>
    <path d="M62.3025 42.5C61.9511 42.4987 61.6063 42.596 61.3073 42.7808C61.0084 42.9656 60.7672 43.2306 60.6113 43.5455L57.231 50.3053L55.1528 52.3836L54.4778 52.7218L55.5818 50.789C55.8598 50.3055 55.9427 49.734 55.8135 49.1913C55.6843 48.6487 55.3527 48.1759 54.8866 47.8695C54.4205 47.5631 53.855 47.4462 53.3056 47.5428C52.7562 47.6394 52.2645 47.9421 51.9308 48.389L48.2475 53.3001C48.1992 53.3645 48.1617 53.4365 48.1365 53.5131L46.6365 58.0131C46.6203 58.0597 46.6092 58.108 46.6035 58.1571L45.8535 64.1571C45.8403 64.2626 45.8497 64.3697 45.8811 64.4713C45.9124 64.5729 45.965 64.6667 46.0354 64.7464C46.1057 64.8261 46.1922 64.8899 46.2892 64.9337C46.3861 64.9774 46.4912 65.0001 46.5975 65.0001H53.3475C53.5464 65.0001 53.7372 64.9211 53.8779 64.7804C54.0185 64.6398 54.0975 64.449 54.0975 64.2501V61.3026C54.0975 61.1791 54.128 61.0576 54.1862 60.9487C54.2444 60.8399 54.3286 60.7471 54.4313 60.6786L58.2638 58.1241C58.3461 58.0692 58.4167 57.9986 58.4715 57.9163L61.4715 53.4163C61.5122 53.3561 61.5436 53.2901 61.5645 53.2206L64.1108 44.9473C64.1979 44.6644 64.2174 44.3649 64.1677 44.0731C64.118 43.7813 64.0004 43.5052 63.8245 43.2672C63.6486 43.0291 63.4192 42.8356 63.1549 42.7024C62.8905 42.5691 62.5986 42.4998 62.3025 42.5ZM62.6775 44.5063L60.1628 52.6746L57.3068 56.9593L53.5995 59.4306C53.291 59.6357 53.038 59.914 52.8632 60.2406C52.6883 60.5673 52.5971 60.9321 52.5975 61.3026V63.5001H47.4472L48.0825 58.4173L49.5225 54.1026L53.133 49.2898C53.2379 49.149 53.3926 49.0536 53.5654 49.0231C53.7383 48.9926 53.9163 49.0293 54.063 49.1256C54.2098 49.222 54.3142 49.3707 54.3549 49.5415C54.3956 49.7123 54.3695 49.8921 54.282 50.0443L51.9465 54.1251C51.8638 54.2649 51.8287 54.4278 51.8465 54.5892C51.8644 54.7507 51.9341 54.902 52.0453 55.0204C52.1566 55.1388 52.3032 55.2179 52.4633 55.2458C52.6233 55.2737 52.7881 55.2489 52.9328 55.1751L55.9328 53.6751C56.0049 53.6389 56.0708 53.5913 56.1278 53.5341L58.3778 51.2841C58.435 51.2271 58.4826 51.1612 58.5188 51.0891L61.953 44.2198C61.9846 44.1539 62.0342 44.0983 62.096 44.0594C62.1579 44.0205 62.2295 43.9999 62.3025 44C62.3638 43.9999 62.4243 44.0142 62.4791 44.0417C62.5338 44.0692 62.5814 44.1092 62.6178 44.1585C62.6543 44.2077 62.6787 44.2649 62.6891 44.3253C62.6995 44.3857 62.6955 44.4477 62.6775 44.5063Z" fill="white"/>
    <path d="M37.5574 58.0116L36.0574 53.5116C36.0322 53.435 35.9947 53.363 35.9464 53.2986L32.2631 48.3875C31.9294 47.9406 31.4376 47.6379 30.8882 47.5413C30.3389 47.4447 29.7733 47.5616 29.3072 47.868C28.8411 48.1744 28.5096 48.6472 28.3804 49.1898C28.2512 49.7325 28.3341 50.304 28.6121 50.7875L29.7161 52.7211L29.0411 52.3828L26.9628 50.3045L23.5826 43.544C23.3701 43.12 23.006 42.7912 22.5625 42.623C22.119 42.4547 21.6285 42.4592 21.1882 42.6356C20.7479 42.8119 20.3899 43.1473 20.1852 43.5752C19.9805 44.0031 19.944 44.4923 20.0831 44.9458L22.6293 53.2191C22.6503 53.2886 22.6816 53.3546 22.7223 53.4148L25.7223 57.9148C25.7772 57.9971 25.8478 58.0677 25.9301 58.1226L29.7626 60.6771C29.8653 60.7456 29.9495 60.8384 30.0077 60.9473C30.0659 61.0561 30.0964 61.1776 30.0963 61.3011V64.2486C30.0963 64.4475 30.1754 64.6383 30.316 64.7789C30.4567 64.9196 30.6474 64.9986 30.8463 64.9986H37.5964C37.7027 64.9986 37.8078 64.9759 37.9047 64.9322C38.0016 64.8884 38.0881 64.8246 38.1585 64.7449C38.2288 64.6652 38.2814 64.5714 38.3128 64.4698C38.3442 64.3682 38.3536 64.2611 38.3404 64.1556L37.5904 58.1556C37.5846 58.1065 37.5736 58.0582 37.5574 58.0116ZM31.5963 63.4986V61.3011C31.5973 60.9301 31.5062 60.5647 31.3314 60.2374C31.1565 59.9102 30.9033 59.6315 30.5943 59.4261L26.8871 56.9548L24.0311 52.6731L21.5178 44.5048C21.4999 44.4463 21.4959 44.3844 21.5062 44.3241C21.5165 44.2639 21.5408 44.2068 21.5771 44.1576C21.6134 44.1084 21.6607 44.0684 21.7153 44.0407C21.7699 44.0131 21.8301 43.9987 21.8913 43.9985C21.964 43.9981 22.0353 44.0181 22.0971 44.0563C22.1589 44.0945 22.2087 44.1493 22.2408 44.2145L25.6751 51.0838C25.7113 51.156 25.7589 51.2218 25.8161 51.2788L28.0661 53.5288C28.1231 53.586 28.1889 53.6336 28.2611 53.6698L31.2611 55.1698C31.4054 55.2426 31.5694 55.2668 31.7285 55.2388C31.8877 55.2108 32.0336 55.1322 32.1445 55.0146C32.2553 54.897 32.3252 54.7467 32.3438 54.5861C32.3623 54.4256 32.3285 54.2633 32.2473 54.1236L29.9141 50.039C29.8266 49.8869 29.8005 49.707 29.8412 49.5363C29.8819 49.3655 29.9863 49.2167 30.1331 49.1204C30.2798 49.024 30.4578 48.9874 30.6307 49.0179C30.8035 49.0484 30.9582 49.1438 31.0631 49.2845L34.6714 54.1011L36.1091 58.4158L36.7466 63.4986H31.5963Z" fill="white"/>
    <path d="M29.3477 45.5012H54.8478C55.0467 45.5012 55.2375 45.4222 55.3782 45.2816C55.5188 45.1409 55.5978 44.9501 55.5978 44.7512V38.7512C55.5978 38.1545 55.3608 37.5822 54.9388 37.1602C54.5169 36.7383 53.9446 36.5012 53.3478 36.5012H53.0613C53.5238 36.1008 53.8529 35.5686 54.0044 34.976C54.1559 34.3833 54.1226 33.7585 53.9089 33.1853C53.6953 32.6121 53.3115 32.1179 52.8091 31.7689C52.3066 31.42 51.7095 31.233 51.0978 31.233C50.4861 31.233 49.889 31.42 49.3865 31.7689C48.8841 32.1179 48.5003 32.6121 48.2867 33.1853C48.0731 33.7585 48.0398 34.3833 48.1913 34.976C48.3427 35.5686 48.6718 36.1008 49.1343 36.5012H48.8478C48.4899 36.5036 48.1378 36.5926 47.8218 36.7607C47.5841 36.2372 47.2009 35.7931 46.718 35.4812C46.2351 35.1692 45.6727 35.0026 45.0978 35.0012H44.1933C44.7426 34.5661 45.1429 33.9708 45.3385 33.2979C45.5342 32.625 45.5156 31.9079 45.2852 31.2461C45.0549 30.5843 44.6243 30.0106 44.0531 29.6046C43.4819 29.1986 42.7985 28.9805 42.0978 28.9805C41.397 28.9805 40.7136 29.1986 40.1425 29.6046C39.5713 30.0106 39.1407 30.5843 38.9103 31.2461C38.68 31.9079 38.6613 32.625 38.857 33.2979C39.0527 33.9708 39.4529 34.5661 40.0023 35.0012H39.0978C38.5229 35.0026 37.9605 35.1692 37.4775 35.4812C36.9946 35.7931 36.6115 36.2372 36.3738 36.7607C36.0577 36.5926 35.7057 36.5036 35.3478 36.5012H35.0613C35.5238 36.1008 35.8528 35.5686 36.0043 34.976C36.1558 34.3833 36.1225 33.7585 35.9089 33.1853C35.6952 32.6121 35.3115 32.1179 34.809 31.7689C34.3066 31.42 33.7095 31.233 33.0977 31.233C32.486 31.233 31.8889 31.42 31.3865 31.7689C30.884 32.1179 30.5003 32.6121 30.2866 33.1853C30.073 33.7585 30.0397 34.3833 30.1912 34.976C30.3427 35.5686 30.6717 36.1008 31.1342 36.5012H30.8477C30.251 36.5012 29.6787 36.7383 29.2567 37.1602C28.8348 37.5822 28.5977 38.1545 28.5977 38.7512V44.7512C28.5977 44.9501 28.6767 45.1409 28.8174 45.2816C28.9581 45.4222 29.1488 45.5012 29.3477 45.5012ZM51.0978 32.7512C51.3945 32.7512 51.6845 32.8392 51.9312 33.004C52.1778 33.1688 52.3701 33.4031 52.4836 33.6772C52.5972 33.9513 52.6269 34.2529 52.569 34.5438C52.5111 34.8348 52.3683 35.1021 52.1585 35.3119C51.9487 35.5216 51.6814 35.6645 51.3904 35.7224C51.0995 35.7803 50.7979 35.7505 50.5238 35.637C50.2497 35.5235 50.0154 35.3312 49.8506 35.0845C49.6858 34.8379 49.5978 34.5479 49.5978 34.2512C49.5978 33.8534 49.7558 33.4718 50.0371 33.1905C50.3185 32.9092 50.7 32.7512 51.0978 32.7512ZM48.0978 38.7512C48.0978 38.5523 48.1768 38.3615 48.3175 38.2209C48.4581 38.0802 48.6489 38.0012 48.8478 38.0012H53.3478C53.5467 38.0012 53.7375 38.0802 53.8782 38.2209C54.0188 38.3615 54.0978 38.5523 54.0978 38.7512V44.0012H48.0978V38.7512ZM42.0978 30.5012C42.4686 30.5012 42.8311 30.6111 43.1395 30.8172C43.4478 31.0232 43.6881 31.316 43.8301 31.6586C43.972 32.0013 44.0091 32.3783 43.9368 32.742C43.8644 33.1057 43.6858 33.4398 43.4236 33.702C43.1614 33.9642 42.8273 34.1428 42.4636 34.2152C42.0999 34.2875 41.7229 34.2504 41.3802 34.1085C41.0376 33.9665 40.7448 33.7262 40.5388 33.4179C40.3327 33.1095 40.2228 32.747 40.2228 32.3762C40.2228 31.8789 40.4203 31.402 40.7719 31.0504C41.1236 30.6987 41.6005 30.5012 42.0978 30.5012ZM37.5978 38.0012C37.5978 37.6034 37.7558 37.2218 38.0371 36.9405C38.3184 36.6592 38.6999 36.5012 39.0978 36.5012H45.0978C45.4956 36.5012 45.8771 36.6592 46.1585 36.9405C46.4398 37.2218 46.5978 37.6034 46.5978 38.0012V44.0012H37.5978V38.0012ZM33.0977 32.7512C33.3944 32.7512 33.6844 32.8392 33.9311 33.004C34.1778 33.1688 34.37 33.4031 34.4836 33.6772C34.5971 33.9513 34.6268 34.2529 34.5689 34.5438C34.5111 34.8348 34.3682 35.1021 34.1584 35.3119C33.9486 35.5216 33.6814 35.6645 33.3904 35.7224C33.0994 35.7803 32.7978 35.7505 32.5237 35.637C32.2496 35.5235 32.0154 35.3312 31.8505 35.0845C31.6857 34.8379 31.5977 34.5479 31.5977 34.2512C31.5977 33.8534 31.7558 33.4718 32.0371 33.1905C32.3184 32.9092 32.6999 32.7512 33.0977 32.7512ZM30.0977 38.7512C30.0977 38.5523 30.1768 38.3615 30.3174 38.2209C30.4581 38.0802 30.6488 38.0012 30.8477 38.0012H35.3478C35.5467 38.0012 35.7374 38.0802 35.8781 38.2209C36.0187 38.3615 36.0978 38.5523 36.0978 38.7512V44.0012H30.0977V38.7512Z" fill="white"/>
    <path d="M24.8477 29.7499V36.4999H26.3477V30.3079L33.313 28.2184C33.4676 28.1721 33.6031 28.0771 33.6994 27.9477C33.7957 27.8183 33.8478 27.6612 33.8477 27.4999V24.0604L35.5675 25.7801L36.628 24.7196L33.628 21.7196C33.4874 21.579 33.2966 21.5 33.0977 21.5C32.8989 21.5 32.7081 21.579 32.5675 21.7196L29.5675 24.7196L30.628 25.7801L32.3477 24.0604V26.9419L25.3825 29.0314C25.2279 29.0777 25.0924 29.1726 24.9961 29.302C24.8997 29.4315 24.8477 29.5885 24.8477 29.7499Z" fill="white"/>
    <path d="M42.8467 26.7499V22.5603L44.5664 24.2801L45.6269 23.2196L42.6269 20.2196C42.4863 20.079 42.2956 20 42.0967 20C41.8978 20 41.7071 20.079 41.5664 20.2196L38.5664 23.2196L39.6269 24.2801L41.3467 22.5603V26.7499H42.8467Z" fill="white"/>
    <path d="M53.5665 25.7801L54.627 24.7196L51.627 21.7196C51.4863 21.579 51.2956 21.5 51.0967 21.5C50.8978 21.5 50.7071 21.579 50.5665 21.7196L47.5664 24.7196L48.627 25.7801L50.3467 24.0604V27.4999C50.3468 27.6572 50.3964 27.8105 50.4885 27.9381C50.5806 28.0657 50.7104 28.1611 50.8597 28.2109L57.0967 30.2906V36.4999H58.5967V29.7499C58.5966 29.5925 58.547 29.4392 58.4549 29.3116C58.3629 29.184 58.233 29.0886 58.0837 29.0389L51.8467 26.9591V24.0604L53.5665 25.7801Z" fill="white"/>
    </g>
    <defs>
    <clipPath id="clip0_687_227">
    <rect width="85" height="85" fill="white"/>
    </clipPath>
    </defs>
    </svg>
    