<svg width="85" height="85" viewBox="0 0 85 85" fill="none" xmlns="http://www.w3.org/2000/svg">
    <g clip-path="url(#clip0_687_217)">
    <path d="M85 42.5C85 19.0279 65.9721 0 42.5 0C19.0279 0 0 19.0279 0 42.5C0 65.9721 19.0279 85 42.5 85C65.9721 85 85 65.9721 85 42.5Z" fill="#BF5E28"/>
    <path d="M39.9721 58.1677C39.7753 57.1804 39.3694 56.2469 38.7817 55.4302C38.1941 54.6134 37.4383 53.9324 36.5655 53.4331C35.7264 52.9557 34.8287 52.5902 33.895 52.3459C34.7273 51.7201 35.3419 50.8479 35.6518 49.8528C35.9617 48.8578 35.9512 47.7903 35.6219 46.8015C35.2925 45.8128 34.6609 44.9529 33.8165 44.3435C32.9722 43.7342 31.9578 43.4062 30.9171 43.4062C29.8763 43.4062 28.862 43.7342 28.0176 44.3435C27.1732 44.9529 26.5416 45.8128 26.2123 46.8015C25.8829 47.7903 25.8724 48.8578 26.1823 49.8528C26.4922 50.8479 27.1068 51.7201 27.9391 52.3459C27.0062 52.5904 26.1091 52.9559 25.2707 53.4331C24.398 53.9324 23.6424 54.6133 23.0547 55.4299C22.4671 56.2465 22.0611 57.1798 21.8641 58.1669L21.0139 62.4338C20.981 62.598 21.0071 62.7686 21.0876 62.9153C21.1681 63.0621 21.2978 63.1756 21.4539 63.2358C27.5459 65.5861 34.2925 65.5861 40.3845 63.2358C40.5405 63.1756 40.6703 63.0621 40.7508 62.9153C40.8313 62.7686 40.8574 62.598 40.8245 62.4338L39.9721 58.1677ZM27.3765 48.3834C27.3765 47.6816 27.5843 46.9956 27.9736 46.4122C28.3628 45.8287 28.9161 45.3739 29.5635 45.1054C30.2108 44.8368 30.9231 44.7665 31.6103 44.9034C32.2975 45.0404 32.9288 45.3783 33.4242 45.8745C33.9197 46.3707 34.2571 47.0029 34.3938 47.6912C34.5305 48.3794 34.4603 49.0928 34.1922 49.7411C33.9241 50.3894 33.47 50.9437 32.8874 51.3335C32.3048 51.7234 31.6199 51.9314 30.9192 51.9314C29.98 51.9303 29.0795 51.5562 28.4154 50.891C27.7512 50.2259 27.3776 49.3241 27.3765 48.3834ZM22.5209 62.121L23.2557 58.4451C23.4128 57.657 23.737 56.9118 24.2062 56.2598C24.6754 55.6078 25.2789 55.0641 25.9757 54.6656C27.4865 53.8198 29.1884 53.3759 30.9192 53.3759C32.6499 53.3759 34.3519 53.8198 35.8626 54.6656C36.5596 55.0641 37.1631 55.6079 37.6324 56.26C38.1016 56.9122 38.4257 57.6575 38.5827 58.4458L39.3175 62.121C33.8875 64.0689 27.9509 64.0689 22.5209 62.121Z" fill="white"/>
    <path d="M64.9143 62.4338L64.0641 58.1648C63.8672 57.1776 63.4613 56.244 62.8736 55.4272C62.286 54.6105 61.5302 53.9296 60.6574 53.4302C59.8176 52.9537 58.9191 52.5891 57.9848 52.3459C58.8171 51.7201 59.4317 50.8479 59.7416 49.8528C60.0515 48.8578 60.041 47.7903 59.7117 46.8015C59.3823 45.8128 58.7507 44.9529 57.9063 44.3435C57.062 43.7342 56.0476 43.4062 55.0069 43.4062C53.9661 43.4062 52.9518 43.7342 52.1074 44.3435C51.263 44.9529 50.6314 45.8128 50.3021 46.8015C49.9727 47.7903 49.9622 48.8578 50.2721 49.8528C50.582 50.8479 51.1966 51.7201 52.0289 52.3459C51.096 52.5904 50.1989 52.9559 49.3605 53.4331C48.4878 53.9324 47.7322 54.6133 47.1445 55.4299C46.5569 56.2465 46.1509 57.1798 45.9539 58.1669L45.1037 62.4338C45.0708 62.598 45.0969 62.7686 45.1774 62.9153C45.2579 63.0621 45.3876 63.1756 45.5437 63.2358C51.6357 65.5861 58.3823 65.5861 64.4743 63.2358C64.6303 63.1756 64.7601 63.0621 64.8406 62.9153C64.9211 62.7686 64.9472 62.598 64.9143 62.4338ZM51.4663 48.3834C51.4663 47.6816 51.6741 46.9956 52.0634 46.4122C52.4526 45.8287 53.0059 45.3739 53.6533 45.1054C54.3006 44.8368 55.0129 44.7665 55.7001 44.9034C56.3873 45.0404 57.0186 45.3783 57.514 45.8745C58.0095 46.3707 58.3469 47.0029 58.4836 47.6912C58.6203 48.3794 58.5501 49.0928 58.282 49.7411C58.0139 50.3894 57.5598 50.9437 56.9772 51.3335C56.3946 51.7234 55.7097 51.9314 55.009 51.9314C54.0698 51.9303 53.1693 51.5562 52.5052 50.891C51.841 50.2259 51.4674 49.3241 51.4663 48.3834ZM46.6107 62.121L47.3455 58.4451C47.5026 57.657 47.8268 56.9118 48.296 56.2598C48.7652 55.6078 49.3687 55.0641 50.0655 54.6656C51.5763 53.8198 53.2782 53.3759 55.009 53.3759C56.7397 53.3759 58.4417 53.8198 59.9524 54.6656C60.6494 55.0641 61.2529 55.6079 61.7222 56.26C62.1914 56.9122 62.5155 57.6575 62.6725 58.4458L63.4073 62.121C57.9773 64.0689 52.0407 64.0689 46.6107 62.121Z" fill="white"/>
    <path d="M27.3765 35.6117H30.9192V39.1598C30.9192 39.2916 30.9558 39.4208 31.025 39.5329C31.0942 39.645 31.1932 39.7356 31.3109 39.7945C31.4285 39.8534 31.5603 39.8784 31.6914 39.8666C31.8224 39.8547 31.9476 39.8066 32.0528 39.7275L37.5319 35.6117H50.0496C50.2376 35.6117 50.4178 35.5369 50.5507 35.4038C50.6835 35.2708 50.7582 35.0903 50.7582 34.9021V20.7096C50.7582 20.5214 50.6835 20.3409 50.5507 20.2078C50.4178 20.0748 50.2376 20 50.0496 20H27.3765C27.1886 20 27.0084 20.0748 26.8755 20.2078C26.7426 20.3409 26.668 20.5214 26.668 20.7096V34.9021C26.668 35.0903 26.7426 35.2708 26.8755 35.4038C27.0084 35.5369 27.1886 35.6117 27.3765 35.6117ZM28.085 21.4192H49.3411V34.1924H37.296C37.1427 34.1924 36.9935 34.2422 36.8709 34.3344L32.3363 37.7406V34.9021C32.3363 34.7139 32.2616 34.5334 32.1287 34.4003C31.9959 34.2672 31.8156 34.1924 31.6277 34.1924H28.085V21.4192Z" fill="white"/>
    <path d="M56.6755 42.5357C56.7784 42.6238 56.9044 42.6806 57.0385 42.6993C57.1726 42.718 57.3092 42.6978 57.4322 42.6411C57.5552 42.5844 57.6594 42.4937 57.7325 42.3795C57.8056 42.2654 57.8445 42.1327 57.8446 41.9971V38.449H60.6788C60.8667 38.449 61.0469 38.3742 61.1798 38.2411C61.3127 38.1081 61.3873 37.9276 61.3873 37.7394V24.2565C61.3873 24.0683 61.3127 23.8878 61.1798 23.7548C61.0469 23.6217 60.8667 23.5469 60.6788 23.5469H54.302C54.114 23.5469 53.9338 23.6217 53.8009 23.7548C53.6681 23.8878 53.5934 24.0683 53.5934 24.2565C53.5934 24.4447 53.6681 24.6252 53.8009 24.7583C53.9338 24.8914 54.114 24.9662 54.302 24.9662H59.9702V37.0297H57.1361C56.9482 37.0297 56.768 37.1045 56.6351 37.2376C56.5022 37.3707 56.4276 37.5511 56.4276 37.7394V40.4544L52.6369 37.2007C52.5088 37.0902 52.3454 37.0295 52.1763 37.0297H41.5483C41.3604 37.0297 41.1802 37.1045 41.0473 37.2376C40.9144 37.3707 40.8398 37.5511 40.8398 37.7394C40.8398 37.9276 40.9144 38.1081 41.0473 38.2411C41.1802 38.3742 41.3604 38.449 41.5483 38.449H51.9142L56.6755 42.5357Z" fill="white"/>
    <path d="M34.4607 29.9335C34.6486 29.9335 34.8288 29.8587 34.9617 29.7257C35.0945 29.5926 35.1692 29.4121 35.1692 29.2239V26.3854C35.1692 26.1972 35.0945 26.0167 34.9617 25.8836C34.8288 25.7505 34.6486 25.6758 34.4607 25.6758H31.6265C31.4386 25.6758 31.2584 25.7505 31.1255 25.8836C30.9926 26.0167 30.918 26.1972 30.918 26.3854V29.2239C30.918 29.4121 30.9926 29.5926 31.1255 29.7257C31.2584 29.8587 31.4386 29.9335 31.6265 29.9335H34.4607ZM32.3351 27.095H33.7521V28.5143H32.3351V27.095Z" fill="white"/>
    <path d="M42.9624 29.9335H45.7965C45.9844 29.9335 46.1647 29.8587 46.2975 29.7257C46.4304 29.5926 46.5051 29.4121 46.5051 29.2239V26.3854C46.5051 26.1972 46.4304 26.0167 46.2975 25.8836C46.1647 25.7505 45.9844 25.6758 45.7965 25.6758H42.9624C42.7745 25.6758 42.5943 25.7505 42.4614 25.8836C42.3285 26.0167 42.2539 26.1972 42.2539 26.3854V29.2239C42.2539 29.4121 42.3285 29.5926 42.4614 29.7257C42.5943 29.8587 42.7745 29.9335 42.9624 29.9335ZM43.6709 27.095H45.088V28.5143H43.6709V27.095Z" fill="white"/>
    <path d="M37.2944 29.9335H40.1285C40.3165 29.9335 40.4967 29.8587 40.6296 29.7257C40.7624 29.5926 40.8371 29.4121 40.8371 29.2239V26.3854C40.8371 26.1972 40.7624 26.0167 40.6296 25.8836C40.4967 25.7505 40.3165 25.6758 40.1285 25.6758H37.2944C37.1065 25.6758 36.9263 25.7505 36.7934 25.8836C36.6605 26.0167 36.5859 26.1972 36.5859 26.3854V29.2239C36.5859 29.4121 36.6605 29.5926 36.7934 29.7257C36.9263 29.8587 37.1065 29.9335 37.2944 29.9335ZM38.0029 27.095H39.42V28.5143H38.0029V27.095Z" fill="white"/>
    </g>
    <defs>
    <clipPath id="clip0_687_217">
    <rect width="85" height="85" fill="white"/>
    </clipPath>
    </defs>
    </svg>
    