<svg width="85" height="85" viewBox="0 0 85 85" fill="none" xmlns="http://www.w3.org/2000/svg">
    <g clip-path="url(#clip0_687_49)">
    <path d="M85 42.5C85 19.0279 65.9721 0 42.5 0C19.0279 0 0 19.0279 0 42.5C0 65.9721 19.0279 85 42.5 85C65.9721 85 85 65.9721 85 42.5Z" fill="#BF5E28"/>
    <path d="M35.8477 55.6995L37.0311 54.875L37.861 56.0662L36.6776 56.8907L35.8477 55.6995Z" fill="white"/>
    <path d="M38.4805 53.8652L48.3621 46.9805L49.192 48.1717L39.3104 55.0563L38.4805 53.8652Z" fill="white"/>
    <path d="M63.0875 29.8623C62.8465 29.021 62.5105 28.211 62.0852 27.4439L63.1202 25.7723L59.2277 21.8798L57.5561 22.9148C56.789 22.4895 55.979 22.1535 55.1377 21.9125L54.6877 20H49.1832L48.7332 21.9125C47.892 22.1535 47.082 22.4895 46.3148 22.9148L44.6433 21.8798L40.7508 25.7723L41.7858 27.4439C41.3605 28.211 41.0244 29.021 40.7835 29.8623L38.871 30.3123V31.7029C38.5277 31.7893 38.1996 31.9352 37.9158 32.1485L33.0159 35.8226C32.891 35.9162 32.7365 35.9677 32.5804 35.9677H30.8065C31.7508 35.0445 32.3387 33.7598 32.3387 32.3387C32.3387 29.5378 30.059 27.2581 27.2581 27.2581C24.4572 27.2581 22.1774 29.5378 22.1774 32.3387C22.1774 33.9994 22.9816 35.4713 24.2177 36.3989C21.7565 37.3359 20 39.7136 20 42.5V62.0968C20 63.6979 21.3021 65 22.9032 65H65V30.3123L63.0875 29.8623ZM23.629 32.3387C23.629 30.3377 25.257 28.7097 27.2581 28.7097C29.2591 28.7097 30.8871 30.3377 30.8871 32.3387C30.8871 34.3398 29.2591 35.9677 27.2581 35.9677C25.257 35.9677 23.629 34.3398 23.629 32.3387ZM21.4516 42.5C21.4516 39.6991 23.7314 37.4194 26.5323 37.4194H32.5804C33.0493 37.4194 33.5131 37.264 33.8869 36.9831L38.786 33.3091C38.9973 33.1516 39.2578 33.0645 39.5213 33.0645H39.8247C40.499 33.0645 41.0484 33.614 41.0484 34.289C41.0484 34.6693 40.8764 35.0213 40.5759 35.255L35.9757 38.8332C35.3428 39.3253 34.5517 39.5968 33.7475 39.5968H27.9839V47.5806H30.8871C32.0876 47.5806 33.0645 48.5576 33.0645 49.7581V56.2896C33.0645 57.0909 32.4135 57.7419 31.6122 57.7419C31.2246 57.7419 30.8595 57.591 30.5852 57.3166C30.3115 57.0423 30.1606 56.6779 30.1606 56.2903L30.1613 51.9355C30.1613 51.1349 29.5102 50.4839 28.7097 50.4839H23.629C22.4285 50.4839 21.4516 49.5069 21.4516 48.3065V42.5ZM30.8871 46.129H29.4355V41.0484H33.7475C34.8725 41.0484 35.9801 40.6688 36.867 39.9778L40.9555 36.7981C41.1769 37.4498 41.4505 38.082 41.7858 38.6852L40.7508 40.3567L44.6433 44.2492L46.3148 43.2142C46.7714 43.4675 47.2475 43.678 47.7323 43.8667L34.5161 53.0663V49.7581C34.5161 47.757 32.8881 46.129 30.8871 46.129ZM25.8065 51.9355H28.7097L28.709 56.2896C28.709 56.5422 28.7518 56.7853 28.8135 57.0234L25.8065 59.1246V51.9355ZM21.4516 62.0968V51.1908C22.0598 51.6517 22.8089 51.9355 23.629 51.9355H24.3548V62.0968C24.3548 62.8973 23.7038 63.5484 22.9032 63.5484C22.1027 63.5484 21.4516 62.8973 21.4516 62.0968ZM63.5484 63.5484H25.4029C25.6526 63.1194 25.8065 62.6281 25.8065 62.0968V60.8956L29.5226 58.2986C29.5356 58.3124 29.5451 58.3291 29.5589 58.3429C30.1076 58.8916 30.837 59.1935 31.6122 59.1935C33.2133 59.1935 34.5161 57.8907 34.5161 56.2896V54.8344L48.8791 44.8371L49.1832 46.129H54.6877L55.1377 44.2165C55.979 43.9756 56.789 43.6395 57.5561 43.2142L59.2277 44.2492L63.1202 40.3567L62.0852 38.6852C62.5105 37.918 62.8465 37.108 63.0875 36.2668L63.5484 36.1586V63.5484ZM63.5484 34.6671L61.8986 35.0554L61.7927 35.488C61.5488 36.4867 61.1532 37.439 60.619 38.3208L60.3882 38.7004L61.2802 40.1419L59.0135 42.4085L57.5721 41.5165L57.1925 41.7473C56.3106 42.2815 55.3584 42.6771 54.3597 42.921L53.9271 43.0269L53.5381 44.6774H50.3329L49.9446 43.0277L49.512 42.9217C48.5133 42.6778 47.561 42.2823 46.6792 41.7481L46.2996 41.5173L44.8581 42.4093L42.5915 40.1426L43.4835 38.7011L43.2527 38.3215C42.7446 37.484 42.3672 36.581 42.1211 35.636C42.3585 35.2318 42.5 34.7745 42.5 34.289C42.5 32.984 41.5601 31.8981 40.3226 31.6637V31.4627L41.9723 31.0744L42.0783 30.6418C42.3222 29.6431 42.7177 28.6908 43.2519 27.809L43.4827 27.4294L42.5907 25.9879L44.8574 23.7212L46.2989 24.6132L46.6785 24.3824C47.5603 23.8482 48.5126 23.4527 49.5113 23.2088L49.9439 23.1028L50.3329 21.4516H53.5381L53.9264 23.1014L54.359 23.2073C55.3577 23.4512 56.3099 23.8468 57.1918 24.381L57.5714 24.6118L59.0128 23.7198L61.2795 25.9865L60.3875 27.4279L60.6183 27.8075C61.1525 28.6894 61.5481 29.6416 61.7919 30.6403L61.8979 31.0729L63.5484 31.4619V34.6671Z" fill="white"/>
    <path d="M51.9363 24.3555C47.1336 24.3555 43.2266 28.2626 43.2266 33.0652C43.2266 37.8679 47.1336 41.7749 51.9363 41.7749C56.7389 41.7749 60.646 37.8679 60.646 33.0652C60.646 28.2626 56.7389 24.3555 51.9363 24.3555ZM51.9363 40.3233C47.9342 40.3233 44.6782 37.0673 44.6782 33.0652C44.6782 29.0631 47.9342 25.8072 51.9363 25.8072C55.9384 25.8072 59.1943 29.0631 59.1943 33.0652C59.1943 37.0673 55.9384 40.3233 51.9363 40.3233Z" fill="white"/>
    <path d="M51.9369 28.7109C49.5352 28.7109 47.582 30.664 47.582 33.0657C47.582 35.4674 49.5352 37.4206 51.9369 37.4206C54.3386 37.4206 56.2917 35.4674 56.2917 33.0657C56.2917 30.664 54.3386 28.7109 51.9369 28.7109ZM51.9369 35.9689C50.3358 35.9689 49.0337 34.6668 49.0337 33.0657C49.0337 31.4646 50.3358 30.1625 51.9369 30.1625C53.538 30.1625 54.8401 31.4646 54.8401 33.0657C54.8401 34.6668 53.538 35.9689 51.9369 35.9689Z" fill="white"/>
    <path d="M60.6445 60.6445H62.0961V62.0961H60.6445V60.6445Z" fill="white"/>
    <path d="M60.6445 57.7422H62.0961V59.1938H60.6445V57.7422Z" fill="white"/>
    <path d="M60.6445 54.8398H62.0961V56.2914H60.6445V54.8398Z" fill="white"/>
    <path d="M27.2578 60.6445H28.7094V62.0961H27.2578V60.6445Z" fill="white"/>
    <path d="M30.1602 60.6445H31.6118V62.0961H30.1602V60.6445Z" fill="white"/>
    <path d="M33.0664 60.6445H34.518V62.0961H33.0664V60.6445Z" fill="white"/>
    <mask id="mask0_687_49" style="mask-type:luminance" maskUnits="userSpaceOnUse" x="20" y="20" width="45" height="45">
    <path d="M35.8477 55.6995L37.0311 54.875L37.861 56.0662L36.6776 56.8907L35.8477 55.6995Z" fill="white"/>
    <path d="M38.4805 53.8652L48.3621 46.9805L49.192 48.1717L39.3104 55.0563L38.4805 53.8652Z" fill="white"/>
    <path d="M63.0875 29.8623C62.8465 29.021 62.5105 28.211 62.0852 27.4439L63.1202 25.7723L59.2277 21.8798L57.5561 22.9148C56.789 22.4895 55.979 22.1535 55.1377 21.9125L54.6877 20H49.1832L48.7332 21.9125C47.892 22.1535 47.082 22.4895 46.3148 22.9148L44.6433 21.8798L40.7508 25.7723L41.7858 27.4439C41.3605 28.211 41.0244 29.021 40.7835 29.8623L38.871 30.3123V31.7029C38.5277 31.7893 38.1996 31.9352 37.9158 32.1485L33.0159 35.8226C32.891 35.9162 32.7365 35.9677 32.5804 35.9677H30.8065C31.7508 35.0445 32.3387 33.7598 32.3387 32.3387C32.3387 29.5378 30.059 27.2581 27.2581 27.2581C24.4572 27.2581 22.1774 29.5378 22.1774 32.3387C22.1774 33.9994 22.9816 35.4713 24.2177 36.3989C21.7565 37.3359 20 39.7136 20 42.5V62.0968C20 63.6979 21.3021 65 22.9032 65H65V30.3123L63.0875 29.8623ZM23.629 32.3387C23.629 30.3377 25.257 28.7097 27.2581 28.7097C29.2591 28.7097 30.8871 30.3377 30.8871 32.3387C30.8871 34.3398 29.2591 35.9677 27.2581 35.9677C25.257 35.9677 23.629 34.3398 23.629 32.3387ZM21.4516 42.5C21.4516 39.6991 23.7314 37.4194 26.5323 37.4194H32.5804C33.0493 37.4194 33.5131 37.264 33.8869 36.9831L38.786 33.3091C38.9973 33.1516 39.2578 33.0645 39.5213 33.0645H39.8247C40.499 33.0645 41.0484 33.614 41.0484 34.289C41.0484 34.6693 40.8764 35.0213 40.5759 35.255L35.9757 38.8332C35.3428 39.3253 34.5517 39.5968 33.7475 39.5968H27.9839V47.5806H30.8871C32.0876 47.5806 33.0645 48.5576 33.0645 49.7581V56.2896C33.0645 57.0909 32.4135 57.7419 31.6122 57.7419C31.2246 57.7419 30.8595 57.591 30.5852 57.3166C30.3115 57.0423 30.1606 56.6779 30.1606 56.2903L30.1613 51.9355C30.1613 51.1349 29.5102 50.4839 28.7097 50.4839H23.629C22.4285 50.4839 21.4516 49.5069 21.4516 48.3065V42.5ZM30.8871 46.129H29.4355V41.0484H33.7475C34.8725 41.0484 35.9801 40.6688 36.867 39.9778L40.9555 36.7981C41.1769 37.4498 41.4505 38.082 41.7858 38.6852L40.7508 40.3567L44.6433 44.2492L46.3148 43.2142C46.7714 43.4675 47.2475 43.678 47.7323 43.8667L34.5161 53.0663V49.7581C34.5161 47.757 32.8881 46.129 30.8871 46.129ZM25.8065 51.9355H28.7097L28.709 56.2896C28.709 56.5422 28.7518 56.7853 28.8135 57.0234L25.8065 59.1246V51.9355ZM21.4516 62.0968V51.1908C22.0598 51.6517 22.8089 51.9355 23.629 51.9355H24.3548V62.0968C24.3548 62.8973 23.7038 63.5484 22.9032 63.5484C22.1027 63.5484 21.4516 62.8973 21.4516 62.0968ZM63.5484 63.5484H25.4029C25.6526 63.1194 25.8065 62.6281 25.8065 62.0968V60.8956L29.5226 58.2986C29.5356 58.3124 29.5451 58.3291 29.5589 58.3429C30.1076 58.8916 30.837 59.1935 31.6122 59.1935C33.2133 59.1935 34.5161 57.8907 34.5161 56.2896V54.8344L48.8791 44.8371L49.1832 46.129H54.6877L55.1377 44.2165C55.979 43.9756 56.789 43.6395 57.5561 43.2142L59.2277 44.2492L63.1202 40.3567L62.0852 38.6852C62.5105 37.918 62.8465 37.108 63.0875 36.2668L63.5484 36.1586V63.5484ZM63.5484 34.6671L61.8986 35.0554L61.7927 35.488C61.5488 36.4867 61.1532 37.439 60.619 38.3208L60.3882 38.7004L61.2802 40.1419L59.0135 42.4085L57.5721 41.5165L57.1925 41.7473C56.3106 42.2815 55.3584 42.6771 54.3597 42.921L53.9271 43.0269L53.5381 44.6774H50.3329L49.9446 43.0277L49.512 42.9217C48.5133 42.6778 47.561 42.2823 46.6792 41.7481L46.2996 41.5173L44.8581 42.4093L42.5915 40.1426L43.4835 38.7011L43.2527 38.3215C42.7446 37.484 42.3672 36.581 42.1211 35.636C42.3585 35.2318 42.5 34.7745 42.5 34.289C42.5 32.984 41.5601 31.8981 40.3226 31.6637V31.4627L41.9723 31.0744L42.0783 30.6418C42.3222 29.6431 42.7177 28.6908 43.2519 27.809L43.4827 27.4294L42.5907 25.9879L44.8574 23.7212L46.2989 24.6132L46.6785 24.3824C47.5603 23.8482 48.5126 23.4527 49.5113 23.2088L49.9439 23.1028L50.3329 21.4516H53.5381L53.9264 23.1014L54.359 23.2073C55.3577 23.4512 56.3099 23.8468 57.1918 24.381L57.5714 24.6118L59.0128 23.7198L61.2795 25.9865L60.3875 27.4279L60.6183 27.8075C61.1525 28.6894 61.5481 29.6416 61.7919 30.6403L61.8979 31.0729L63.5484 31.4619V34.6671Z" fill="white"/>
    <path d="M51.9363 24.3555C47.1336 24.3555 43.2266 28.2626 43.2266 33.0652C43.2266 37.8679 47.1336 41.7749 51.9363 41.7749C56.7389 41.7749 60.646 37.8679 60.646 33.0652C60.646 28.2626 56.7389 24.3555 51.9363 24.3555ZM51.9363 40.3233C47.9342 40.3233 44.6782 37.0673 44.6782 33.0652C44.6782 29.0631 47.9342 25.8072 51.9363 25.8072C55.9384 25.8072 59.1943 29.0631 59.1943 33.0652C59.1943 37.0673 55.9384 40.3233 51.9363 40.3233Z" fill="white"/>
    <path d="M51.9369 28.7109C49.5352 28.7109 47.582 30.664 47.582 33.0657C47.582 35.4674 49.5352 37.4206 51.9369 37.4206C54.3386 37.4206 56.2917 35.4674 56.2917 33.0657C56.2917 30.664 54.3386 28.7109 51.9369 28.7109ZM51.9369 35.9689C50.3358 35.9689 49.0337 34.6668 49.0337 33.0657C49.0337 31.4646 50.3358 30.1625 51.9369 30.1625C53.538 30.1625 54.8401 31.4646 54.8401 33.0657C54.8401 34.6668 53.538 35.9689 51.9369 35.9689Z" fill="white"/>
    <path d="M60.6445 60.6445H62.0961V62.0961H60.6445V60.6445Z" fill="white"/>
    <path d="M60.6445 57.7422H62.0961V59.1938H60.6445V57.7422Z" fill="white"/>
    <path d="M60.6445 54.8398H62.0961V56.2914H60.6445V54.8398Z" fill="white"/>
    <path d="M27.2578 60.6445H28.7094V62.0961H27.2578V60.6445Z" fill="white"/>
    <path d="M30.1602 60.6445H31.6118V62.0961H30.1602V60.6445Z" fill="white"/>
    <path d="M33.0664 60.6445H34.518V62.0961H33.0664V60.6445Z" fill="white"/>
    </mask>
    <g mask="url(#mask0_687_49)">
    <path d="M35.8477 55.6995L37.0311 54.875L37.861 56.0662L36.6776 56.8907L35.8477 55.6995Z" stroke="white" stroke-width="2"/>
    </g>
    <mask id="mask1_687_49" style="mask-type:luminance" maskUnits="userSpaceOnUse" x="20" y="20" width="45" height="45">
    <path d="M35.8477 55.6995L37.0311 54.875L37.861 56.0662L36.6776 56.8907L35.8477 55.6995Z" fill="white"/>
    <path d="M38.4805 53.8652L48.3621 46.9805L49.192 48.1717L39.3104 55.0563L38.4805 53.8652Z" fill="white"/>
    <path d="M63.0875 29.8623C62.8465 29.021 62.5105 28.211 62.0852 27.4439L63.1202 25.7723L59.2277 21.8798L57.5561 22.9148C56.789 22.4895 55.979 22.1535 55.1377 21.9125L54.6877 20H49.1832L48.7332 21.9125C47.892 22.1535 47.082 22.4895 46.3148 22.9148L44.6433 21.8798L40.7508 25.7723L41.7858 27.4439C41.3605 28.211 41.0244 29.021 40.7835 29.8623L38.871 30.3123V31.7029C38.5277 31.7893 38.1996 31.9352 37.9158 32.1485L33.0159 35.8226C32.891 35.9162 32.7365 35.9677 32.5804 35.9677H30.8065C31.7508 35.0445 32.3387 33.7598 32.3387 32.3387C32.3387 29.5378 30.059 27.2581 27.2581 27.2581C24.4572 27.2581 22.1774 29.5378 22.1774 32.3387C22.1774 33.9994 22.9816 35.4713 24.2177 36.3989C21.7565 37.3359 20 39.7136 20 42.5V62.0968C20 63.6979 21.3021 65 22.9032 65H65V30.3123L63.0875 29.8623ZM23.629 32.3387C23.629 30.3377 25.257 28.7097 27.2581 28.7097C29.2591 28.7097 30.8871 30.3377 30.8871 32.3387C30.8871 34.3398 29.2591 35.9677 27.2581 35.9677C25.257 35.9677 23.629 34.3398 23.629 32.3387ZM21.4516 42.5C21.4516 39.6991 23.7314 37.4194 26.5323 37.4194H32.5804C33.0493 37.4194 33.5131 37.264 33.8869 36.9831L38.786 33.3091C38.9973 33.1516 39.2578 33.0645 39.5213 33.0645H39.8247C40.499 33.0645 41.0484 33.614 41.0484 34.289C41.0484 34.6693 40.8764 35.0213 40.5759 35.255L35.9757 38.8332C35.3428 39.3253 34.5517 39.5968 33.7475 39.5968H27.9839V47.5806H30.8871C32.0876 47.5806 33.0645 48.5576 33.0645 49.7581V56.2896C33.0645 57.0909 32.4135 57.7419 31.6122 57.7419C31.2246 57.7419 30.8595 57.591 30.5852 57.3166C30.3115 57.0423 30.1606 56.6779 30.1606 56.2903L30.1613 51.9355C30.1613 51.1349 29.5102 50.4839 28.7097 50.4839H23.629C22.4285 50.4839 21.4516 49.5069 21.4516 48.3065V42.5ZM30.8871 46.129H29.4355V41.0484H33.7475C34.8725 41.0484 35.9801 40.6688 36.867 39.9778L40.9555 36.7981C41.1769 37.4498 41.4505 38.082 41.7858 38.6852L40.7508 40.3567L44.6433 44.2492L46.3148 43.2142C46.7714 43.4675 47.2475 43.678 47.7323 43.8667L34.5161 53.0663V49.7581C34.5161 47.757 32.8881 46.129 30.8871 46.129ZM25.8065 51.9355H28.7097L28.709 56.2896C28.709 56.5422 28.7518 56.7853 28.8135 57.0234L25.8065 59.1246V51.9355ZM21.4516 62.0968V51.1908C22.0598 51.6517 22.8089 51.9355 23.629 51.9355H24.3548V62.0968C24.3548 62.8973 23.7038 63.5484 22.9032 63.5484C22.1027 63.5484 21.4516 62.8973 21.4516 62.0968ZM63.5484 63.5484H25.4029C25.6526 63.1194 25.8065 62.6281 25.8065 62.0968V60.8956L29.5226 58.2986C29.5356 58.3124 29.5451 58.3291 29.5589 58.3429C30.1076 58.8916 30.837 59.1935 31.6122 59.1935C33.2133 59.1935 34.5161 57.8907 34.5161 56.2896V54.8344L48.8791 44.8371L49.1832 46.129H54.6877L55.1377 44.2165C55.979 43.9756 56.789 43.6395 57.5561 43.2142L59.2277 44.2492L63.1202 40.3567L62.0852 38.6852C62.5105 37.918 62.8465 37.108 63.0875 36.2668L63.5484 36.1586V63.5484ZM63.5484 34.6671L61.8986 35.0554L61.7927 35.488C61.5488 36.4867 61.1532 37.439 60.619 38.3208L60.3882 38.7004L61.2802 40.1419L59.0135 42.4085L57.5721 41.5165L57.1925 41.7473C56.3106 42.2815 55.3584 42.6771 54.3597 42.921L53.9271 43.0269L53.5381 44.6774H50.3329L49.9446 43.0277L49.512 42.9217C48.5133 42.6778 47.561 42.2823 46.6792 41.7481L46.2996 41.5173L44.8581 42.4093L42.5915 40.1426L43.4835 38.7011L43.2527 38.3215C42.7446 37.484 42.3672 36.581 42.1211 35.636C42.3585 35.2318 42.5 34.7745 42.5 34.289C42.5 32.984 41.5601 31.8981 40.3226 31.6637V31.4627L41.9723 31.0744L42.0783 30.6418C42.3222 29.6431 42.7177 28.6908 43.2519 27.809L43.4827 27.4294L42.5907 25.9879L44.8574 23.7212L46.2989 24.6132L46.6785 24.3824C47.5603 23.8482 48.5126 23.4527 49.5113 23.2088L49.9439 23.1028L50.3329 21.4516H53.5381L53.9264 23.1014L54.359 23.2073C55.3577 23.4512 56.3099 23.8468 57.1918 24.381L57.5714 24.6118L59.0128 23.7198L61.2795 25.9865L60.3875 27.4279L60.6183 27.8075C61.1525 28.6894 61.5481 29.6416 61.7919 30.6403L61.8979 31.0729L63.5484 31.4619V34.6671Z" fill="white"/>
    <path d="M51.9363 24.3555C47.1336 24.3555 43.2266 28.2626 43.2266 33.0652C43.2266 37.8679 47.1336 41.7749 51.9363 41.7749C56.7389 41.7749 60.646 37.8679 60.646 33.0652C60.646 28.2626 56.7389 24.3555 51.9363 24.3555ZM51.9363 40.3233C47.9342 40.3233 44.6782 37.0673 44.6782 33.0652C44.6782 29.0631 47.9342 25.8072 51.9363 25.8072C55.9384 25.8072 59.1943 29.0631 59.1943 33.0652C59.1943 37.0673 55.9384 40.3233 51.9363 40.3233Z" fill="white"/>
    <path d="M51.9369 28.7109C49.5352 28.7109 47.582 30.664 47.582 33.0657C47.582 35.4674 49.5352 37.4206 51.9369 37.4206C54.3386 37.4206 56.2917 35.4674 56.2917 33.0657C56.2917 30.664 54.3386 28.7109 51.9369 28.7109ZM51.9369 35.9689C50.3358 35.9689 49.0337 34.6668 49.0337 33.0657C49.0337 31.4646 50.3358 30.1625 51.9369 30.1625C53.538 30.1625 54.8401 31.4646 54.8401 33.0657C54.8401 34.6668 53.538 35.9689 51.9369 35.9689Z" fill="white"/>
    <path d="M60.6445 60.6445H62.0961V62.0961H60.6445V60.6445Z" fill="white"/>
    <path d="M60.6445 57.7422H62.0961V59.1938H60.6445V57.7422Z" fill="white"/>
    <path d="M60.6445 54.8398H62.0961V56.2914H60.6445V54.8398Z" fill="white"/>
    <path d="M27.2578 60.6445H28.7094V62.0961H27.2578V60.6445Z" fill="white"/>
    <path d="M30.1602 60.6445H31.6118V62.0961H30.1602V60.6445Z" fill="white"/>
    <path d="M33.0664 60.6445H34.518V62.0961H33.0664V60.6445Z" fill="white"/>
    </mask>
    <g mask="url(#mask1_687_49)">
    <path d="M38.4805 53.8652L48.3621 46.9805L49.192 48.1717L39.3104 55.0563L38.4805 53.8652Z" stroke="white" stroke-width="2"/>
    </g>
    <mask id="mask2_687_49" style="mask-type:luminance" maskUnits="userSpaceOnUse" x="20" y="20" width="45" height="45">
    <path d="M35.8477 55.6995L37.0311 54.875L37.861 56.0662L36.6776 56.8907L35.8477 55.6995Z" fill="white"/>
    <path d="M38.4805 53.8652L48.3621 46.9805L49.192 48.1717L39.3104 55.0563L38.4805 53.8652Z" fill="white"/>
    <path d="M63.0875 29.8623C62.8465 29.021 62.5105 28.211 62.0852 27.4439L63.1202 25.7723L59.2277 21.8798L57.5561 22.9148C56.789 22.4895 55.979 22.1535 55.1377 21.9125L54.6877 20H49.1832L48.7332 21.9125C47.892 22.1535 47.082 22.4895 46.3148 22.9148L44.6433 21.8798L40.7508 25.7723L41.7858 27.4439C41.3605 28.211 41.0244 29.021 40.7835 29.8623L38.871 30.3123V31.7029C38.5277 31.7893 38.1996 31.9352 37.9158 32.1485L33.0159 35.8226C32.891 35.9162 32.7365 35.9677 32.5804 35.9677H30.8065C31.7508 35.0445 32.3387 33.7598 32.3387 32.3387C32.3387 29.5378 30.059 27.2581 27.2581 27.2581C24.4572 27.2581 22.1774 29.5378 22.1774 32.3387C22.1774 33.9994 22.9816 35.4713 24.2177 36.3989C21.7565 37.3359 20 39.7136 20 42.5V62.0968C20 63.6979 21.3021 65 22.9032 65H65V30.3123L63.0875 29.8623ZM23.629 32.3387C23.629 30.3377 25.257 28.7097 27.2581 28.7097C29.2591 28.7097 30.8871 30.3377 30.8871 32.3387C30.8871 34.3398 29.2591 35.9677 27.2581 35.9677C25.257 35.9677 23.629 34.3398 23.629 32.3387ZM21.4516 42.5C21.4516 39.6991 23.7314 37.4194 26.5323 37.4194H32.5804C33.0493 37.4194 33.5131 37.264 33.8869 36.9831L38.786 33.3091C38.9973 33.1516 39.2578 33.0645 39.5213 33.0645H39.8247C40.499 33.0645 41.0484 33.614 41.0484 34.289C41.0484 34.6693 40.8764 35.0213 40.5759 35.255L35.9757 38.8332C35.3428 39.3253 34.5517 39.5968 33.7475 39.5968H27.9839V47.5806H30.8871C32.0876 47.5806 33.0645 48.5576 33.0645 49.7581V56.2896C33.0645 57.0909 32.4135 57.7419 31.6122 57.7419C31.2246 57.7419 30.8595 57.591 30.5852 57.3166C30.3115 57.0423 30.1606 56.6779 30.1606 56.2903L30.1613 51.9355C30.1613 51.1349 29.5102 50.4839 28.7097 50.4839H23.629C22.4285 50.4839 21.4516 49.5069 21.4516 48.3065V42.5ZM30.8871 46.129H29.4355V41.0484H33.7475C34.8725 41.0484 35.9801 40.6688 36.867 39.9778L40.9555 36.7981C41.1769 37.4498 41.4505 38.082 41.7858 38.6852L40.7508 40.3567L44.6433 44.2492L46.3148 43.2142C46.7714 43.4675 47.2475 43.678 47.7323 43.8667L34.5161 53.0663V49.7581C34.5161 47.757 32.8881 46.129 30.8871 46.129ZM25.8065 51.9355H28.7097L28.709 56.2896C28.709 56.5422 28.7518 56.7853 28.8135 57.0234L25.8065 59.1246V51.9355ZM21.4516 62.0968V51.1908C22.0598 51.6517 22.8089 51.9355 23.629 51.9355H24.3548V62.0968C24.3548 62.8973 23.7038 63.5484 22.9032 63.5484C22.1027 63.5484 21.4516 62.8973 21.4516 62.0968ZM63.5484 63.5484H25.4029C25.6526 63.1194 25.8065 62.6281 25.8065 62.0968V60.8956L29.5226 58.2986C29.5356 58.3124 29.5451 58.3291 29.5589 58.3429C30.1076 58.8916 30.837 59.1935 31.6122 59.1935C33.2133 59.1935 34.5161 57.8907 34.5161 56.2896V54.8344L48.8791 44.8371L49.1832 46.129H54.6877L55.1377 44.2165C55.979 43.9756 56.789 43.6395 57.5561 43.2142L59.2277 44.2492L63.1202 40.3567L62.0852 38.6852C62.5105 37.918 62.8465 37.108 63.0875 36.2668L63.5484 36.1586V63.5484ZM63.5484 34.6671L61.8986 35.0554L61.7927 35.488C61.5488 36.4867 61.1532 37.439 60.619 38.3208L60.3882 38.7004L61.2802 40.1419L59.0135 42.4085L57.5721 41.5165L57.1925 41.7473C56.3106 42.2815 55.3584 42.6771 54.3597 42.921L53.9271 43.0269L53.5381 44.6774H50.3329L49.9446 43.0277L49.512 42.9217C48.5133 42.6778 47.561 42.2823 46.6792 41.7481L46.2996 41.5173L44.8581 42.4093L42.5915 40.1426L43.4835 38.7011L43.2527 38.3215C42.7446 37.484 42.3672 36.581 42.1211 35.636C42.3585 35.2318 42.5 34.7745 42.5 34.289C42.5 32.984 41.5601 31.8981 40.3226 31.6637V31.4627L41.9723 31.0744L42.0783 30.6418C42.3222 29.6431 42.7177 28.6908 43.2519 27.809L43.4827 27.4294L42.5907 25.9879L44.8574 23.7212L46.2989 24.6132L46.6785 24.3824C47.5603 23.8482 48.5126 23.4527 49.5113 23.2088L49.9439 23.1028L50.3329 21.4516H53.5381L53.9264 23.1014L54.359 23.2073C55.3577 23.4512 56.3099 23.8468 57.1918 24.381L57.5714 24.6118L59.0128 23.7198L61.2795 25.9865L60.3875 27.4279L60.6183 27.8075C61.1525 28.6894 61.5481 29.6416 61.7919 30.6403L61.8979 31.0729L63.5484 31.4619V34.6671Z" fill="white"/>
    <path d="M51.9363 24.3555C47.1336 24.3555 43.2266 28.2626 43.2266 33.0652C43.2266 37.8679 47.1336 41.7749 51.9363 41.7749C56.7389 41.7749 60.646 37.8679 60.646 33.0652C60.646 28.2626 56.7389 24.3555 51.9363 24.3555ZM51.9363 40.3233C47.9342 40.3233 44.6782 37.0673 44.6782 33.0652C44.6782 29.0631 47.9342 25.8072 51.9363 25.8072C55.9384 25.8072 59.1943 29.0631 59.1943 33.0652C59.1943 37.0673 55.9384 40.3233 51.9363 40.3233Z" fill="white"/>
    <path d="M51.9369 28.7109C49.5352 28.7109 47.582 30.664 47.582 33.0657C47.582 35.4674 49.5352 37.4206 51.9369 37.4206C54.3386 37.4206 56.2917 35.4674 56.2917 33.0657C56.2917 30.664 54.3386 28.7109 51.9369 28.7109ZM51.9369 35.9689C50.3358 35.9689 49.0337 34.6668 49.0337 33.0657C49.0337 31.4646 50.3358 30.1625 51.9369 30.1625C53.538 30.1625 54.8401 31.4646 54.8401 33.0657C54.8401 34.6668 53.538 35.9689 51.9369 35.9689Z" fill="white"/>
    <path d="M60.6445 60.6445H62.0961V62.0961H60.6445V60.6445Z" fill="white"/>
    <path d="M60.6445 57.7422H62.0961V59.1938H60.6445V57.7422Z" fill="white"/>
    <path d="M60.6445 54.8398H62.0961V56.2914H60.6445V54.8398Z" fill="white"/>
    <path d="M27.2578 60.6445H28.7094V62.0961H27.2578V60.6445Z" fill="white"/>
    <path d="M30.1602 60.6445H31.6118V62.0961H30.1602V60.6445Z" fill="white"/>
    <path d="M33.0664 60.6445H34.518V62.0961H33.0664V60.6445Z" fill="white"/>
    </mask>
    <g mask="url(#mask2_687_49)">
    <path d="M63.0875 29.8623C62.8465 29.021 62.5105 28.211 62.0852 27.4439L63.1202 25.7723L59.2277 21.8798L57.5561 22.9148C56.789 22.4895 55.979 22.1535 55.1377 21.9125L54.6877 20H49.1832L48.7332 21.9125C47.892 22.1535 47.082 22.4895 46.3148 22.9148L44.6433 21.8798L40.7508 25.7723L41.7858 27.4439C41.3605 28.211 41.0244 29.021 40.7835 29.8623L38.871 30.3123V31.7029C38.5277 31.7893 38.1996 31.9352 37.9158 32.1485L33.0159 35.8226C32.891 35.9162 32.7365 35.9677 32.5804 35.9677H30.8065C31.7508 35.0445 32.3387 33.7598 32.3387 32.3387C32.3387 29.5378 30.059 27.2581 27.2581 27.2581C24.4572 27.2581 22.1774 29.5378 22.1774 32.3387C22.1774 33.9994 22.9816 35.4713 24.2177 36.3989C21.7565 37.3359 20 39.7136 20 42.5V62.0968C20 63.6979 21.3021 65 22.9032 65H65V30.3123L63.0875 29.8623ZM23.629 32.3387C23.629 30.3377 25.257 28.7097 27.2581 28.7097C29.2591 28.7097 30.8871 30.3377 30.8871 32.3387C30.8871 34.3398 29.2591 35.9677 27.2581 35.9677C25.257 35.9677 23.629 34.3398 23.629 32.3387ZM21.4516 42.5C21.4516 39.6991 23.7314 37.4194 26.5323 37.4194H32.5804C33.0493 37.4194 33.5131 37.264 33.8869 36.9831L38.786 33.3091C38.9973 33.1516 39.2578 33.0645 39.5213 33.0645H39.8247C40.499 33.0645 41.0484 33.614 41.0484 34.289C41.0484 34.6693 40.8764 35.0213 40.5759 35.255L35.9757 38.8332C35.3428 39.3253 34.5517 39.5968 33.7475 39.5968H27.9839V47.5806H30.8871C32.0876 47.5806 33.0645 48.5576 33.0645 49.7581V56.2896C33.0645 57.0909 32.4135 57.7419 31.6122 57.7419C31.2246 57.7419 30.8595 57.591 30.5852 57.3166C30.3115 57.0423 30.1606 56.6779 30.1606 56.2903L30.1613 51.9355C30.1613 51.1349 29.5102 50.4839 28.7097 50.4839H23.629C22.4285 50.4839 21.4516 49.5069 21.4516 48.3065V42.5ZM30.8871 46.129H29.4355V41.0484H33.7475C34.8725 41.0484 35.9801 40.6688 36.867 39.9778L40.9555 36.7981C41.1769 37.4498 41.4505 38.082 41.7858 38.6852L40.7508 40.3567L44.6433 44.2492L46.3148 43.2142C46.7714 43.4675 47.2475 43.678 47.7323 43.8667L34.5161 53.0663V49.7581C34.5161 47.757 32.8881 46.129 30.8871 46.129ZM25.8065 51.9355H28.7097L28.709 56.2896C28.709 56.5422 28.7518 56.7853 28.8135 57.0234L25.8065 59.1246V51.9355ZM21.4516 62.0968V51.1908C22.0598 51.6517 22.8089 51.9355 23.629 51.9355H24.3548V62.0968C24.3548 62.8973 23.7038 63.5484 22.9032 63.5484C22.1027 63.5484 21.4516 62.8973 21.4516 62.0968ZM63.5484 63.5484H25.4029C25.6526 63.1194 25.8065 62.6281 25.8065 62.0968V60.8956L29.5226 58.2986C29.5356 58.3124 29.5451 58.3291 29.5589 58.3429C30.1076 58.8916 30.837 59.1935 31.6122 59.1935C33.2133 59.1935 34.5161 57.8907 34.5161 56.2896V54.8344L48.8791 44.8371L49.1832 46.129H54.6877L55.1377 44.2165C55.979 43.9756 56.789 43.6395 57.5561 43.2142L59.2277 44.2492L63.1202 40.3567L62.0852 38.6852C62.5105 37.918 62.8465 37.108 63.0875 36.2668L63.5484 36.1586V63.5484ZM63.5484 34.6671L61.8986 35.0554L61.7927 35.488C61.5488 36.4867 61.1532 37.439 60.619 38.3208L60.3882 38.7004L61.2802 40.1419L59.0135 42.4085L57.5721 41.5165L57.1925 41.7473C56.3106 42.2815 55.3584 42.6771 54.3597 42.921L53.9271 43.0269L53.5381 44.6774H50.3329L49.9446 43.0277L49.512 42.9217C48.5133 42.6778 47.561 42.2823 46.6792 41.7481L46.2996 41.5173L44.8581 42.4093L42.5915 40.1426L43.4835 38.7011L43.2527 38.3215C42.7446 37.484 42.3672 36.581 42.1211 35.636C42.3585 35.2318 42.5 34.7745 42.5 34.289C42.5 32.984 41.5601 31.8981 40.3226 31.6637V31.4627L41.9723 31.0744L42.0783 30.6418C42.3222 29.6431 42.7177 28.6908 43.2519 27.809L43.4827 27.4294L42.5907 25.9879L44.8574 23.7212L46.2989 24.6132L46.6785 24.3824C47.5603 23.8482 48.5126 23.4527 49.5113 23.2088L49.9439 23.1028L50.3329 21.4516H53.5381L53.9264 23.1014L54.359 23.2073C55.3577 23.4512 56.3099 23.8468 57.1918 24.381L57.5714 24.6118L59.0128 23.7198L61.2795 25.9865L60.3875 27.4279L60.6183 27.8075C61.1525 28.6894 61.5481 29.6416 61.7919 30.6403L61.8979 31.0729L63.5484 31.4619V34.6671Z" stroke="white" stroke-width="2"/>
    </g>
    <mask id="mask3_687_49" style="mask-type:luminance" maskUnits="userSpaceOnUse" x="20" y="20" width="45" height="45">
    <path d="M35.8477 55.6995L37.0311 54.875L37.861 56.0662L36.6776 56.8907L35.8477 55.6995Z" fill="white"/>
    <path d="M38.4805 53.8652L48.3621 46.9805L49.192 48.1717L39.3104 55.0563L38.4805 53.8652Z" fill="white"/>
    <path d="M63.0875 29.8623C62.8465 29.021 62.5105 28.211 62.0852 27.4439L63.1202 25.7723L59.2277 21.8798L57.5561 22.9148C56.789 22.4895 55.979 22.1535 55.1377 21.9125L54.6877 20H49.1832L48.7332 21.9125C47.892 22.1535 47.082 22.4895 46.3148 22.9148L44.6433 21.8798L40.7508 25.7723L41.7858 27.4439C41.3605 28.211 41.0244 29.021 40.7835 29.8623L38.871 30.3123V31.7029C38.5277 31.7893 38.1996 31.9352 37.9158 32.1485L33.0159 35.8226C32.891 35.9162 32.7365 35.9677 32.5804 35.9677H30.8065C31.7508 35.0445 32.3387 33.7598 32.3387 32.3387C32.3387 29.5378 30.059 27.2581 27.2581 27.2581C24.4572 27.2581 22.1774 29.5378 22.1774 32.3387C22.1774 33.9994 22.9816 35.4713 24.2177 36.3989C21.7565 37.3359 20 39.7136 20 42.5V62.0968C20 63.6979 21.3021 65 22.9032 65H65V30.3123L63.0875 29.8623ZM23.629 32.3387C23.629 30.3377 25.257 28.7097 27.2581 28.7097C29.2591 28.7097 30.8871 30.3377 30.8871 32.3387C30.8871 34.3398 29.2591 35.9677 27.2581 35.9677C25.257 35.9677 23.629 34.3398 23.629 32.3387ZM21.4516 42.5C21.4516 39.6991 23.7314 37.4194 26.5323 37.4194H32.5804C33.0493 37.4194 33.5131 37.264 33.8869 36.9831L38.786 33.3091C38.9973 33.1516 39.2578 33.0645 39.5213 33.0645H39.8247C40.499 33.0645 41.0484 33.614 41.0484 34.289C41.0484 34.6693 40.8764 35.0213 40.5759 35.255L35.9757 38.8332C35.3428 39.3253 34.5517 39.5968 33.7475 39.5968H27.9839V47.5806H30.8871C32.0876 47.5806 33.0645 48.5576 33.0645 49.7581V56.2896C33.0645 57.0909 32.4135 57.7419 31.6122 57.7419C31.2246 57.7419 30.8595 57.591 30.5852 57.3166C30.3115 57.0423 30.1606 56.6779 30.1606 56.2903L30.1613 51.9355C30.1613 51.1349 29.5102 50.4839 28.7097 50.4839H23.629C22.4285 50.4839 21.4516 49.5069 21.4516 48.3065V42.5ZM30.8871 46.129H29.4355V41.0484H33.7475C34.8725 41.0484 35.9801 40.6688 36.867 39.9778L40.9555 36.7981C41.1769 37.4498 41.4505 38.082 41.7858 38.6852L40.7508 40.3567L44.6433 44.2492L46.3148 43.2142C46.7714 43.4675 47.2475 43.678 47.7323 43.8667L34.5161 53.0663V49.7581C34.5161 47.757 32.8881 46.129 30.8871 46.129ZM25.8065 51.9355H28.7097L28.709 56.2896C28.709 56.5422 28.7518 56.7853 28.8135 57.0234L25.8065 59.1246V51.9355ZM21.4516 62.0968V51.1908C22.0598 51.6517 22.8089 51.9355 23.629 51.9355H24.3548V62.0968C24.3548 62.8973 23.7038 63.5484 22.9032 63.5484C22.1027 63.5484 21.4516 62.8973 21.4516 62.0968ZM63.5484 63.5484H25.4029C25.6526 63.1194 25.8065 62.6281 25.8065 62.0968V60.8956L29.5226 58.2986C29.5356 58.3124 29.5451 58.3291 29.5589 58.3429C30.1076 58.8916 30.837 59.1935 31.6122 59.1935C33.2133 59.1935 34.5161 57.8907 34.5161 56.2896V54.8344L48.8791 44.8371L49.1832 46.129H54.6877L55.1377 44.2165C55.979 43.9756 56.789 43.6395 57.5561 43.2142L59.2277 44.2492L63.1202 40.3567L62.0852 38.6852C62.5105 37.918 62.8465 37.108 63.0875 36.2668L63.5484 36.1586V63.5484ZM63.5484 34.6671L61.8986 35.0554L61.7927 35.488C61.5488 36.4867 61.1532 37.439 60.619 38.3208L60.3882 38.7004L61.2802 40.1419L59.0135 42.4085L57.5721 41.5165L57.1925 41.7473C56.3106 42.2815 55.3584 42.6771 54.3597 42.921L53.9271 43.0269L53.5381 44.6774H50.3329L49.9446 43.0277L49.512 42.9217C48.5133 42.6778 47.561 42.2823 46.6792 41.7481L46.2996 41.5173L44.8581 42.4093L42.5915 40.1426L43.4835 38.7011L43.2527 38.3215C42.7446 37.484 42.3672 36.581 42.1211 35.636C42.3585 35.2318 42.5 34.7745 42.5 34.289C42.5 32.984 41.5601 31.8981 40.3226 31.6637V31.4627L41.9723 31.0744L42.0783 30.6418C42.3222 29.6431 42.7177 28.6908 43.2519 27.809L43.4827 27.4294L42.5907 25.9879L44.8574 23.7212L46.2989 24.6132L46.6785 24.3824C47.5603 23.8482 48.5126 23.4527 49.5113 23.2088L49.9439 23.1028L50.3329 21.4516H53.5381L53.9264 23.1014L54.359 23.2073C55.3577 23.4512 56.3099 23.8468 57.1918 24.381L57.5714 24.6118L59.0128 23.7198L61.2795 25.9865L60.3875 27.4279L60.6183 27.8075C61.1525 28.6894 61.5481 29.6416 61.7919 30.6403L61.8979 31.0729L63.5484 31.4619V34.6671Z" fill="white"/>
    <path d="M51.9363 24.3555C47.1336 24.3555 43.2266 28.2626 43.2266 33.0652C43.2266 37.8679 47.1336 41.7749 51.9363 41.7749C56.7389 41.7749 60.646 37.8679 60.646 33.0652C60.646 28.2626 56.7389 24.3555 51.9363 24.3555ZM51.9363 40.3233C47.9342 40.3233 44.6782 37.0673 44.6782 33.0652C44.6782 29.0631 47.9342 25.8072 51.9363 25.8072C55.9384 25.8072 59.1943 29.0631 59.1943 33.0652C59.1943 37.0673 55.9384 40.3233 51.9363 40.3233Z" fill="white"/>
    <path d="M51.9369 28.7109C49.5352 28.7109 47.582 30.664 47.582 33.0657C47.582 35.4674 49.5352 37.4206 51.9369 37.4206C54.3386 37.4206 56.2917 35.4674 56.2917 33.0657C56.2917 30.664 54.3386 28.7109 51.9369 28.7109ZM51.9369 35.9689C50.3358 35.9689 49.0337 34.6668 49.0337 33.0657C49.0337 31.4646 50.3358 30.1625 51.9369 30.1625C53.538 30.1625 54.8401 31.4646 54.8401 33.0657C54.8401 34.6668 53.538 35.9689 51.9369 35.9689Z" fill="white"/>
    <path d="M60.6445 60.6445H62.0961V62.0961H60.6445V60.6445Z" fill="white"/>
    <path d="M60.6445 57.7422H62.0961V59.1938H60.6445V57.7422Z" fill="white"/>
    <path d="M60.6445 54.8398H62.0961V56.2914H60.6445V54.8398Z" fill="white"/>
    <path d="M27.2578 60.6445H28.7094V62.0961H27.2578V60.6445Z" fill="white"/>
    <path d="M30.1602 60.6445H31.6118V62.0961H30.1602V60.6445Z" fill="white"/>
    <path d="M33.0664 60.6445H34.518V62.0961H33.0664V60.6445Z" fill="white"/>
    </mask>
    <g mask="url(#mask3_687_49)">
    <path d="M51.9363 24.3555C47.1336 24.3555 43.2266 28.2626 43.2266 33.0652C43.2266 37.8679 47.1336 41.7749 51.9363 41.7749C56.7389 41.7749 60.646 37.8679 60.646 33.0652C60.646 28.2626 56.7389 24.3555 51.9363 24.3555ZM51.9363 40.3233C47.9342 40.3233 44.6782 37.0673 44.6782 33.0652C44.6782 29.0631 47.9342 25.8072 51.9363 25.8072C55.9384 25.8072 59.1943 29.0631 59.1943 33.0652C59.1943 37.0673 55.9384 40.3233 51.9363 40.3233Z" stroke="white" stroke-width="2"/>
    </g>
    <mask id="mask4_687_49" style="mask-type:luminance" maskUnits="userSpaceOnUse" x="20" y="20" width="45" height="45">
    <path d="M35.8477 55.6995L37.0311 54.875L37.861 56.0662L36.6776 56.8907L35.8477 55.6995Z" fill="white"/>
    <path d="M38.4805 53.8652L48.3621 46.9805L49.192 48.1717L39.3104 55.0563L38.4805 53.8652Z" fill="white"/>
    <path d="M63.0875 29.8623C62.8465 29.021 62.5105 28.211 62.0852 27.4439L63.1202 25.7723L59.2277 21.8798L57.5561 22.9148C56.789 22.4895 55.979 22.1535 55.1377 21.9125L54.6877 20H49.1832L48.7332 21.9125C47.892 22.1535 47.082 22.4895 46.3148 22.9148L44.6433 21.8798L40.7508 25.7723L41.7858 27.4439C41.3605 28.211 41.0244 29.021 40.7835 29.8623L38.871 30.3123V31.7029C38.5277 31.7893 38.1996 31.9352 37.9158 32.1485L33.0159 35.8226C32.891 35.9162 32.7365 35.9677 32.5804 35.9677H30.8065C31.7508 35.0445 32.3387 33.7598 32.3387 32.3387C32.3387 29.5378 30.059 27.2581 27.2581 27.2581C24.4572 27.2581 22.1774 29.5378 22.1774 32.3387C22.1774 33.9994 22.9816 35.4713 24.2177 36.3989C21.7565 37.3359 20 39.7136 20 42.5V62.0968C20 63.6979 21.3021 65 22.9032 65H65V30.3123L63.0875 29.8623ZM23.629 32.3387C23.629 30.3377 25.257 28.7097 27.2581 28.7097C29.2591 28.7097 30.8871 30.3377 30.8871 32.3387C30.8871 34.3398 29.2591 35.9677 27.2581 35.9677C25.257 35.9677 23.629 34.3398 23.629 32.3387ZM21.4516 42.5C21.4516 39.6991 23.7314 37.4194 26.5323 37.4194H32.5804C33.0493 37.4194 33.5131 37.264 33.8869 36.9831L38.786 33.3091C38.9973 33.1516 39.2578 33.0645 39.5213 33.0645H39.8247C40.499 33.0645 41.0484 33.614 41.0484 34.289C41.0484 34.6693 40.8764 35.0213 40.5759 35.255L35.9757 38.8332C35.3428 39.3253 34.5517 39.5968 33.7475 39.5968H27.9839V47.5806H30.8871C32.0876 47.5806 33.0645 48.5576 33.0645 49.7581V56.2896C33.0645 57.0909 32.4135 57.7419 31.6122 57.7419C31.2246 57.7419 30.8595 57.591 30.5852 57.3166C30.3115 57.0423 30.1606 56.6779 30.1606 56.2903L30.1613 51.9355C30.1613 51.1349 29.5102 50.4839 28.7097 50.4839H23.629C22.4285 50.4839 21.4516 49.5069 21.4516 48.3065V42.5ZM30.8871 46.129H29.4355V41.0484H33.7475C34.8725 41.0484 35.9801 40.6688 36.867 39.9778L40.9555 36.7981C41.1769 37.4498 41.4505 38.082 41.7858 38.6852L40.7508 40.3567L44.6433 44.2492L46.3148 43.2142C46.7714 43.4675 47.2475 43.678 47.7323 43.8667L34.5161 53.0663V49.7581C34.5161 47.757 32.8881 46.129 30.8871 46.129ZM25.8065 51.9355H28.7097L28.709 56.2896C28.709 56.5422 28.7518 56.7853 28.8135 57.0234L25.8065 59.1246V51.9355ZM21.4516 62.0968V51.1908C22.0598 51.6517 22.8089 51.9355 23.629 51.9355H24.3548V62.0968C24.3548 62.8973 23.7038 63.5484 22.9032 63.5484C22.1027 63.5484 21.4516 62.8973 21.4516 62.0968ZM63.5484 63.5484H25.4029C25.6526 63.1194 25.8065 62.6281 25.8065 62.0968V60.8956L29.5226 58.2986C29.5356 58.3124 29.5451 58.3291 29.5589 58.3429C30.1076 58.8916 30.837 59.1935 31.6122 59.1935C33.2133 59.1935 34.5161 57.8907 34.5161 56.2896V54.8344L48.8791 44.8371L49.1832 46.129H54.6877L55.1377 44.2165C55.979 43.9756 56.789 43.6395 57.5561 43.2142L59.2277 44.2492L63.1202 40.3567L62.0852 38.6852C62.5105 37.918 62.8465 37.108 63.0875 36.2668L63.5484 36.1586V63.5484ZM63.5484 34.6671L61.8986 35.0554L61.7927 35.488C61.5488 36.4867 61.1532 37.439 60.619 38.3208L60.3882 38.7004L61.2802 40.1419L59.0135 42.4085L57.5721 41.5165L57.1925 41.7473C56.3106 42.2815 55.3584 42.6771 54.3597 42.921L53.9271 43.0269L53.5381 44.6774H50.3329L49.9446 43.0277L49.512 42.9217C48.5133 42.6778 47.561 42.2823 46.6792 41.7481L46.2996 41.5173L44.8581 42.4093L42.5915 40.1426L43.4835 38.7011L43.2527 38.3215C42.7446 37.484 42.3672 36.581 42.1211 35.636C42.3585 35.2318 42.5 34.7745 42.5 34.289C42.5 32.984 41.5601 31.8981 40.3226 31.6637V31.4627L41.9723 31.0744L42.0783 30.6418C42.3222 29.6431 42.7177 28.6908 43.2519 27.809L43.4827 27.4294L42.5907 25.9879L44.8574 23.7212L46.2989 24.6132L46.6785 24.3824C47.5603 23.8482 48.5126 23.4527 49.5113 23.2088L49.9439 23.1028L50.3329 21.4516H53.5381L53.9264 23.1014L54.359 23.2073C55.3577 23.4512 56.3099 23.8468 57.1918 24.381L57.5714 24.6118L59.0128 23.7198L61.2795 25.9865L60.3875 27.4279L60.6183 27.8075C61.1525 28.6894 61.5481 29.6416 61.7919 30.6403L61.8979 31.0729L63.5484 31.4619V34.6671Z" fill="white"/>
    <path d="M51.9363 24.3555C47.1336 24.3555 43.2266 28.2626 43.2266 33.0652C43.2266 37.8679 47.1336 41.7749 51.9363 41.7749C56.7389 41.7749 60.646 37.8679 60.646 33.0652C60.646 28.2626 56.7389 24.3555 51.9363 24.3555ZM51.9363 40.3233C47.9342 40.3233 44.6782 37.0673 44.6782 33.0652C44.6782 29.0631 47.9342 25.8072 51.9363 25.8072C55.9384 25.8072 59.1943 29.0631 59.1943 33.0652C59.1943 37.0673 55.9384 40.3233 51.9363 40.3233Z" fill="white"/>
    <path d="M51.9369 28.7109C49.5352 28.7109 47.582 30.664 47.582 33.0657C47.582 35.4674 49.5352 37.4206 51.9369 37.4206C54.3386 37.4206 56.2917 35.4674 56.2917 33.0657C56.2917 30.664 54.3386 28.7109 51.9369 28.7109ZM51.9369 35.9689C50.3358 35.9689 49.0337 34.6668 49.0337 33.0657C49.0337 31.4646 50.3358 30.1625 51.9369 30.1625C53.538 30.1625 54.8401 31.4646 54.8401 33.0657C54.8401 34.6668 53.538 35.9689 51.9369 35.9689Z" fill="white"/>
    <path d="M60.6445 60.6445H62.0961V62.0961H60.6445V60.6445Z" fill="white"/>
    <path d="M60.6445 57.7422H62.0961V59.1938H60.6445V57.7422Z" fill="white"/>
    <path d="M60.6445 54.8398H62.0961V56.2914H60.6445V54.8398Z" fill="white"/>
    <path d="M27.2578 60.6445H28.7094V62.0961H27.2578V60.6445Z" fill="white"/>
    <path d="M30.1602 60.6445H31.6118V62.0961H30.1602V60.6445Z" fill="white"/>
    <path d="M33.0664 60.6445H34.518V62.0961H33.0664V60.6445Z" fill="white"/>
    </mask>
    <g mask="url(#mask4_687_49)">
    <path d="M51.9369 28.7109C49.5352 28.7109 47.582 30.664 47.582 33.0657C47.582 35.4674 49.5352 37.4206 51.9369 37.4206C54.3386 37.4206 56.2917 35.4674 56.2917 33.0657C56.2917 30.664 54.3386 28.7109 51.9369 28.7109ZM51.9369 35.9689C50.3358 35.9689 49.0337 34.6668 49.0337 33.0657C49.0337 31.4646 50.3358 30.1625 51.9369 30.1625C53.538 30.1625 54.8401 31.4646 54.8401 33.0657C54.8401 34.6668 53.538 35.9689 51.9369 35.9689Z" stroke="white" stroke-width="2"/>
    </g>
    <mask id="mask5_687_49" style="mask-type:luminance" maskUnits="userSpaceOnUse" x="20" y="20" width="45" height="45">
    <path d="M35.8477 55.6995L37.0311 54.875L37.861 56.0662L36.6776 56.8907L35.8477 55.6995Z" fill="white"/>
    <path d="M38.4805 53.8652L48.3621 46.9805L49.192 48.1717L39.3104 55.0563L38.4805 53.8652Z" fill="white"/>
    <path d="M63.0875 29.8623C62.8465 29.021 62.5105 28.211 62.0852 27.4439L63.1202 25.7723L59.2277 21.8798L57.5561 22.9148C56.789 22.4895 55.979 22.1535 55.1377 21.9125L54.6877 20H49.1832L48.7332 21.9125C47.892 22.1535 47.082 22.4895 46.3148 22.9148L44.6433 21.8798L40.7508 25.7723L41.7858 27.4439C41.3605 28.211 41.0244 29.021 40.7835 29.8623L38.871 30.3123V31.7029C38.5277 31.7893 38.1996 31.9352 37.9158 32.1485L33.0159 35.8226C32.891 35.9162 32.7365 35.9677 32.5804 35.9677H30.8065C31.7508 35.0445 32.3387 33.7598 32.3387 32.3387C32.3387 29.5378 30.059 27.2581 27.2581 27.2581C24.4572 27.2581 22.1774 29.5378 22.1774 32.3387C22.1774 33.9994 22.9816 35.4713 24.2177 36.3989C21.7565 37.3359 20 39.7136 20 42.5V62.0968C20 63.6979 21.3021 65 22.9032 65H65V30.3123L63.0875 29.8623ZM23.629 32.3387C23.629 30.3377 25.257 28.7097 27.2581 28.7097C29.2591 28.7097 30.8871 30.3377 30.8871 32.3387C30.8871 34.3398 29.2591 35.9677 27.2581 35.9677C25.257 35.9677 23.629 34.3398 23.629 32.3387ZM21.4516 42.5C21.4516 39.6991 23.7314 37.4194 26.5323 37.4194H32.5804C33.0493 37.4194 33.5131 37.264 33.8869 36.9831L38.786 33.3091C38.9973 33.1516 39.2578 33.0645 39.5213 33.0645H39.8247C40.499 33.0645 41.0484 33.614 41.0484 34.289C41.0484 34.6693 40.8764 35.0213 40.5759 35.255L35.9757 38.8332C35.3428 39.3253 34.5517 39.5968 33.7475 39.5968H27.9839V47.5806H30.8871C32.0876 47.5806 33.0645 48.5576 33.0645 49.7581V56.2896C33.0645 57.0909 32.4135 57.7419 31.6122 57.7419C31.2246 57.7419 30.8595 57.591 30.5852 57.3166C30.3115 57.0423 30.1606 56.6779 30.1606 56.2903L30.1613 51.9355C30.1613 51.1349 29.5102 50.4839 28.7097 50.4839H23.629C22.4285 50.4839 21.4516 49.5069 21.4516 48.3065V42.5ZM30.8871 46.129H29.4355V41.0484H33.7475C34.8725 41.0484 35.9801 40.6688 36.867 39.9778L40.9555 36.7981C41.1769 37.4498 41.4505 38.082 41.7858 38.6852L40.7508 40.3567L44.6433 44.2492L46.3148 43.2142C46.7714 43.4675 47.2475 43.678 47.7323 43.8667L34.5161 53.0663V49.7581C34.5161 47.757 32.8881 46.129 30.8871 46.129ZM25.8065 51.9355H28.7097L28.709 56.2896C28.709 56.5422 28.7518 56.7853 28.8135 57.0234L25.8065 59.1246V51.9355ZM21.4516 62.0968V51.1908C22.0598 51.6517 22.8089 51.9355 23.629 51.9355H24.3548V62.0968C24.3548 62.8973 23.7038 63.5484 22.9032 63.5484C22.1027 63.5484 21.4516 62.8973 21.4516 62.0968ZM63.5484 63.5484H25.4029C25.6526 63.1194 25.8065 62.6281 25.8065 62.0968V60.8956L29.5226 58.2986C29.5356 58.3124 29.5451 58.3291 29.5589 58.3429C30.1076 58.8916 30.837 59.1935 31.6122 59.1935C33.2133 59.1935 34.5161 57.8907 34.5161 56.2896V54.8344L48.8791 44.8371L49.1832 46.129H54.6877L55.1377 44.2165C55.979 43.9756 56.789 43.6395 57.5561 43.2142L59.2277 44.2492L63.1202 40.3567L62.0852 38.6852C62.5105 37.918 62.8465 37.108 63.0875 36.2668L63.5484 36.1586V63.5484ZM63.5484 34.6671L61.8986 35.0554L61.7927 35.488C61.5488 36.4867 61.1532 37.439 60.619 38.3208L60.3882 38.7004L61.2802 40.1419L59.0135 42.4085L57.5721 41.5165L57.1925 41.7473C56.3106 42.2815 55.3584 42.6771 54.3597 42.921L53.9271 43.0269L53.5381 44.6774H50.3329L49.9446 43.0277L49.512 42.9217C48.5133 42.6778 47.561 42.2823 46.6792 41.7481L46.2996 41.5173L44.8581 42.4093L42.5915 40.1426L43.4835 38.7011L43.2527 38.3215C42.7446 37.484 42.3672 36.581 42.1211 35.636C42.3585 35.2318 42.5 34.7745 42.5 34.289C42.5 32.984 41.5601 31.8981 40.3226 31.6637V31.4627L41.9723 31.0744L42.0783 30.6418C42.3222 29.6431 42.7177 28.6908 43.2519 27.809L43.4827 27.4294L42.5907 25.9879L44.8574 23.7212L46.2989 24.6132L46.6785 24.3824C47.5603 23.8482 48.5126 23.4527 49.5113 23.2088L49.9439 23.1028L50.3329 21.4516H53.5381L53.9264 23.1014L54.359 23.2073C55.3577 23.4512 56.3099 23.8468 57.1918 24.381L57.5714 24.6118L59.0128 23.7198L61.2795 25.9865L60.3875 27.4279L60.6183 27.8075C61.1525 28.6894 61.5481 29.6416 61.7919 30.6403L61.8979 31.0729L63.5484 31.4619V34.6671Z" fill="white"/>
    <path d="M51.9363 24.3555C47.1336 24.3555 43.2266 28.2626 43.2266 33.0652C43.2266 37.8679 47.1336 41.7749 51.9363 41.7749C56.7389 41.7749 60.646 37.8679 60.646 33.0652C60.646 28.2626 56.7389 24.3555 51.9363 24.3555ZM51.9363 40.3233C47.9342 40.3233 44.6782 37.0673 44.6782 33.0652C44.6782 29.0631 47.9342 25.8072 51.9363 25.8072C55.9384 25.8072 59.1943 29.0631 59.1943 33.0652C59.1943 37.0673 55.9384 40.3233 51.9363 40.3233Z" fill="white"/>
    <path d="M51.9369 28.7109C49.5352 28.7109 47.582 30.664 47.582 33.0657C47.582 35.4674 49.5352 37.4206 51.9369 37.4206C54.3386 37.4206 56.2917 35.4674 56.2917 33.0657C56.2917 30.664 54.3386 28.7109 51.9369 28.7109ZM51.9369 35.9689C50.3358 35.9689 49.0337 34.6668 49.0337 33.0657C49.0337 31.4646 50.3358 30.1625 51.9369 30.1625C53.538 30.1625 54.8401 31.4646 54.8401 33.0657C54.8401 34.6668 53.538 35.9689 51.9369 35.9689Z" fill="white"/>
    <path d="M60.6445 60.6445H62.0961V62.0961H60.6445V60.6445Z" fill="white"/>
    <path d="M60.6445 57.7422H62.0961V59.1938H60.6445V57.7422Z" fill="white"/>
    <path d="M60.6445 54.8398H62.0961V56.2914H60.6445V54.8398Z" fill="white"/>
    <path d="M27.2578 60.6445H28.7094V62.0961H27.2578V60.6445Z" fill="white"/>
    <path d="M30.1602 60.6445H31.6118V62.0961H30.1602V60.6445Z" fill="white"/>
    <path d="M33.0664 60.6445H34.518V62.0961H33.0664V60.6445Z" fill="white"/>
    </mask>
    <g mask="url(#mask5_687_49)">
    <path d="M60.6445 60.6445H62.0961V62.0961H60.6445V60.6445Z" stroke="white" stroke-width="2"/>
    </g>
    <mask id="mask6_687_49" style="mask-type:luminance" maskUnits="userSpaceOnUse" x="20" y="20" width="45" height="45">
    <path d="M35.8477 55.6995L37.0311 54.875L37.861 56.0662L36.6776 56.8907L35.8477 55.6995Z" fill="white"/>
    <path d="M38.4805 53.8652L48.3621 46.9805L49.192 48.1717L39.3104 55.0563L38.4805 53.8652Z" fill="white"/>
    <path d="M63.0875 29.8623C62.8465 29.021 62.5105 28.211 62.0852 27.4439L63.1202 25.7723L59.2277 21.8798L57.5561 22.9148C56.789 22.4895 55.979 22.1535 55.1377 21.9125L54.6877 20H49.1832L48.7332 21.9125C47.892 22.1535 47.082 22.4895 46.3148 22.9148L44.6433 21.8798L40.7508 25.7723L41.7858 27.4439C41.3605 28.211 41.0244 29.021 40.7835 29.8623L38.871 30.3123V31.7029C38.5277 31.7893 38.1996 31.9352 37.9158 32.1485L33.0159 35.8226C32.891 35.9162 32.7365 35.9677 32.5804 35.9677H30.8065C31.7508 35.0445 32.3387 33.7598 32.3387 32.3387C32.3387 29.5378 30.059 27.2581 27.2581 27.2581C24.4572 27.2581 22.1774 29.5378 22.1774 32.3387C22.1774 33.9994 22.9816 35.4713 24.2177 36.3989C21.7565 37.3359 20 39.7136 20 42.5V62.0968C20 63.6979 21.3021 65 22.9032 65H65V30.3123L63.0875 29.8623ZM23.629 32.3387C23.629 30.3377 25.257 28.7097 27.2581 28.7097C29.2591 28.7097 30.8871 30.3377 30.8871 32.3387C30.8871 34.3398 29.2591 35.9677 27.2581 35.9677C25.257 35.9677 23.629 34.3398 23.629 32.3387ZM21.4516 42.5C21.4516 39.6991 23.7314 37.4194 26.5323 37.4194H32.5804C33.0493 37.4194 33.5131 37.264 33.8869 36.9831L38.786 33.3091C38.9973 33.1516 39.2578 33.0645 39.5213 33.0645H39.8247C40.499 33.0645 41.0484 33.614 41.0484 34.289C41.0484 34.6693 40.8764 35.0213 40.5759 35.255L35.9757 38.8332C35.3428 39.3253 34.5517 39.5968 33.7475 39.5968H27.9839V47.5806H30.8871C32.0876 47.5806 33.0645 48.5576 33.0645 49.7581V56.2896C33.0645 57.0909 32.4135 57.7419 31.6122 57.7419C31.2246 57.7419 30.8595 57.591 30.5852 57.3166C30.3115 57.0423 30.1606 56.6779 30.1606 56.2903L30.1613 51.9355C30.1613 51.1349 29.5102 50.4839 28.7097 50.4839H23.629C22.4285 50.4839 21.4516 49.5069 21.4516 48.3065V42.5ZM30.8871 46.129H29.4355V41.0484H33.7475C34.8725 41.0484 35.9801 40.6688 36.867 39.9778L40.9555 36.7981C41.1769 37.4498 41.4505 38.082 41.7858 38.6852L40.7508 40.3567L44.6433 44.2492L46.3148 43.2142C46.7714 43.4675 47.2475 43.678 47.7323 43.8667L34.5161 53.0663V49.7581C34.5161 47.757 32.8881 46.129 30.8871 46.129ZM25.8065 51.9355H28.7097L28.709 56.2896C28.709 56.5422 28.7518 56.7853 28.8135 57.0234L25.8065 59.1246V51.9355ZM21.4516 62.0968V51.1908C22.0598 51.6517 22.8089 51.9355 23.629 51.9355H24.3548V62.0968C24.3548 62.8973 23.7038 63.5484 22.9032 63.5484C22.1027 63.5484 21.4516 62.8973 21.4516 62.0968ZM63.5484 63.5484H25.4029C25.6526 63.1194 25.8065 62.6281 25.8065 62.0968V60.8956L29.5226 58.2986C29.5356 58.3124 29.5451 58.3291 29.5589 58.3429C30.1076 58.8916 30.837 59.1935 31.6122 59.1935C33.2133 59.1935 34.5161 57.8907 34.5161 56.2896V54.8344L48.8791 44.8371L49.1832 46.129H54.6877L55.1377 44.2165C55.979 43.9756 56.789 43.6395 57.5561 43.2142L59.2277 44.2492L63.1202 40.3567L62.0852 38.6852C62.5105 37.918 62.8465 37.108 63.0875 36.2668L63.5484 36.1586V63.5484ZM63.5484 34.6671L61.8986 35.0554L61.7927 35.488C61.5488 36.4867 61.1532 37.439 60.619 38.3208L60.3882 38.7004L61.2802 40.1419L59.0135 42.4085L57.5721 41.5165L57.1925 41.7473C56.3106 42.2815 55.3584 42.6771 54.3597 42.921L53.9271 43.0269L53.5381 44.6774H50.3329L49.9446 43.0277L49.512 42.9217C48.5133 42.6778 47.561 42.2823 46.6792 41.7481L46.2996 41.5173L44.8581 42.4093L42.5915 40.1426L43.4835 38.7011L43.2527 38.3215C42.7446 37.484 42.3672 36.581 42.1211 35.636C42.3585 35.2318 42.5 34.7745 42.5 34.289C42.5 32.984 41.5601 31.8981 40.3226 31.6637V31.4627L41.9723 31.0744L42.0783 30.6418C42.3222 29.6431 42.7177 28.6908 43.2519 27.809L43.4827 27.4294L42.5907 25.9879L44.8574 23.7212L46.2989 24.6132L46.6785 24.3824C47.5603 23.8482 48.5126 23.4527 49.5113 23.2088L49.9439 23.1028L50.3329 21.4516H53.5381L53.9264 23.1014L54.359 23.2073C55.3577 23.4512 56.3099 23.8468 57.1918 24.381L57.5714 24.6118L59.0128 23.7198L61.2795 25.9865L60.3875 27.4279L60.6183 27.8075C61.1525 28.6894 61.5481 29.6416 61.7919 30.6403L61.8979 31.0729L63.5484 31.4619V34.6671Z" fill="white"/>
    <path d="M51.9363 24.3555C47.1336 24.3555 43.2266 28.2626 43.2266 33.0652C43.2266 37.8679 47.1336 41.7749 51.9363 41.7749C56.7389 41.7749 60.646 37.8679 60.646 33.0652C60.646 28.2626 56.7389 24.3555 51.9363 24.3555ZM51.9363 40.3233C47.9342 40.3233 44.6782 37.0673 44.6782 33.0652C44.6782 29.0631 47.9342 25.8072 51.9363 25.8072C55.9384 25.8072 59.1943 29.0631 59.1943 33.0652C59.1943 37.0673 55.9384 40.3233 51.9363 40.3233Z" fill="white"/>
    <path d="M51.9369 28.7109C49.5352 28.7109 47.582 30.664 47.582 33.0657C47.582 35.4674 49.5352 37.4206 51.9369 37.4206C54.3386 37.4206 56.2917 35.4674 56.2917 33.0657C56.2917 30.664 54.3386 28.7109 51.9369 28.7109ZM51.9369 35.9689C50.3358 35.9689 49.0337 34.6668 49.0337 33.0657C49.0337 31.4646 50.3358 30.1625 51.9369 30.1625C53.538 30.1625 54.8401 31.4646 54.8401 33.0657C54.8401 34.6668 53.538 35.9689 51.9369 35.9689Z" fill="white"/>
    <path d="M60.6445 60.6445H62.0961V62.0961H60.6445V60.6445Z" fill="white"/>
    <path d="M60.6445 57.7422H62.0961V59.1938H60.6445V57.7422Z" fill="white"/>
    <path d="M60.6445 54.8398H62.0961V56.2914H60.6445V54.8398Z" fill="white"/>
    <path d="M27.2578 60.6445H28.7094V62.0961H27.2578V60.6445Z" fill="white"/>
    <path d="M30.1602 60.6445H31.6118V62.0961H30.1602V60.6445Z" fill="white"/>
    <path d="M33.0664 60.6445H34.518V62.0961H33.0664V60.6445Z" fill="white"/>
    </mask>
    <g mask="url(#mask6_687_49)">
    <path d="M60.6445 57.7422H62.0961V59.1938H60.6445V57.7422Z" stroke="white" stroke-width="2"/>
    </g>
    <mask id="mask7_687_49" style="mask-type:luminance" maskUnits="userSpaceOnUse" x="20" y="20" width="45" height="45">
    <path d="M35.8477 55.6995L37.0311 54.875L37.861 56.0662L36.6776 56.8907L35.8477 55.6995Z" fill="white"/>
    <path d="M38.4805 53.8652L48.3621 46.9805L49.192 48.1717L39.3104 55.0563L38.4805 53.8652Z" fill="white"/>
    <path d="M63.0875 29.8623C62.8465 29.021 62.5105 28.211 62.0852 27.4439L63.1202 25.7723L59.2277 21.8798L57.5561 22.9148C56.789 22.4895 55.979 22.1535 55.1377 21.9125L54.6877 20H49.1832L48.7332 21.9125C47.892 22.1535 47.082 22.4895 46.3148 22.9148L44.6433 21.8798L40.7508 25.7723L41.7858 27.4439C41.3605 28.211 41.0244 29.021 40.7835 29.8623L38.871 30.3123V31.7029C38.5277 31.7893 38.1996 31.9352 37.9158 32.1485L33.0159 35.8226C32.891 35.9162 32.7365 35.9677 32.5804 35.9677H30.8065C31.7508 35.0445 32.3387 33.7598 32.3387 32.3387C32.3387 29.5378 30.059 27.2581 27.2581 27.2581C24.4572 27.2581 22.1774 29.5378 22.1774 32.3387C22.1774 33.9994 22.9816 35.4713 24.2177 36.3989C21.7565 37.3359 20 39.7136 20 42.5V62.0968C20 63.6979 21.3021 65 22.9032 65H65V30.3123L63.0875 29.8623ZM23.629 32.3387C23.629 30.3377 25.257 28.7097 27.2581 28.7097C29.2591 28.7097 30.8871 30.3377 30.8871 32.3387C30.8871 34.3398 29.2591 35.9677 27.2581 35.9677C25.257 35.9677 23.629 34.3398 23.629 32.3387ZM21.4516 42.5C21.4516 39.6991 23.7314 37.4194 26.5323 37.4194H32.5804C33.0493 37.4194 33.5131 37.264 33.8869 36.9831L38.786 33.3091C38.9973 33.1516 39.2578 33.0645 39.5213 33.0645H39.8247C40.499 33.0645 41.0484 33.614 41.0484 34.289C41.0484 34.6693 40.8764 35.0213 40.5759 35.255L35.9757 38.8332C35.3428 39.3253 34.5517 39.5968 33.7475 39.5968H27.9839V47.5806H30.8871C32.0876 47.5806 33.0645 48.5576 33.0645 49.7581V56.2896C33.0645 57.0909 32.4135 57.7419 31.6122 57.7419C31.2246 57.7419 30.8595 57.591 30.5852 57.3166C30.3115 57.0423 30.1606 56.6779 30.1606 56.2903L30.1613 51.9355C30.1613 51.1349 29.5102 50.4839 28.7097 50.4839H23.629C22.4285 50.4839 21.4516 49.5069 21.4516 48.3065V42.5ZM30.8871 46.129H29.4355V41.0484H33.7475C34.8725 41.0484 35.9801 40.6688 36.867 39.9778L40.9555 36.7981C41.1769 37.4498 41.4505 38.082 41.7858 38.6852L40.7508 40.3567L44.6433 44.2492L46.3148 43.2142C46.7714 43.4675 47.2475 43.678 47.7323 43.8667L34.5161 53.0663V49.7581C34.5161 47.757 32.8881 46.129 30.8871 46.129ZM25.8065 51.9355H28.7097L28.709 56.2896C28.709 56.5422 28.7518 56.7853 28.8135 57.0234L25.8065 59.1246V51.9355ZM21.4516 62.0968V51.1908C22.0598 51.6517 22.8089 51.9355 23.629 51.9355H24.3548V62.0968C24.3548 62.8973 23.7038 63.5484 22.9032 63.5484C22.1027 63.5484 21.4516 62.8973 21.4516 62.0968ZM63.5484 63.5484H25.4029C25.6526 63.1194 25.8065 62.6281 25.8065 62.0968V60.8956L29.5226 58.2986C29.5356 58.3124 29.5451 58.3291 29.5589 58.3429C30.1076 58.8916 30.837 59.1935 31.6122 59.1935C33.2133 59.1935 34.5161 57.8907 34.5161 56.2896V54.8344L48.8791 44.8371L49.1832 46.129H54.6877L55.1377 44.2165C55.979 43.9756 56.789 43.6395 57.5561 43.2142L59.2277 44.2492L63.1202 40.3567L62.0852 38.6852C62.5105 37.918 62.8465 37.108 63.0875 36.2668L63.5484 36.1586V63.5484ZM63.5484 34.6671L61.8986 35.0554L61.7927 35.488C61.5488 36.4867 61.1532 37.439 60.619 38.3208L60.3882 38.7004L61.2802 40.1419L59.0135 42.4085L57.5721 41.5165L57.1925 41.7473C56.3106 42.2815 55.3584 42.6771 54.3597 42.921L53.9271 43.0269L53.5381 44.6774H50.3329L49.9446 43.0277L49.512 42.9217C48.5133 42.6778 47.561 42.2823 46.6792 41.7481L46.2996 41.5173L44.8581 42.4093L42.5915 40.1426L43.4835 38.7011L43.2527 38.3215C42.7446 37.484 42.3672 36.581 42.1211 35.636C42.3585 35.2318 42.5 34.7745 42.5 34.289C42.5 32.984 41.5601 31.8981 40.3226 31.6637V31.4627L41.9723 31.0744L42.0783 30.6418C42.3222 29.6431 42.7177 28.6908 43.2519 27.809L43.4827 27.4294L42.5907 25.9879L44.8574 23.7212L46.2989 24.6132L46.6785 24.3824C47.5603 23.8482 48.5126 23.4527 49.5113 23.2088L49.9439 23.1028L50.3329 21.4516H53.5381L53.9264 23.1014L54.359 23.2073C55.3577 23.4512 56.3099 23.8468 57.1918 24.381L57.5714 24.6118L59.0128 23.7198L61.2795 25.9865L60.3875 27.4279L60.6183 27.8075C61.1525 28.6894 61.5481 29.6416 61.7919 30.6403L61.8979 31.0729L63.5484 31.4619V34.6671Z" fill="white"/>
    <path d="M51.9363 24.3555C47.1336 24.3555 43.2266 28.2626 43.2266 33.0652C43.2266 37.8679 47.1336 41.7749 51.9363 41.7749C56.7389 41.7749 60.646 37.8679 60.646 33.0652C60.646 28.2626 56.7389 24.3555 51.9363 24.3555ZM51.9363 40.3233C47.9342 40.3233 44.6782 37.0673 44.6782 33.0652C44.6782 29.0631 47.9342 25.8072 51.9363 25.8072C55.9384 25.8072 59.1943 29.0631 59.1943 33.0652C59.1943 37.0673 55.9384 40.3233 51.9363 40.3233Z" fill="white"/>
    <path d="M51.9369 28.7109C49.5352 28.7109 47.582 30.664 47.582 33.0657C47.582 35.4674 49.5352 37.4206 51.9369 37.4206C54.3386 37.4206 56.2917 35.4674 56.2917 33.0657C56.2917 30.664 54.3386 28.7109 51.9369 28.7109ZM51.9369 35.9689C50.3358 35.9689 49.0337 34.6668 49.0337 33.0657C49.0337 31.4646 50.3358 30.1625 51.9369 30.1625C53.538 30.1625 54.8401 31.4646 54.8401 33.0657C54.8401 34.6668 53.538 35.9689 51.9369 35.9689Z" fill="white"/>
    <path d="M60.6445 60.6445H62.0961V62.0961H60.6445V60.6445Z" fill="white"/>
    <path d="M60.6445 57.7422H62.0961V59.1938H60.6445V57.7422Z" fill="white"/>
    <path d="M60.6445 54.8398H62.0961V56.2914H60.6445V54.8398Z" fill="white"/>
    <path d="M27.2578 60.6445H28.7094V62.0961H27.2578V60.6445Z" fill="white"/>
    <path d="M30.1602 60.6445H31.6118V62.0961H30.1602V60.6445Z" fill="white"/>
    <path d="M33.0664 60.6445H34.518V62.0961H33.0664V60.6445Z" fill="white"/>
    </mask>
    <g mask="url(#mask7_687_49)">
    <path d="M60.6445 54.8398H62.0961V56.2914H60.6445V54.8398Z" stroke="white" stroke-width="2"/>
    </g>
    <mask id="mask8_687_49" style="mask-type:luminance" maskUnits="userSpaceOnUse" x="20" y="20" width="45" height="45">
    <path d="M35.8477 55.6995L37.0311 54.875L37.861 56.0662L36.6776 56.8907L35.8477 55.6995Z" fill="white"/>
    <path d="M38.4805 53.8652L48.3621 46.9805L49.192 48.1717L39.3104 55.0563L38.4805 53.8652Z" fill="white"/>
    <path d="M63.0875 29.8623C62.8465 29.021 62.5105 28.211 62.0852 27.4439L63.1202 25.7723L59.2277 21.8798L57.5561 22.9148C56.789 22.4895 55.979 22.1535 55.1377 21.9125L54.6877 20H49.1832L48.7332 21.9125C47.892 22.1535 47.082 22.4895 46.3148 22.9148L44.6433 21.8798L40.7508 25.7723L41.7858 27.4439C41.3605 28.211 41.0244 29.021 40.7835 29.8623L38.871 30.3123V31.7029C38.5277 31.7893 38.1996 31.9352 37.9158 32.1485L33.0159 35.8226C32.891 35.9162 32.7365 35.9677 32.5804 35.9677H30.8065C31.7508 35.0445 32.3387 33.7598 32.3387 32.3387C32.3387 29.5378 30.059 27.2581 27.2581 27.2581C24.4572 27.2581 22.1774 29.5378 22.1774 32.3387C22.1774 33.9994 22.9816 35.4713 24.2177 36.3989C21.7565 37.3359 20 39.7136 20 42.5V62.0968C20 63.6979 21.3021 65 22.9032 65H65V30.3123L63.0875 29.8623ZM23.629 32.3387C23.629 30.3377 25.257 28.7097 27.2581 28.7097C29.2591 28.7097 30.8871 30.3377 30.8871 32.3387C30.8871 34.3398 29.2591 35.9677 27.2581 35.9677C25.257 35.9677 23.629 34.3398 23.629 32.3387ZM21.4516 42.5C21.4516 39.6991 23.7314 37.4194 26.5323 37.4194H32.5804C33.0493 37.4194 33.5131 37.264 33.8869 36.9831L38.786 33.3091C38.9973 33.1516 39.2578 33.0645 39.5213 33.0645H39.8247C40.499 33.0645 41.0484 33.614 41.0484 34.289C41.0484 34.6693 40.8764 35.0213 40.5759 35.255L35.9757 38.8332C35.3428 39.3253 34.5517 39.5968 33.7475 39.5968H27.9839V47.5806H30.8871C32.0876 47.5806 33.0645 48.5576 33.0645 49.7581V56.2896C33.0645 57.0909 32.4135 57.7419 31.6122 57.7419C31.2246 57.7419 30.8595 57.591 30.5852 57.3166C30.3115 57.0423 30.1606 56.6779 30.1606 56.2903L30.1613 51.9355C30.1613 51.1349 29.5102 50.4839 28.7097 50.4839H23.629C22.4285 50.4839 21.4516 49.5069 21.4516 48.3065V42.5ZM30.8871 46.129H29.4355V41.0484H33.7475C34.8725 41.0484 35.9801 40.6688 36.867 39.9778L40.9555 36.7981C41.1769 37.4498 41.4505 38.082 41.7858 38.6852L40.7508 40.3567L44.6433 44.2492L46.3148 43.2142C46.7714 43.4675 47.2475 43.678 47.7323 43.8667L34.5161 53.0663V49.7581C34.5161 47.757 32.8881 46.129 30.8871 46.129ZM25.8065 51.9355H28.7097L28.709 56.2896C28.709 56.5422 28.7518 56.7853 28.8135 57.0234L25.8065 59.1246V51.9355ZM21.4516 62.0968V51.1908C22.0598 51.6517 22.8089 51.9355 23.629 51.9355H24.3548V62.0968C24.3548 62.8973 23.7038 63.5484 22.9032 63.5484C22.1027 63.5484 21.4516 62.8973 21.4516 62.0968ZM63.5484 63.5484H25.4029C25.6526 63.1194 25.8065 62.6281 25.8065 62.0968V60.8956L29.5226 58.2986C29.5356 58.3124 29.5451 58.3291 29.5589 58.3429C30.1076 58.8916 30.837 59.1935 31.6122 59.1935C33.2133 59.1935 34.5161 57.8907 34.5161 56.2896V54.8344L48.8791 44.8371L49.1832 46.129H54.6877L55.1377 44.2165C55.979 43.9756 56.789 43.6395 57.5561 43.2142L59.2277 44.2492L63.1202 40.3567L62.0852 38.6852C62.5105 37.918 62.8465 37.108 63.0875 36.2668L63.5484 36.1586V63.5484ZM63.5484 34.6671L61.8986 35.0554L61.7927 35.488C61.5488 36.4867 61.1532 37.439 60.619 38.3208L60.3882 38.7004L61.2802 40.1419L59.0135 42.4085L57.5721 41.5165L57.1925 41.7473C56.3106 42.2815 55.3584 42.6771 54.3597 42.921L53.9271 43.0269L53.5381 44.6774H50.3329L49.9446 43.0277L49.512 42.9217C48.5133 42.6778 47.561 42.2823 46.6792 41.7481L46.2996 41.5173L44.8581 42.4093L42.5915 40.1426L43.4835 38.7011L43.2527 38.3215C42.7446 37.484 42.3672 36.581 42.1211 35.636C42.3585 35.2318 42.5 34.7745 42.5 34.289C42.5 32.984 41.5601 31.8981 40.3226 31.6637V31.4627L41.9723 31.0744L42.0783 30.6418C42.3222 29.6431 42.7177 28.6908 43.2519 27.809L43.4827 27.4294L42.5907 25.9879L44.8574 23.7212L46.2989 24.6132L46.6785 24.3824C47.5603 23.8482 48.5126 23.4527 49.5113 23.2088L49.9439 23.1028L50.3329 21.4516H53.5381L53.9264 23.1014L54.359 23.2073C55.3577 23.4512 56.3099 23.8468 57.1918 24.381L57.5714 24.6118L59.0128 23.7198L61.2795 25.9865L60.3875 27.4279L60.6183 27.8075C61.1525 28.6894 61.5481 29.6416 61.7919 30.6403L61.8979 31.0729L63.5484 31.4619V34.6671Z" fill="white"/>
    <path d="M51.9363 24.3555C47.1336 24.3555 43.2266 28.2626 43.2266 33.0652C43.2266 37.8679 47.1336 41.7749 51.9363 41.7749C56.7389 41.7749 60.646 37.8679 60.646 33.0652C60.646 28.2626 56.7389 24.3555 51.9363 24.3555ZM51.9363 40.3233C47.9342 40.3233 44.6782 37.0673 44.6782 33.0652C44.6782 29.0631 47.9342 25.8072 51.9363 25.8072C55.9384 25.8072 59.1943 29.0631 59.1943 33.0652C59.1943 37.0673 55.9384 40.3233 51.9363 40.3233Z" fill="white"/>
    <path d="M51.9369 28.7109C49.5352 28.7109 47.582 30.664 47.582 33.0657C47.582 35.4674 49.5352 37.4206 51.9369 37.4206C54.3386 37.4206 56.2917 35.4674 56.2917 33.0657C56.2917 30.664 54.3386 28.7109 51.9369 28.7109ZM51.9369 35.9689C50.3358 35.9689 49.0337 34.6668 49.0337 33.0657C49.0337 31.4646 50.3358 30.1625 51.9369 30.1625C53.538 30.1625 54.8401 31.4646 54.8401 33.0657C54.8401 34.6668 53.538 35.9689 51.9369 35.9689Z" fill="white"/>
    <path d="M60.6445 60.6445H62.0961V62.0961H60.6445V60.6445Z" fill="white"/>
    <path d="M60.6445 57.7422H62.0961V59.1938H60.6445V57.7422Z" fill="white"/>
    <path d="M60.6445 54.8398H62.0961V56.2914H60.6445V54.8398Z" fill="white"/>
    <path d="M27.2578 60.6445H28.7094V62.0961H27.2578V60.6445Z" fill="white"/>
    <path d="M30.1602 60.6445H31.6118V62.0961H30.1602V60.6445Z" fill="white"/>
    <path d="M33.0664 60.6445H34.518V62.0961H33.0664V60.6445Z" fill="white"/>
    </mask>
    <g mask="url(#mask8_687_49)">
    <path d="M27.2578 60.6445H28.7094V62.0961H27.2578V60.6445Z" stroke="white" stroke-width="2"/>
    </g>
    <mask id="mask9_687_49" style="mask-type:luminance" maskUnits="userSpaceOnUse" x="20" y="20" width="45" height="45">
    <path d="M35.8477 55.6995L37.0311 54.875L37.861 56.0662L36.6776 56.8907L35.8477 55.6995Z" fill="white"/>
    <path d="M38.4805 53.8652L48.3621 46.9805L49.192 48.1717L39.3104 55.0563L38.4805 53.8652Z" fill="white"/>
    <path d="M63.0875 29.8623C62.8465 29.021 62.5105 28.211 62.0852 27.4439L63.1202 25.7723L59.2277 21.8798L57.5561 22.9148C56.789 22.4895 55.979 22.1535 55.1377 21.9125L54.6877 20H49.1832L48.7332 21.9125C47.892 22.1535 47.082 22.4895 46.3148 22.9148L44.6433 21.8798L40.7508 25.7723L41.7858 27.4439C41.3605 28.211 41.0244 29.021 40.7835 29.8623L38.871 30.3123V31.7029C38.5277 31.7893 38.1996 31.9352 37.9158 32.1485L33.0159 35.8226C32.891 35.9162 32.7365 35.9677 32.5804 35.9677H30.8065C31.7508 35.0445 32.3387 33.7598 32.3387 32.3387C32.3387 29.5378 30.059 27.2581 27.2581 27.2581C24.4572 27.2581 22.1774 29.5378 22.1774 32.3387C22.1774 33.9994 22.9816 35.4713 24.2177 36.3989C21.7565 37.3359 20 39.7136 20 42.5V62.0968C20 63.6979 21.3021 65 22.9032 65H65V30.3123L63.0875 29.8623ZM23.629 32.3387C23.629 30.3377 25.257 28.7097 27.2581 28.7097C29.2591 28.7097 30.8871 30.3377 30.8871 32.3387C30.8871 34.3398 29.2591 35.9677 27.2581 35.9677C25.257 35.9677 23.629 34.3398 23.629 32.3387ZM21.4516 42.5C21.4516 39.6991 23.7314 37.4194 26.5323 37.4194H32.5804C33.0493 37.4194 33.5131 37.264 33.8869 36.9831L38.786 33.3091C38.9973 33.1516 39.2578 33.0645 39.5213 33.0645H39.8247C40.499 33.0645 41.0484 33.614 41.0484 34.289C41.0484 34.6693 40.8764 35.0213 40.5759 35.255L35.9757 38.8332C35.3428 39.3253 34.5517 39.5968 33.7475 39.5968H27.9839V47.5806H30.8871C32.0876 47.5806 33.0645 48.5576 33.0645 49.7581V56.2896C33.0645 57.0909 32.4135 57.7419 31.6122 57.7419C31.2246 57.7419 30.8595 57.591 30.5852 57.3166C30.3115 57.0423 30.1606 56.6779 30.1606 56.2903L30.1613 51.9355C30.1613 51.1349 29.5102 50.4839 28.7097 50.4839H23.629C22.4285 50.4839 21.4516 49.5069 21.4516 48.3065V42.5ZM30.8871 46.129H29.4355V41.0484H33.7475C34.8725 41.0484 35.9801 40.6688 36.867 39.9778L40.9555 36.7981C41.1769 37.4498 41.4505 38.082 41.7858 38.6852L40.7508 40.3567L44.6433 44.2492L46.3148 43.2142C46.7714 43.4675 47.2475 43.678 47.7323 43.8667L34.5161 53.0663V49.7581C34.5161 47.757 32.8881 46.129 30.8871 46.129ZM25.8065 51.9355H28.7097L28.709 56.2896C28.709 56.5422 28.7518 56.7853 28.8135 57.0234L25.8065 59.1246V51.9355ZM21.4516 62.0968V51.1908C22.0598 51.6517 22.8089 51.9355 23.629 51.9355H24.3548V62.0968C24.3548 62.8973 23.7038 63.5484 22.9032 63.5484C22.1027 63.5484 21.4516 62.8973 21.4516 62.0968ZM63.5484 63.5484H25.4029C25.6526 63.1194 25.8065 62.6281 25.8065 62.0968V60.8956L29.5226 58.2986C29.5356 58.3124 29.5451 58.3291 29.5589 58.3429C30.1076 58.8916 30.837 59.1935 31.6122 59.1935C33.2133 59.1935 34.5161 57.8907 34.5161 56.2896V54.8344L48.8791 44.8371L49.1832 46.129H54.6877L55.1377 44.2165C55.979 43.9756 56.789 43.6395 57.5561 43.2142L59.2277 44.2492L63.1202 40.3567L62.0852 38.6852C62.5105 37.918 62.8465 37.108 63.0875 36.2668L63.5484 36.1586V63.5484ZM63.5484 34.6671L61.8986 35.0554L61.7927 35.488C61.5488 36.4867 61.1532 37.439 60.619 38.3208L60.3882 38.7004L61.2802 40.1419L59.0135 42.4085L57.5721 41.5165L57.1925 41.7473C56.3106 42.2815 55.3584 42.6771 54.3597 42.921L53.9271 43.0269L53.5381 44.6774H50.3329L49.9446 43.0277L49.512 42.9217C48.5133 42.6778 47.561 42.2823 46.6792 41.7481L46.2996 41.5173L44.8581 42.4093L42.5915 40.1426L43.4835 38.7011L43.2527 38.3215C42.7446 37.484 42.3672 36.581 42.1211 35.636C42.3585 35.2318 42.5 34.7745 42.5 34.289C42.5 32.984 41.5601 31.8981 40.3226 31.6637V31.4627L41.9723 31.0744L42.0783 30.6418C42.3222 29.6431 42.7177 28.6908 43.2519 27.809L43.4827 27.4294L42.5907 25.9879L44.8574 23.7212L46.2989 24.6132L46.6785 24.3824C47.5603 23.8482 48.5126 23.4527 49.5113 23.2088L49.9439 23.1028L50.3329 21.4516H53.5381L53.9264 23.1014L54.359 23.2073C55.3577 23.4512 56.3099 23.8468 57.1918 24.381L57.5714 24.6118L59.0128 23.7198L61.2795 25.9865L60.3875 27.4279L60.6183 27.8075C61.1525 28.6894 61.5481 29.6416 61.7919 30.6403L61.8979 31.0729L63.5484 31.4619V34.6671Z" fill="white"/>
    <path d="M51.9363 24.3555C47.1336 24.3555 43.2266 28.2626 43.2266 33.0652C43.2266 37.8679 47.1336 41.7749 51.9363 41.7749C56.7389 41.7749 60.646 37.8679 60.646 33.0652C60.646 28.2626 56.7389 24.3555 51.9363 24.3555ZM51.9363 40.3233C47.9342 40.3233 44.6782 37.0673 44.6782 33.0652C44.6782 29.0631 47.9342 25.8072 51.9363 25.8072C55.9384 25.8072 59.1943 29.0631 59.1943 33.0652C59.1943 37.0673 55.9384 40.3233 51.9363 40.3233Z" fill="white"/>
    <path d="M51.9369 28.7109C49.5352 28.7109 47.582 30.664 47.582 33.0657C47.582 35.4674 49.5352 37.4206 51.9369 37.4206C54.3386 37.4206 56.2917 35.4674 56.2917 33.0657C56.2917 30.664 54.3386 28.7109 51.9369 28.7109ZM51.9369 35.9689C50.3358 35.9689 49.0337 34.6668 49.0337 33.0657C49.0337 31.4646 50.3358 30.1625 51.9369 30.1625C53.538 30.1625 54.8401 31.4646 54.8401 33.0657C54.8401 34.6668 53.538 35.9689 51.9369 35.9689Z" fill="white"/>
    <path d="M60.6445 60.6445H62.0961V62.0961H60.6445V60.6445Z" fill="white"/>
    <path d="M60.6445 57.7422H62.0961V59.1938H60.6445V57.7422Z" fill="white"/>
    <path d="M60.6445 54.8398H62.0961V56.2914H60.6445V54.8398Z" fill="white"/>
    <path d="M27.2578 60.6445H28.7094V62.0961H27.2578V60.6445Z" fill="white"/>
    <path d="M30.1602 60.6445H31.6118V62.0961H30.1602V60.6445Z" fill="white"/>
    <path d="M33.0664 60.6445H34.518V62.0961H33.0664V60.6445Z" fill="white"/>
    </mask>
    <g mask="url(#mask9_687_49)">
    <path d="M30.1602 60.6445H31.6118V62.0961H30.1602V60.6445Z" stroke="white" stroke-width="2"/>
    </g>
    <mask id="mask10_687_49" style="mask-type:luminance" maskUnits="userSpaceOnUse" x="20" y="20" width="45" height="45">
    <path d="M35.8477 55.6995L37.0311 54.875L37.861 56.0662L36.6776 56.8907L35.8477 55.6995Z" fill="white"/>
    <path d="M38.4805 53.8652L48.3621 46.9805L49.192 48.1717L39.3104 55.0563L38.4805 53.8652Z" fill="white"/>
    <path d="M63.0875 29.8623C62.8465 29.021 62.5105 28.211 62.0852 27.4439L63.1202 25.7723L59.2277 21.8798L57.5561 22.9148C56.789 22.4895 55.979 22.1535 55.1377 21.9125L54.6877 20H49.1832L48.7332 21.9125C47.892 22.1535 47.082 22.4895 46.3148 22.9148L44.6433 21.8798L40.7508 25.7723L41.7858 27.4439C41.3605 28.211 41.0244 29.021 40.7835 29.8623L38.871 30.3123V31.7029C38.5277 31.7893 38.1996 31.9352 37.9158 32.1485L33.0159 35.8226C32.891 35.9162 32.7365 35.9677 32.5804 35.9677H30.8065C31.7508 35.0445 32.3387 33.7598 32.3387 32.3387C32.3387 29.5378 30.059 27.2581 27.2581 27.2581C24.4572 27.2581 22.1774 29.5378 22.1774 32.3387C22.1774 33.9994 22.9816 35.4713 24.2177 36.3989C21.7565 37.3359 20 39.7136 20 42.5V62.0968C20 63.6979 21.3021 65 22.9032 65H65V30.3123L63.0875 29.8623ZM23.629 32.3387C23.629 30.3377 25.257 28.7097 27.2581 28.7097C29.2591 28.7097 30.8871 30.3377 30.8871 32.3387C30.8871 34.3398 29.2591 35.9677 27.2581 35.9677C25.257 35.9677 23.629 34.3398 23.629 32.3387ZM21.4516 42.5C21.4516 39.6991 23.7314 37.4194 26.5323 37.4194H32.5804C33.0493 37.4194 33.5131 37.264 33.8869 36.9831L38.786 33.3091C38.9973 33.1516 39.2578 33.0645 39.5213 33.0645H39.8247C40.499 33.0645 41.0484 33.614 41.0484 34.289C41.0484 34.6693 40.8764 35.0213 40.5759 35.255L35.9757 38.8332C35.3428 39.3253 34.5517 39.5968 33.7475 39.5968H27.9839V47.5806H30.8871C32.0876 47.5806 33.0645 48.5576 33.0645 49.7581V56.2896C33.0645 57.0909 32.4135 57.7419 31.6122 57.7419C31.2246 57.7419 30.8595 57.591 30.5852 57.3166C30.3115 57.0423 30.1606 56.6779 30.1606 56.2903L30.1613 51.9355C30.1613 51.1349 29.5102 50.4839 28.7097 50.4839H23.629C22.4285 50.4839 21.4516 49.5069 21.4516 48.3065V42.5ZM30.8871 46.129H29.4355V41.0484H33.7475C34.8725 41.0484 35.9801 40.6688 36.867 39.9778L40.9555 36.7981C41.1769 37.4498 41.4505 38.082 41.7858 38.6852L40.7508 40.3567L44.6433 44.2492L46.3148 43.2142C46.7714 43.4675 47.2475 43.678 47.7323 43.8667L34.5161 53.0663V49.7581C34.5161 47.757 32.8881 46.129 30.8871 46.129ZM25.8065 51.9355H28.7097L28.709 56.2896C28.709 56.5422 28.7518 56.7853 28.8135 57.0234L25.8065 59.1246V51.9355ZM21.4516 62.0968V51.1908C22.0598 51.6517 22.8089 51.9355 23.629 51.9355H24.3548V62.0968C24.3548 62.8973 23.7038 63.5484 22.9032 63.5484C22.1027 63.5484 21.4516 62.8973 21.4516 62.0968ZM63.5484 63.5484H25.4029C25.6526 63.1194 25.8065 62.6281 25.8065 62.0968V60.8956L29.5226 58.2986C29.5356 58.3124 29.5451 58.3291 29.5589 58.3429C30.1076 58.8916 30.837 59.1935 31.6122 59.1935C33.2133 59.1935 34.5161 57.8907 34.5161 56.2896V54.8344L48.8791 44.8371L49.1832 46.129H54.6877L55.1377 44.2165C55.979 43.9756 56.789 43.6395 57.5561 43.2142L59.2277 44.2492L63.1202 40.3567L62.0852 38.6852C62.5105 37.918 62.8465 37.108 63.0875 36.2668L63.5484 36.1586V63.5484ZM63.5484 34.6671L61.8986 35.0554L61.7927 35.488C61.5488 36.4867 61.1532 37.439 60.619 38.3208L60.3882 38.7004L61.2802 40.1419L59.0135 42.4085L57.5721 41.5165L57.1925 41.7473C56.3106 42.2815 55.3584 42.6771 54.3597 42.921L53.9271 43.0269L53.5381 44.6774H50.3329L49.9446 43.0277L49.512 42.9217C48.5133 42.6778 47.561 42.2823 46.6792 41.7481L46.2996 41.5173L44.8581 42.4093L42.5915 40.1426L43.4835 38.7011L43.2527 38.3215C42.7446 37.484 42.3672 36.581 42.1211 35.636C42.3585 35.2318 42.5 34.7745 42.5 34.289C42.5 32.984 41.5601 31.8981 40.3226 31.6637V31.4627L41.9723 31.0744L42.0783 30.6418C42.3222 29.6431 42.7177 28.6908 43.2519 27.809L43.4827 27.4294L42.5907 25.9879L44.8574 23.7212L46.2989 24.6132L46.6785 24.3824C47.5603 23.8482 48.5126 23.4527 49.5113 23.2088L49.9439 23.1028L50.3329 21.4516H53.5381L53.9264 23.1014L54.359 23.2073C55.3577 23.4512 56.3099 23.8468 57.1918 24.381L57.5714 24.6118L59.0128 23.7198L61.2795 25.9865L60.3875 27.4279L60.6183 27.8075C61.1525 28.6894 61.5481 29.6416 61.7919 30.6403L61.8979 31.0729L63.5484 31.4619V34.6671Z" fill="white"/>
    <path d="M51.9363 24.3555C47.1336 24.3555 43.2266 28.2626 43.2266 33.0652C43.2266 37.8679 47.1336 41.7749 51.9363 41.7749C56.7389 41.7749 60.646 37.8679 60.646 33.0652C60.646 28.2626 56.7389 24.3555 51.9363 24.3555ZM51.9363 40.3233C47.9342 40.3233 44.6782 37.0673 44.6782 33.0652C44.6782 29.0631 47.9342 25.8072 51.9363 25.8072C55.9384 25.8072 59.1943 29.0631 59.1943 33.0652C59.1943 37.0673 55.9384 40.3233 51.9363 40.3233Z" fill="white"/>
    <path d="M51.9369 28.7109C49.5352 28.7109 47.582 30.664 47.582 33.0657C47.582 35.4674 49.5352 37.4206 51.9369 37.4206C54.3386 37.4206 56.2917 35.4674 56.2917 33.0657C56.2917 30.664 54.3386 28.7109 51.9369 28.7109ZM51.9369 35.9689C50.3358 35.9689 49.0337 34.6668 49.0337 33.0657C49.0337 31.4646 50.3358 30.1625 51.9369 30.1625C53.538 30.1625 54.8401 31.4646 54.8401 33.0657C54.8401 34.6668 53.538 35.9689 51.9369 35.9689Z" fill="white"/>
    <path d="M60.6445 60.6445H62.0961V62.0961H60.6445V60.6445Z" fill="white"/>
    <path d="M60.6445 57.7422H62.0961V59.1938H60.6445V57.7422Z" fill="white"/>
    <path d="M60.6445 54.8398H62.0961V56.2914H60.6445V54.8398Z" fill="white"/>
    <path d="M27.2578 60.6445H28.7094V62.0961H27.2578V60.6445Z" fill="white"/>
    <path d="M30.1602 60.6445H31.6118V62.0961H30.1602V60.6445Z" fill="white"/>
    <path d="M33.0664 60.6445H34.518V62.0961H33.0664V60.6445Z" fill="white"/>
    </mask>
    <g mask="url(#mask10_687_49)">
    <path d="M33.0664 60.6445H34.518V62.0961H33.0664V60.6445Z" stroke="white" stroke-width="2"/>
    </g>
    </g>
    <defs>
    <clipPath id="clip0_687_49">
    <rect width="85" height="85" fill="white"/>
    </clipPath>
    </defs>
    </svg>
    