<svg width="885" height="733" viewBox="0 0 885 733" fill="none" xmlns="http://www.w3.org/2000/svg">
	<path d="M591.46 500.788C588.57 500.238 587.47 502.198 585.95 504.078C558.83 537.708 541.7 588.248 487.05 580.338C444.02 574.118 423.79 495.708 413.4 460.418C405.06 432.088 397.85 403.098 390.56 374.478C380.94 336.718 373.66 282.628 360.21 248.068C346.86 213.778 328.67 233.108 314.24 253.298C301.7 270.848 289.71 295.928 280.72 315.768C243.71 397.468 216.72 483.638 187.88 568.468C182.63 584.738 149.72 583.448 140.57 573.958C135.02 568.198 140.65 545.228 142.55 537.548C164.57 448.208 220.73 302.268 270.06 225.138C306.35 168.388 369.82 121.208 404.28 210.398C430.68 278.708 444.23 360.798 464.18 432.038C469.62 451.458 476.21 479.568 486.14 496.468C511.7 539.948 535.76 509.318 554.34 480.488C599.8 409.948 608.16 339.348 637.81 264.818C648.12 238.918 666.6 219.628 696.57 233.368C716.28 242.408 705.85 265.068 701.41 281.998C685.31 343.418 652.21 420.158 647.47 482.408C646.48 495.468 644.65 521.998 662.68 523.268C685.68 524.898 716.81 480.588 734.75 468.768C761.69 471.418 749.35 493.008 740.58 508.288C719.77 544.558 661.28 600.618 616.5 574.098C605.25 567.438 591.44 542.828 591.44 530.368V500.778L591.46 500.788Z" fill="#BE5F28"/>
	<path d="M696.651 133.269C738.711 124.599 770.161 169.299 741.111 203.299C709.611 240.169 654.291 206.879 668.731 159.749C671.981 149.139 685.871 135.489 696.641 133.269H696.651Z" fill="#BE5F28"/>
	<path d="M874.07 10H10V722.48H874.07V10Z" stroke="#BE5F28" stroke-width="20" stroke-miterlimit="10"/>
	</svg>
	