<svg width="406" height="125" viewBox="0 0 406 125" fill="none" xmlns="http://www.w3.org/2000/svg">
	<path d="M124.799 102.001C124.399 102.601 123.899 103.201 123.499 103.801C121.299 107.001 119.199 110.301 116.799 113.401C114.299 116.701 111.599 119.801 107.899 121.901C103.699 124.301 99.1992 124.901 94.5992 123.401C91.5992 122.401 89.3992 120.301 87.4992 117.901C84.7992 114.501 82.7992 110.601 81.2992 106.501C79.4992 101.401 77.7992 96.2008 76.2992 91.0008C74.6992 85.7008 73.2992 80.4008 71.9992 75.1008C69.6992 66.0008 67.4992 56.9008 65.2992 47.8008C64.1992 43.1008 63.0992 38.4008 61.8992 33.7008C61.4992 32.1008 60.5992 30.6008 59.6992 29.2008C58.3992 27.3008 56.4992 27.1008 54.6992 28.4008C52.0992 30.2008 50.2992 32.8008 48.6992 35.5008C43.5992 43.6008 39.8992 52.3008 36.2992 61.1008C33.3992 68.4008 30.3992 75.7008 27.6992 83.1008C24.6992 91.3008 21.8992 99.7008 19.0992 108.001C17.8992 111.601 16.8992 115.201 15.6992 118.801C15.3992 119.701 14.8992 120.701 14.3992 121.501C13.3992 123.001 11.8992 123.901 9.99922 124.001C7.99922 124.101 6.09922 124.201 4.19922 123.501C3.39922 123.201 2.49922 122.801 1.79922 122.201C1.19922 121.701 0.699219 120.801 0.699219 120.101C0.699219 118.301 0.899218 116.501 1.39922 114.801C2.69922 110.001 4.19922 105.301 5.69922 100.601C7.69922 94.3009 9.69922 88.0008 11.8992 81.8008C13.9992 76.0008 16.2992 70.2008 18.6992 64.5008C20.9992 59.0008 23.3992 53.5008 25.7992 48.1008C29.4992 39.8008 33.5992 31.8008 38.5992 24.3008C40.9992 20.6008 43.6992 17.1008 46.9992 14.2008C49.6992 11.7008 52.7992 9.80084 56.3992 9.00084C60.7992 8.00084 64.4992 9.40084 67.6992 12.3008C70.9992 15.1008 72.9992 18.9008 74.2992 23.0008C76.2992 29.2008 78.1992 35.5008 79.9992 41.8008C82.5992 51.3008 84.8992 60.8008 87.3992 70.3008C89.4992 78.3008 91.5992 86.4008 93.8992 94.4008C94.8992 97.9008 96.5992 101.201 98.9992 104.101C99.5992 104.801 100.399 105.501 101.199 106.001C103.299 107.301 105.399 106.801 107.299 105.501C109.699 103.701 111.599 101.401 113.199 98.9008C119.399 89.5008 124.199 79.4008 127.799 68.8008C130.299 61.4008 132.399 53.9008 134.699 46.5008C135.999 42.3008 137.399 38.1008 139.099 34.0008C141.699 27.8008 149.399 25.6008 155.199 29.0008C156.899 30.0008 157.799 31.4008 157.499 33.3008C157.099 35.9008 156.599 38.4008 155.899 40.9008C153.399 49.3008 150.699 57.6008 148.299 66.0008C145.599 75.2008 143.099 84.5008 141.399 94.0008C140.899 96.7008 140.899 99.4009 140.699 102.101C140.699 102.801 140.799 103.601 140.999 104.401C141.799 107.401 144.099 108.601 147.099 107.601C149.299 106.801 151.199 105.601 152.799 104.001C155.999 101.001 159.099 97.8008 162.199 94.7008C162.399 94.5008 162.599 94.4008 162.699 94.2008C163.699 92.7008 164.999 92.9008 166.399 93.5008C166.999 93.8008 167.599 94.1008 168.099 94.4008C169.399 95.3008 169.799 96.5009 169.199 98.1009C167.399 102.501 164.999 106.601 161.999 110.301C158.299 114.901 153.999 118.801 148.799 121.601C144.399 124.001 139.699 125.101 134.699 123.601C131.199 122.601 128.799 120.301 127.199 117.001C125.199 112.801 124.599 108.401 124.899 103.901C124.899 103.301 124.899 102.801 124.899 102.201C124.999 102.001 124.899 102.001 124.799 102.001Z" fill="#BF5E28"/>
	<path d="M169.598 12.4007C169.598 18.3007 164.698 24.9007 156.898 24.8007C150.398 24.7007 145.598 19.4007 145.598 12.1007C145.598 5.70066 150.998 0.600665 157.798 0.700665C163.998 0.700665 169.598 6.30067 169.598 12.4007Z" fill="#BF5E28"/>
	<path d="M361.901 76.2008C364.401 78.6008 364.701 81.6008 364.701 84.8008C364.701 86.0008 365.001 87.2008 365.201 88.7008C363.301 88.7008 361.101 88.7008 359.001 88.6008C358.701 88.6008 358.301 87.8008 358.201 87.4008C358.001 86.1008 357.901 84.8008 357.901 83.6008C357.801 80.8008 356.501 79.6008 353.801 79.6008C351.501 79.6008 349.301 79.6008 347.001 79.6008C346.101 79.6008 345.801 79.9008 345.801 80.8008C345.801 83.1008 345.801 85.3008 345.801 87.6008C345.801 88.6008 345.501 88.9008 344.501 88.9008C343.001 88.9008 341.501 88.8008 340.001 88.9008C339.101 88.9008 338.801 88.5008 338.801 87.6008C338.801 78.9008 338.801 70.2008 338.801 61.5008C338.801 60.6008 339.101 60.3008 340.001 60.3008C344.701 60.3008 349.401 60.3008 354.101 60.3008C357.501 60.3008 360.601 61.3008 362.801 64.0008C365.401 67.1008 365.401 71.7008 362.901 75.0008C362.601 75.3008 362.301 75.7008 361.901 76.2008ZM345.801 73.3008C348.901 73.3008 351.801 73.4008 354.601 73.3008C356.301 73.2008 357.801 71.2008 357.801 69.3008C357.701 67.6008 356.501 66.3008 354.601 66.2008C352.001 66.1008 349.401 66.1008 346.801 66.2008C346.501 66.2008 345.901 66.8008 345.901 67.1008C345.701 69.1008 345.801 71.1008 345.801 73.3008Z" fill="#BF5E28"/>
	<path d="M379.598 88.5008C379.598 87.3008 379.598 86.2008 379.598 85.0008C379.598 77.3008 379.598 69.6008 379.598 61.8008C379.598 60.6008 379.998 60.3008 381.098 60.3008C388.698 60.3008 396.298 60.3008 403.798 60.3008C404.898 60.3008 405.398 60.6008 405.298 61.8008C405.198 62.8008 405.198 63.8008 405.298 64.8008C405.398 65.9008 404.898 66.2008 403.898 66.2008C398.698 66.2008 393.498 66.2008 388.298 66.2008C386.898 66.2008 386.398 66.6008 386.498 68.0008C386.598 69.1008 386.498 70.2008 386.498 71.5008C386.998 71.5008 387.498 71.6008 387.998 71.6008C391.498 71.6008 395.098 71.7008 398.598 71.6008C399.998 71.6008 400.498 72.0008 400.398 73.4008C400.298 74.3008 400.298 75.2008 400.398 76.2008C400.498 77.3008 400.098 77.6008 398.998 77.6008C395.398 77.5008 391.798 77.6008 388.198 77.5008C386.898 77.5008 386.498 77.9008 386.498 79.2008C386.498 82.9008 386.498 82.9008 390.198 82.9008C394.798 82.9008 399.398 82.9008 403.998 82.9008C404.998 82.9008 405.398 83.2008 405.298 84.3008C405.198 85.4008 405.298 86.6008 405.298 87.7008C405.298 88.4008 405.098 88.8008 404.298 88.8008C396.198 88.8008 388.098 88.8008 379.998 88.8008C379.998 88.6008 379.798 88.5008 379.598 88.5008Z" fill="#BF5E28"/>
	<path d="M192.199 88.6C193.099 86.4 193.999 84.4 194.799 82.5C197.899 75.6 200.999 68.7 203.999 61.7C204.499 60.6 205.099 60.1 206.399 60.2C207.599 60.3 208.799 60.3 209.999 60.2C210.899 60.2 211.299 60.5 211.699 61.3C214.899 68.6 218.199 75.8 221.399 83C222.199 84.8 222.899 86.5 223.799 88.5C221.499 88.5 219.299 88.5 217.199 88.5C216.899 88.5 216.599 88 216.499 87.6C215.799 86.2 215.199 84.8 214.599 83.3C214.299 82.6 213.899 82.2 213.099 82.3C209.699 82.3 206.399 82.3 202.999 82.3C202.099 82.3 201.699 82.6 201.399 83.4C200.799 84.9 200.199 86.3 199.499 87.7C199.299 88.1 198.899 88.6 198.599 88.6C196.599 88.7 194.499 88.6 192.199 88.6ZM204.599 76.3C206.999 76.3 208.999 76.3 211.299 76.3C210.199 73.8 209.199 71.5 208.199 69.2C208.099 69.2 207.899 69.2 207.799 69.2C206.799 71.5 205.699 73.8 204.599 76.3Z" fill="#BF5E28"/>
	<path d="M325.598 88.6024C323.298 88.6024 321.398 88.7024 319.398 88.6024C318.998 88.6024 318.498 88.1024 318.298 87.6024C317.598 86.2024 316.998 84.8024 316.398 83.3024C316.098 82.6024 315.698 82.3024 314.898 82.3024C311.498 82.4024 308.198 82.3024 304.798 82.3024C303.998 82.3024 303.498 82.6024 303.198 83.3024C302.598 84.7024 301.998 86.1024 301.398 87.5024C301.098 88.3024 300.698 88.7024 299.798 88.6024C297.898 88.5024 296.098 88.6024 293.898 88.6024C294.898 86.4024 295.798 84.4024 296.698 82.4024C299.798 75.4024 302.898 68.5024 305.898 61.5024C306.298 60.5024 306.898 60.1024 307.998 60.2024C308.398 60.2024 308.798 60.2024 309.198 60.2024C313.798 60.3024 312.498 59.5024 314.398 63.5024C317.898 71.2024 321.298 79.0024 324.798 86.8024C325.098 87.3024 325.298 87.8024 325.598 88.6024ZM309.998 69.1024C309.898 69.1024 309.698 69.1024 309.598 69.1024C308.598 71.4024 307.498 73.8024 306.398 76.3024C308.698 76.3024 310.798 76.3024 313.198 76.3024C311.998 73.8024 310.998 71.4024 309.998 69.1024Z" fill="#BF5E28"/>
	<path d="M260.7 60.3008C258.6 65.1008 256.6 69.5008 254.7 74.0008C252.7 78.5008 250.7 83.0008 248.7 87.5008C248.3 88.5008 247.7 88.8008 246.7 88.8008C245.5 88.7008 244.2 88.9008 243 88.7008C242.5 88.7008 241.8 88.3008 241.6 87.9008C237.5 78.9008 233.5 69.8008 229.5 60.7008C229.5 60.7008 229.5 60.6008 229.5 60.4008C231.6 60.4008 233.7 60.3008 235.7 60.5008C236.2 60.5008 236.7 61.5008 237 62.1008C239.4 67.5008 241.8 73.0008 244.2 78.5008C244.4 78.9008 244.6 79.2008 244.9 79.8008C245.2 79.2008 245.5 78.8008 245.7 78.3008C248.2 72.7008 250.7 67.1008 253.1 61.5008C253.4 60.7008 253.8 60.3008 254.7 60.3008C256.7 60.3008 258.5 60.3008 260.7 60.3008Z" fill="#BF5E28"/>
	<path d="M280.698 74.3999C280.698 78.5999 280.698 82.8999 280.698 87.0999C280.698 88.2999 280.498 88.7999 279.198 88.6999C277.798 88.5999 276.398 88.6999 275.098 88.6999C274.298 88.6999 273.898 88.4999 273.898 87.5999C273.898 78.8999 273.898 70.1999 273.898 61.5999C273.898 60.5999 274.198 60.2999 275.198 60.2999C276.498 60.2999 277.898 60.3999 279.198 60.2999C280.298 60.1999 280.698 60.5999 280.698 61.7999C280.698 65.8999 280.698 70.1999 280.698 74.3999Z" fill="#BF5E28"/>
	</svg>
	