<svg width="169" height="124" viewBox="0 0 169 124" fill="none" xmlns="http://www.w3.org/2000/svg">
	<path d="M124.1 101.302C123.7 101.902 123.2 102.502 122.8 103.102C120.6 106.302 118.5 109.602 116.1 112.702C113.6 116.002 110.9 119.102 107.2 121.202C103 123.602 98.5 124.202 93.9 122.702C90.9 121.702 88.7 119.602 86.8 117.202C84.1 113.802 82.1 109.902 80.6 105.802C78.8 100.702 77.1 95.5016 75.6 90.3016C74 85.0016 72.6 79.7016 71.3 74.4016C69 65.3016 66.8 56.2016 64.6 47.1016C63.5 42.4016 62.4 37.7016 61.2 33.0016C60.8 31.4016 59.9 29.9016 59 28.5016C57.7 26.6016 55.8 26.4016 54 27.7016C51.4 29.5016 49.6 32.1016 48 34.8016C42.9 42.9016 39.2 51.6016 35.6 60.4016C32.7 67.7016 29.7 75.0016 27 82.4016C24 90.6016 21.2 99.0016 18.4 107.302C17.2 110.902 16.2 114.502 15 118.102C14.7 119.002 14.2 120.002 13.7 120.802C12.7 122.302 11.2 123.202 9.3 123.302C7.3 123.402 5.4 123.502 3.5 122.802C2.7 122.502 1.8 122.102 1.1 121.502C0.499998 121.002 0 120.102 0 119.402C0 117.602 0.199999 115.802 0.699999 114.102C2 109.302 3.5 104.602 5 99.9016C7 93.6016 9 87.3016 11.2 81.1016C13.3 75.3016 15.6 69.5016 18 63.8016C20.3 58.3016 22.7 52.8016 25.1 47.4016C28.8 39.1016 32.9 31.1016 37.9 23.6016C40.3 19.9016 43 16.4016 46.3 13.5016C49 11.0016 52.1 9.10162 55.7 8.30162C60.1 7.30162 63.8 8.70162 67 11.6016C70.3 14.4016 72.3 18.2016 73.6 22.3016C75.6 28.5016 77.5 34.8016 79.3 41.1016C81.9 50.6016 84.2 60.1016 86.7 69.6016C88.8 77.6016 90.9 85.7016 93.2 93.7016C94.2 97.2016 95.9 100.502 98.3 103.402C98.9 104.102 99.7 104.802 100.5 105.302C102.6 106.602 104.7 106.102 106.6 104.802C109 103.002 110.9 100.702 112.5 98.2016C118.7 88.8016 123.5 78.7016 127.1 68.1016C129.6 60.7016 131.7 53.2016 134 45.8016C135.3 41.6016 136.7 37.4016 138.4 33.3016C141 27.1016 148.7 24.9016 154.5 28.3016C156.2 29.3016 157.1 30.7016 156.8 32.6016C156.4 35.2016 155.9 37.7016 155.2 40.2016C152.7 48.6016 150 56.9016 147.6 65.3016C144.9 74.5016 142.4 83.8016 140.7 93.3016C140.2 96.0016 140.2 98.7016 140 101.402C140 102.102 140.1 102.902 140.3 103.702C141.1 106.702 143.4 107.902 146.4 106.902C148.6 106.102 150.5 104.902 152.1 103.302C155.3 100.302 158.4 97.1016 161.5 94.0016C161.7 93.8016 161.9 93.7016 162 93.5016C163 92.0016 164.3 92.2016 165.7 92.8016C166.3 93.1016 166.9 93.4016 167.4 93.7016C168.7 94.6016 169.1 95.8016 168.5 97.4016C166.7 101.802 164.3 105.902 161.3 109.602C157.6 114.202 153.3 118.102 148.1 120.902C143.7 123.302 139 124.402 134 122.902C130.5 121.902 128.1 119.602 126.5 116.302C124.5 112.102 123.9 107.702 124.2 103.202C124.2 102.602 124.2 102.102 124.2 101.502C124.3 101.302 124.2 101.302 124.1 101.302Z" fill="#BF5E28"/>
	<path d="M168.898 11.7014C168.898 17.6014 163.998 24.2014 156.198 24.1014C149.698 24.0014 144.898 18.7014 144.898 11.4014C144.898 5.00144 150.298 -0.0985542 157.098 0.00144579C163.298 0.00144579 168.898 5.60145 168.898 11.7014Z" fill="#BF5E28"/>
	</svg>
	