<svg width="115" height="30" viewBox="0 0 115 30" fill="none" xmlns="http://www.w3.org/2000/svg">
    <g clip-path="url(#clip0_696_27)">
    <mask id="mask0_696_27" style="mask-type:luminance" maskUnits="userSpaceOnUse" x="0" y="0" width="115" height="30">
    <path d="M114.419 0H0V29.864H114.419V0Z" fill="white"/>
    </mask>
    <g mask="url(#mask0_696_27)">
    <path d="M3.46431 22.3285C3.59089 22.5578 3.63588 22.8232 3.59192 23.0814C3.54795 23.3395 3.41764 23.5751 3.22231 23.7495L3.21431 23.7575L3.20031 23.7655C2.40931 24.4655 1.98931 24.8795 1.97731 24.8915C1.75865 25.1061 1.46419 25.2256 1.15787 25.2243C0.85156 25.223 0.558131 25.1009 0.341314 24.8845L0.335314 24.8785C0.227913 24.7697 0.143018 24.6408 0.0854868 24.4992C0.0279554 24.3575 -0.00108365 24.2059 3.0908e-05 24.0531C0.00114546 23.9002 0.0323918 23.749 0.0919822 23.6082C0.151573 23.4674 0.238338 23.3398 0.347314 23.2325C0.347314 23.2325 0.793314 22.7935 1.64731 22.0325C1.65331 22.0285 1.65831 22.0175 1.66631 22.0125C1.72661 21.9605 1.79193 21.9146 1.86131 21.8755C2.09304 21.7396 2.3649 21.6887 2.6301 21.7316C2.8953 21.7745 3.13725 21.9085 3.31431 22.1105C3.3653 22.1683 3.41051 22.231 3.44931 22.2975C3.45431 22.3055 3.45731 22.3155 3.46131 22.3235" fill="#BF5E28"/>
    <path d="M45.7712 3.14506C44.6602 3.33406 43.5322 3.54506 42.4212 3.76206C42.2316 3.79995 42.0357 3.79087 41.8504 3.73562C41.6651 3.68036 41.4961 3.58061 41.3582 3.44506C41.2029 3.28555 41.0945 3.08622 41.0452 2.86906C41.0044 2.6764 41.0123 2.47657 41.0684 2.28777C41.1245 2.09897 41.2268 1.92719 41.3662 1.78806C41.5303 1.63662 41.7326 1.53288 41.9512 1.48806C43.0782 1.24506 44.2392 1.03906 45.4082 0.859057C45.7106 0.816922 46.0176 0.89252 46.2659 1.07024C46.5141 1.24796 46.6847 1.51423 46.7422 1.81406C46.7734 1.99815 46.7598 2.18704 46.7025 2.36475C46.6452 2.54247 46.546 2.70378 46.4132 2.83506C46.2366 3.00304 46.0124 3.11236 45.7712 3.14806" fill="#BF5E28"/>
    <path d="M32.5664 6.52011C31.5294 6.88211 30.4834 7.26811 29.3664 7.71411C29.1543 7.80094 28.9212 7.82316 28.6965 7.77797C28.4718 7.73278 28.2655 7.62219 28.1034 7.46011C27.9948 7.34809 27.908 7.21686 27.8474 7.07311C27.7626 6.8598 27.7432 6.62609 27.7917 6.40172C27.8401 6.17735 27.9542 5.97246 28.1194 5.81311C28.2279 5.70045 28.3601 5.61334 28.5064 5.55811C29.5764 5.13011 30.6874 4.71011 31.7894 4.31411C32.0825 4.21871 32.4012 4.24114 32.678 4.37665C32.9548 4.51217 33.168 4.75012 33.2724 5.04011C33.3466 5.24738 33.3603 5.47147 33.312 5.68624C33.2636 5.90101 33.1552 6.09761 32.9994 6.25311C32.8735 6.37172 32.7253 6.46417 32.5634 6.52511" fill="#BF5E28"/>
    <path d="M39.0904 4.53492C38.0034 4.81492 36.9014 5.11192 35.8224 5.44892H35.8044C35.6034 5.51287 35.3886 5.51991 35.1838 5.46925C34.9791 5.41859 34.7924 5.31222 34.6444 5.16192C34.5088 5.02686 34.4098 4.85966 34.3564 4.67592C34.293 4.47668 34.2856 4.26386 34.335 4.0607C34.3844 3.85754 34.4886 3.67186 34.6364 3.52392C34.7091 3.45257 34.7892 3.38921 34.8754 3.33492H34.7294L35.1814 3.21092C36.2924 2.87292 37.4204 2.55192 38.5234 2.27292C38.8218 2.20604 39.1346 2.25674 39.3966 2.41448C39.6586 2.57222 39.8498 2.82487 39.9304 3.11992C39.9785 3.31363 39.9762 3.51644 39.9237 3.70901C39.8712 3.90158 39.7702 4.07748 39.6304 4.21992C39.4792 4.36906 39.2922 4.47685 39.0874 4.53292" fill="#BF5E28"/>
    <path d="M26.2112 9.05591C25.1992 9.50891 24.1532 9.99391 23.1162 10.5049C22.8998 10.6142 22.6543 10.6522 22.4149 10.6136C22.1755 10.575 21.9544 10.4617 21.7832 10.2899C21.6953 10.201 21.6206 10.1 21.5612 9.98991C21.4496 9.77127 21.4109 9.52262 21.4509 9.28039C21.4908 9.03817 21.6073 8.81511 21.7832 8.64391C21.8568 8.5668 21.9431 8.50288 22.0382 8.45491L22.0882 8.42191C22.0962 8.41391 22.1212 8.40591 22.1292 8.39691L22.1542 8.38891C23.2482 7.85391 24.2522 7.37591 25.2152 6.95691C25.2312 6.94493 25.2479 6.93391 25.2652 6.92391H25.2822C25.5627 6.80975 25.876 6.80659 26.1587 6.91505C26.4413 7.02351 26.6722 7.23547 26.8042 7.50791C26.8995 7.72299 26.9283 7.96158 26.8872 8.19317C26.846 8.42475 26.7367 8.63879 26.5732 8.80791C26.4702 8.91348 26.3471 8.99745 26.2112 9.05491" fill="#BF5E28"/>
    <path d="M52.5423 2.42862C51.4233 2.49462 50.2793 2.58562 49.1423 2.70062C48.9709 2.72079 48.7973 2.70155 48.6345 2.64435C48.4718 2.58716 48.3243 2.49353 48.2033 2.37062C48.0099 2.18565 47.8899 1.93706 47.8653 1.67062C47.8445 1.49555 47.8651 1.31805 47.9254 1.15238C47.9856 0.9867 48.0839 0.837455 48.2123 0.716617C48.3958 0.526675 48.642 0.409776 48.9053 0.387617C50.0493 0.264617 51.2093 0.174617 52.3453 0.108617L52.4363 0.0996166C52.7379 0.0985675 53.0289 0.211178 53.2513 0.415024C53.4737 0.61887 53.6111 0.898995 53.6363 1.19962C53.6505 1.50744 53.5431 1.80853 53.3373 2.0379C53.1315 2.26726 52.8438 2.40652 52.5363 2.42562" fill="#BF5E28"/>
    <path d="M8.53125 19.4621C7.62425 20.1181 6.72425 20.8251 5.84825 21.5331L5.82425 21.5621C5.59896 21.7405 5.31599 21.8298 5.02912 21.8133C4.74226 21.7967 4.47148 21.6753 4.26825 21.4721L4.17825 21.3821C3.98523 21.1395 3.89639 20.8302 3.93125 20.5221C3.96485 20.2169 4.11495 19.9364 4.35025 19.7391C5.33725 18.9491 6.21025 18.2741 7.08225 17.6321L7.13225 17.5831L7.17425 17.5621C7.41398 17.4051 7.70301 17.3417 7.98645 17.3838C8.26989 17.4259 8.52799 17.5706 8.71172 17.7905C8.89546 18.0104 8.99203 18.2901 8.98309 18.5765C8.97416 18.863 8.86034 19.1361 8.66325 19.3441C8.62225 19.3851 8.57325 19.4181 8.53125 19.4591" fill="#BF5E28"/>
    <path d="M20.0791 12.0761C19.0901 12.6181 18.0791 13.1871 17.0911 13.7631C16.8688 13.8948 16.6088 13.9486 16.3525 13.9158C16.0961 13.883 15.8581 13.7655 15.6761 13.5821C15.6074 13.5124 15.5467 13.4352 15.4951 13.3521C15.3666 13.1286 15.3147 12.8693 15.3474 12.6136C15.3801 12.358 15.4955 12.12 15.6761 11.9361C15.7481 11.8685 15.8284 11.8104 15.9151 11.7631C16.9191 11.1711 17.9381 10.5981 18.9681 10.0261C19.2427 9.88816 19.5598 9.86086 19.8539 9.94979C20.148 10.0387 20.3969 10.2371 20.5491 10.5041C20.6666 10.7231 20.7107 10.9741 20.6747 11.2201C20.6386 11.4661 20.5245 11.6939 20.3491 11.8701C20.2699 11.9528 20.1781 12.0223 20.0771 12.0761" fill="#BF5E28"/>
    <path d="M14.1784 15.5579C13.2234 16.1669 12.2604 16.8009 11.3134 17.4499C11.0909 17.6071 10.8198 17.6803 10.5484 17.6563C10.277 17.6323 10.0229 17.5127 9.83142 17.3189C9.78334 17.2675 9.73952 17.2123 9.70042 17.1539C9.54361 16.9314 9.47073 16.6605 9.49471 16.3894C9.5187 16.1182 9.63799 15.8644 9.83142 15.6729C9.88182 15.6234 9.9371 15.5792 9.99642 15.5409C11.0254 14.8259 11.9894 14.1929 12.9194 13.5919C13.1807 13.435 13.4921 13.3842 13.7897 13.4499C14.0873 13.5155 14.3484 13.6926 14.5194 13.9449C14.6643 14.1668 14.7287 14.4318 14.7018 14.6955C14.6748 14.9593 14.5582 15.2058 14.3714 15.3939C14.3089 15.4537 14.242 15.5088 14.1714 15.5589" fill="#BF5E28"/>
    <path d="M104.151 20.3421C103.946 20.5477 103.671 20.6686 103.381 20.6808C103.092 20.6931 102.808 20.5957 102.587 20.4081C101.715 19.6831 100.818 18.9671 99.9196 18.2841C99.8786 18.2431 99.8376 18.2181 99.8046 18.1841C99.6068 17.9824 99.4873 17.7167 99.4677 17.4348C99.4481 17.153 99.5296 16.8733 99.6976 16.6461L99.8046 16.5391C100.002 16.3365 100.268 16.2143 100.551 16.1958C100.834 16.1773 101.113 16.264 101.336 16.4391C102.242 17.1321 103.165 17.8731 104.065 18.6131C104.183 18.7101 104.281 18.8294 104.353 18.9643C104.425 19.0991 104.469 19.2468 104.484 19.399C104.499 19.5511 104.484 19.7046 104.439 19.8509C104.395 19.9971 104.322 20.1331 104.225 20.2511C104.204 20.2846 104.18 20.3159 104.151 20.3421Z" fill="#BF5E28"/>
    <path d="M92.8842 12.3321C92.6976 12.5113 92.4578 12.6251 92.201 12.6563C91.9442 12.6875 91.6842 12.6345 91.4602 12.5051C90.5712 11.9621 89.6812 11.4511 88.8172 10.9821L88.4942 10.8091C88.3992 10.7526 88.311 10.6855 88.2312 10.6091C88.0554 10.4302 87.9415 10.1997 87.9062 9.95136C87.8709 9.70302 87.9161 9.44991 88.0352 9.22913C88.0842 9.13436 88.1484 9.04823 88.2252 8.97413C88.4015 8.79059 88.6337 8.67078 88.8855 8.63349C89.1372 8.59621 89.3942 8.64356 89.6162 8.76813C90.6452 9.32113 91.6652 9.91213 92.6702 10.5051C92.8218 10.5971 92.9505 10.7225 93.0464 10.8718C93.1422 11.021 93.2028 11.1902 93.2234 11.3664C93.2441 11.5425 93.2242 11.7211 93.1654 11.8885C93.1067 12.0558 93.0104 12.2076 92.8842 12.3321Z" fill="#BF5E28"/>
    <path d="M98.6533 16.1245C98.46 16.3162 98.2048 16.4329 97.9334 16.454C97.662 16.475 97.3919 16.399 97.1713 16.2395C96.2263 15.5755 95.2793 14.9235 94.3563 14.3135C94.2862 14.2709 94.2225 14.2183 94.1673 14.1575C93.9792 13.969 93.8612 13.7218 93.8328 13.457C93.8044 13.1922 93.8674 12.9257 94.0113 12.7015C94.0565 12.6376 94.1059 12.5768 94.1593 12.5195C94.3506 12.3297 94.6009 12.2107 94.8689 12.1824C95.1369 12.154 95.4066 12.2179 95.6333 12.3635C96.5963 12.9975 97.5673 13.6755 98.5263 14.3475C98.7761 14.5274 98.9448 14.7986 98.9956 15.1023C99.0463 15.4059 98.9751 15.7172 98.7973 15.9685C98.7602 16.0284 98.7128 16.0812 98.6573 16.1245" fill="#BF5E28"/>
    <path d="M86.8183 9.01495C86.6465 9.18821 86.4253 9.30416 86.1851 9.34694C85.9449 9.38972 85.6973 9.35724 85.4763 9.25395C84.4403 8.74495 83.3933 8.25395 82.3813 7.82195C82.2448 7.76455 82.1214 7.6802 82.0183 7.57395C81.8539 7.40862 81.7429 7.19775 81.6998 6.96864C81.6566 6.73953 81.6833 6.50274 81.7763 6.28895C81.8368 6.15597 81.9185 6.03371 82.0183 5.92695C82.1839 5.76338 82.3943 5.65268 82.6229 5.60888C82.8515 5.56508 83.088 5.59017 83.3023 5.68095C84.3563 6.14095 85.4263 6.63495 86.4873 7.15395C86.7611 7.29098 86.9709 7.52907 87.0724 7.81792C87.1739 8.10677 87.1591 8.42376 87.0313 8.70195C86.9786 8.81788 86.9062 8.92379 86.8173 9.01495" fill="#BF5E28"/>
    <path d="M59.3418 2.39956C58.2058 2.35056 57.0618 2.32556 55.9418 2.32556C55.7877 2.32712 55.6347 2.29805 55.4919 2.24002C55.3491 2.182 55.2192 2.09618 55.1098 1.98756C54.9457 1.82581 54.8334 1.61887 54.7872 1.39309C54.741 1.16731 54.7631 0.932894 54.8506 0.719702C54.9381 0.506509 55.0871 0.324182 55.2786 0.195937C55.4701 0.0676913 55.6954 -0.000670198 55.9258 -0.000443214C57.1358 -0.00844321 58.3128 0.0155568 59.4498 0.0665568C59.7562 0.0930109 60.0414 0.234223 60.2481 0.461924C60.4549 0.689625 60.568 0.987013 60.5648 1.29456C60.5451 1.58135 60.4259 1.85227 60.2278 2.06056C60.1132 2.17597 59.9755 2.26571 59.8236 2.32381C59.6717 2.38191 59.5092 2.40705 59.3468 2.39756" fill="#BF5E28"/>
    <path d="M109.353 24.9012C109.141 25.1166 108.853 25.2412 108.551 25.2489C108.248 25.2565 107.955 25.1466 107.732 24.9422C106.859 24.1202 105.999 23.3452 105.199 22.6382L105.139 22.5812C104.93 22.3708 104.808 22.0889 104.799 21.7924C104.79 21.4959 104.894 21.207 105.09 20.9842L105.131 20.9432C105.341 20.7312 105.624 20.6072 105.922 20.5965C106.22 20.5857 106.511 20.689 106.736 20.8852C107.591 21.6412 108.464 22.4322 109.321 23.2392L109.345 23.2632C109.563 23.473 109.688 23.7606 109.695 24.0629C109.701 24.3652 109.587 24.6577 109.378 24.8762L109.353 24.9012Z" fill="#BF5E28"/>
    <path d="M80.4616 6.28249C80.3024 6.44241 80.1006 6.55325 79.8803 6.60183C79.6599 6.6504 79.4303 6.63467 79.2186 6.55649C78.1646 6.15649 77.0866 5.77149 76.0086 5.43449C75.8321 5.37612 75.6715 5.27753 75.5396 5.14649C75.39 4.99421 75.2843 4.80445 75.2334 4.59715C75.1826 4.38986 75.1885 4.1727 75.2506 3.96849C75.3094 3.79217 75.408 3.63172 75.5386 3.49949C75.6893 3.34758 75.8791 3.24029 76.087 3.18947C76.2949 3.13864 76.5128 3.14627 76.7166 3.21149C77.8106 3.56549 78.9006 3.95649 79.9756 4.34749C79.9985 4.35038 80.0211 4.35609 80.0426 4.36449L80.1236 4.39649L80.1156 4.40449C80.3796 4.53124 80.5877 4.75075 80.7002 5.02114C80.8127 5.29153 80.8218 5.59387 80.7256 5.87049C80.6685 6.02532 80.5784 6.16589 80.4616 6.28249Z" fill="#BF5E28"/>
    <path d="M67.0861 2.76607C66.9575 2.89189 66.8013 2.98584 66.6299 3.04037C66.4585 3.0949 66.2767 3.1085 66.0991 3.08007C65.0291 2.91507 63.8991 2.77507 62.7571 2.65207H62.7241C62.4581 2.6259 62.21 2.50612 62.0241 2.31407C61.9011 2.19267 61.8064 2.0457 61.7466 1.8836C61.6868 1.7215 61.6634 1.54823 61.6781 1.37607C61.7127 1.10833 61.8347 0.859472 62.0251 0.668075C62.1475 0.547382 62.295 0.455219 62.4572 0.398172C62.6193 0.341125 62.7921 0.320604 62.9631 0.338075C64.1561 0.462075 65.3331 0.602075 66.4531 0.783075C66.7548 0.839097 67.0236 1.00859 67.2042 1.25672C67.3848 1.50484 67.4635 1.81273 67.4241 2.11707C67.3862 2.36481 67.2674 2.59303 67.0861 2.76607Z" fill="#BF5E28"/>
    <path d="M73.8774 4.17502C73.7321 4.31948 73.5514 4.42323 73.3535 4.47588C73.1555 4.52853 72.9472 4.52824 72.7494 4.47502C71.6547 4.18969 70.5517 3.92869 69.4404 3.69202C69.2201 3.65267 69.0166 3.54817 68.8564 3.39202C68.7164 3.25432 68.614 3.08297 68.5592 2.89439C68.5044 2.70581 68.499 2.50632 68.5434 2.31502C68.5828 2.09941 68.6875 1.90112 68.8434 1.74702C68.9779 1.60381 69.1474 1.49814 69.3352 1.44044C69.523 1.38275 69.7226 1.37502 69.9144 1.41802C71.0504 1.64802 72.2024 1.92802 73.3384 2.22502C73.6312 2.31545 73.8788 2.51344 74.0315 2.77913C74.1842 3.04483 74.2306 3.3585 74.1614 3.65702C74.114 3.85287 74.0145 4.03222 73.8734 4.17602" fill="#BF5E28"/>
    <path d="M104.313 27.9186C104.159 27.8942 104.011 27.839 103.878 27.7563C103.746 27.6737 103.631 27.5652 103.542 27.4373C103.452 27.3095 103.389 27.1649 103.356 27.0122C103.323 26.8595 103.322 26.7017 103.351 26.5483C103.38 26.3949 103.44 26.249 103.527 26.1193C103.614 25.9895 103.727 25.8786 103.857 25.7931C103.988 25.7076 104.134 25.6492 104.288 25.6215C104.442 25.5937 104.6 25.5972 104.752 25.6316L109.867 26.6156C109.846 26.4444 109.864 26.2706 109.92 26.1075C109.976 25.9443 110.068 25.7959 110.19 25.6736C110.328 25.5315 110.5 25.4279 110.69 25.3728C110.88 25.3177 111.082 25.3132 111.274 25.3596L110.352 20.0056C110.326 19.8549 110.33 19.7006 110.363 19.5514C110.397 19.4022 110.46 19.2611 110.548 19.1361C110.726 18.8837 110.997 18.7123 111.301 18.6596C111.605 18.607 111.918 18.6774 112.171 18.8554C112.423 19.0333 112.594 19.3043 112.647 19.6086L114.42 29.8626L104.313 27.9186Z" fill="#BF5E28"/>
    </g>
    </g>
    <defs>
    <clipPath id="clip0_696_27">
    <rect width="114.419" height="29.864" fill="white"/>
    </clipPath>
    </defs>
    </svg>
    