<svg width="115" height="30" viewBox="0 0 115 30" fill="none" xmlns="http://www.w3.org/2000/svg">
    <g clip-path="url(#clip0_696_2)">
    <mask id="mask0_696_2" style="mask-type:luminance" maskUnits="userSpaceOnUse" x="0" y="0" width="115" height="30">
    <path d="M114.419 0H0V29.864H114.419V0Z" fill="white"/>
    </mask>
    <g mask="url(#mask0_696_2)">
    <path d="M3.46537 7.53847C3.59195 7.30922 3.63694 7.04379 3.59297 6.78563C3.54901 6.52748 3.41869 6.2919 3.22337 6.11747L3.21537 6.10947L3.20037 6.09847C2.40937 5.39847 1.98937 4.98447 1.97737 4.97247C1.75862 4.75734 1.46373 4.63737 1.15693 4.63868C0.850124 4.63999 0.556269 4.76248 0.339368 4.97947L0.332368 4.98647C0.225182 5.09532 0.140492 5.22422 0.0831341 5.36581C0.0257766 5.5074 -0.00312404 5.6589 -0.00191681 5.81166C-0.000709579 5.96442 0.0305818 6.11545 0.0901699 6.25611C0.149758 6.39678 0.236475 6.52433 0.345368 6.63147C0.345368 6.63147 0.791368 7.07047 1.64537 7.83147C1.65337 7.83947 1.65937 7.84847 1.66737 7.85547C1.72766 7.90749 1.79298 7.95339 1.86237 7.99247C2.0942 8.12827 2.36613 8.17901 2.63134 8.13593C2.89654 8.09286 3.13843 7.95867 3.31537 7.75647C3.36635 7.69868 3.41157 7.63605 3.45037 7.56947C3.45537 7.56147 3.45837 7.55147 3.46237 7.54347" fill="#BF5E28"/>
    <path d="M45.7688 26.7153C44.6578 26.5263 43.5298 26.3153 42.4188 26.0983C42.2288 26.0611 42.0325 26.0709 41.8472 26.1271C41.6619 26.1832 41.4932 26.2839 41.3558 26.4203C41.2004 26.5798 41.0921 26.7792 41.0428 26.9963C41.0024 27.1885 41.0106 27.3878 41.0667 27.576C41.1227 27.7642 41.2249 27.9355 41.3638 28.0743C41.5278 28.2258 41.7301 28.3295 41.9488 28.3743C43.0758 28.6133 44.2368 28.8183 45.4068 28.9993C45.709 29.0412 46.0158 28.9654 46.2638 28.7878C46.5118 28.6101 46.6822 28.3439 46.7398 28.0443C46.7709 27.8602 46.7573 27.6713 46.7 27.4936C46.6428 27.3159 46.5435 27.1546 46.4108 27.0233C46.2341 26.8553 46.0099 26.746 45.7688 26.7103" fill="#BF5E28"/>
    <path d="M32.565 23.3437C31.528 22.9817 30.482 22.5957 29.365 22.1497C29.1535 22.0639 28.9215 22.0423 28.6978 22.0875C28.4741 22.1326 28.2687 22.2426 28.107 22.4037C27.9983 22.516 27.9115 22.6476 27.851 22.7917C27.7665 23.0049 27.7472 23.2384 27.7956 23.4625C27.8441 23.6867 27.958 23.8914 28.123 24.0507C28.2315 24.1634 28.3637 24.2505 28.51 24.3057C29.58 24.7337 30.691 25.1537 31.793 25.5497C32.0858 25.6448 32.4042 25.6224 32.6807 25.4871C32.9573 25.3518 33.1704 25.1143 33.275 24.8247C33.3485 24.6181 33.3619 24.3948 33.3138 24.1809C33.2657 23.9669 33.1579 23.7709 33.003 23.6157C32.8771 23.4971 32.7289 23.4046 32.567 23.3437" fill="#BF5E28"/>
    <path d="M39.0921 25.3284C38.0051 25.0484 36.9031 24.7514 35.8241 24.4144H35.8081C35.5614 24.3403 35.297 24.3502 35.0565 24.4426C34.8159 24.535 34.6129 24.7047 34.4793 24.9249C34.3456 25.1452 34.2889 25.4037 34.318 25.6597C34.3471 25.9157 34.4604 26.1548 34.6401 26.3394C34.7128 26.4108 34.793 26.4741 34.8791 26.5284H34.7311L35.1841 26.6514C36.2951 26.9894 37.4231 27.3104 38.5261 27.5894C38.8247 27.6562 39.1376 27.6054 39.3996 27.4475C39.6617 27.2895 39.8528 27.0366 39.9331 26.7414C39.9813 26.5477 39.979 26.3449 39.9265 26.1523C39.874 25.9597 39.773 25.7838 39.6331 25.6414C39.482 25.4923 39.295 25.3845 39.0901 25.3284" fill="#BF5E28"/>
    <path d="M26.2118 20.8071C25.1998 20.3541 24.1538 19.8691 23.1168 19.3581C22.9005 19.2487 22.655 19.2105 22.4156 19.2489C22.1762 19.2873 21.9551 19.4005 21.7838 19.5721C21.6959 19.661 21.6212 19.762 21.5618 19.8721C21.4511 20.0903 21.413 20.3381 21.4529 20.5795C21.4928 20.8209 21.6088 21.0432 21.7838 21.2141C21.8574 21.2912 21.9437 21.3551 22.0388 21.4031L22.0878 21.4361C22.0958 21.4441 22.1208 21.4521 22.1288 21.4611L22.1538 21.4691C23.2488 22.0041 24.2538 22.4811 25.2158 22.9011C25.2318 22.9131 25.2485 22.9241 25.2658 22.9341H25.2828C25.5306 23.0419 25.8082 23.06 26.0679 22.9853C26.3276 22.9106 26.5532 22.7479 26.706 22.525C26.8587 22.3021 26.9291 22.0329 26.905 21.7638C26.8809 21.4947 26.7638 21.2423 26.5738 21.0501C26.4708 20.9445 26.3477 20.8606 26.2118 20.8031" fill="#BF5E28"/>
    <path d="M52.5425 27.4341C51.4235 27.3681 50.2795 27.2771 49.1425 27.1621C48.9711 27.1419 48.7975 27.1611 48.6347 27.2183C48.472 27.2755 48.3245 27.3692 48.2035 27.4921C48.0101 27.677 47.8901 27.9256 47.8655 28.1921C47.8444 28.3672 47.8648 28.5449 47.9249 28.7107C47.985 28.8766 48.0831 29.026 48.2115 29.1471C48.3948 29.3368 48.6406 29.4537 48.9035 29.4761C50.0475 29.5991 51.2035 29.6901 52.3445 29.7561L52.4345 29.7641C52.7361 29.7651 53.0271 29.6525 53.2495 29.4487C53.4719 29.2448 53.6093 28.9647 53.6345 28.6641C53.6487 28.3562 53.5413 28.0552 53.3355 27.8258C53.1297 27.5964 52.842 27.4572 52.5345 27.4381" fill="#BF5E28"/>
    <path d="M8.53186 10.4048C7.63186 9.74582 6.72086 9.03883 5.84886 8.33083L5.82386 8.30582C5.59857 8.12747 5.3156 8.0381 5.02873 8.05469C4.74186 8.07128 4.47109 8.19268 4.26786 8.39582L4.17786 8.48582C3.98586 8.72742 3.89708 9.03508 3.93086 9.34182C3.96446 9.64705 4.11455 9.92754 4.34986 10.1248C5.33786 10.9148 6.20986 11.5898 7.08286 12.2318L7.13186 12.2808L7.17386 12.3048C7.41373 12.4667 7.70512 12.5339 7.99164 12.4933C8.27817 12.4527 8.53946 12.3073 8.72498 12.0853C8.91049 11.8632 9.00704 11.5801 8.99593 11.291C8.98483 11.0018 8.86686 10.727 8.66486 10.5198C8.62386 10.4788 8.57386 10.4458 8.53186 10.4048Z" fill="#BF5E28"/>
    <path d="M20.0762 17.787C19.0872 17.245 18.0762 16.676 17.0882 16.1C16.8657 15.968 16.6056 15.9141 16.349 15.9469C16.0925 15.9797 15.8542 16.0973 15.6722 16.281C15.6035 16.3507 15.5428 16.4278 15.4912 16.511C15.3627 16.7344 15.3108 16.9937 15.3435 17.2494C15.3762 17.5051 15.4916 17.743 15.6722 17.927C15.7442 17.9945 15.8245 18.0526 15.9112 18.1C16.9112 18.692 17.9362 19.269 18.9652 19.837C19.2397 19.975 19.5566 20.0024 19.8508 19.9137C20.1449 19.8249 20.3938 19.6268 20.5462 19.36C20.6637 19.1409 20.7078 18.8899 20.6717 18.6439C20.6357 18.398 20.5216 18.1701 20.3462 17.994C20.267 17.9113 20.1752 17.8418 20.0742 17.788" fill="#BF5E28"/>
    <path d="M14.1778 14.3056C13.2228 13.6966 12.2598 13.0626 11.3128 12.4136C11.0904 12.2566 10.8195 12.1836 10.5483 12.2076C10.2771 12.2316 10.0232 12.351 9.83184 12.5446C9.78375 12.596 9.73994 12.6511 9.70084 12.7096C9.54376 12.9322 9.47072 13.2033 9.49471 13.4746C9.51869 13.746 9.63815 14 9.83184 14.1916C9.88223 14.2411 9.93751 14.2853 9.99684 14.3236C11.0258 15.0396 11.9898 15.6726 12.9198 16.2736C13.1811 16.4304 13.4925 16.4813 13.7901 16.4156C14.0877 16.3499 14.3488 16.1728 14.5198 15.9206C14.6648 15.6986 14.7291 15.4337 14.7022 15.1699C14.6752 14.9062 14.5586 14.6597 14.3718 14.4716C14.3093 14.4118 14.2424 14.3567 14.1718 14.3066" fill="#BF5E28"/>
    <path d="M104.151 9.5214C103.946 9.31584 103.672 9.1949 103.382 9.18267C103.092 9.17044 102.808 9.26781 102.587 9.4554C101.715 10.1794 100.817 10.8964 99.92 11.5794C99.879 11.6204 99.838 11.6454 99.805 11.6794C99.6069 11.8812 99.4873 12.1471 99.4677 12.4292C99.4481 12.7113 99.5297 12.9911 99.698 13.2184L99.805 13.3254C100.003 13.528 100.269 13.6503 100.551 13.6687C100.834 13.6872 101.113 13.6005 101.336 13.4254C102.242 12.7344 103.163 11.9934 104.069 11.2524C104.187 11.1551 104.284 11.0356 104.356 10.9006C104.428 10.7656 104.472 10.6178 104.486 10.4657C104.501 10.3136 104.485 10.1601 104.44 10.014C104.396 9.86797 104.322 9.73217 104.225 9.6144C104.205 9.58095 104.18 9.55063 104.151 9.5244" fill="#BF5E28"/>
    <path d="M92.8848 17.5302C92.6982 17.351 92.4585 17.2372 92.2017 17.206C91.9449 17.1748 91.6849 17.2278 91.4608 17.3572C90.5718 17.9002 89.6818 18.4112 88.8188 18.8802L88.4978 19.0532C88.4029 19.1097 88.3146 19.1768 88.2348 19.2532C88.0577 19.4318 87.9426 19.6627 87.9066 19.9117C87.8706 20.1607 87.9155 20.4146 88.0348 20.6362C88.0835 20.7309 88.1474 20.817 88.2238 20.8912C88.4001 21.0747 88.6324 21.1945 88.8841 21.2318C89.1359 21.2691 89.3929 21.2217 89.6148 21.0972C90.6438 20.5462 91.6648 19.9532 92.6688 19.3602C92.8205 19.2681 92.9491 19.1427 93.045 18.9935C93.1409 18.8443 93.2014 18.6751 93.2221 18.4989C93.2427 18.3228 93.2229 18.1442 93.1641 17.9768C93.1053 17.8095 93.0091 17.6577 92.8828 17.5332" fill="#BF5E28"/>
    <path d="M98.6533 13.7372C98.46 13.5455 98.2049 13.4288 97.9334 13.4077C97.662 13.3867 97.3919 13.4627 97.1713 13.6222C96.2253 14.2882 95.2793 14.9382 94.3563 15.5482C94.2862 15.5909 94.2225 15.6434 94.1673 15.7042C93.9792 15.8927 93.8612 16.1399 93.8328 16.4047C93.8044 16.6695 93.8674 16.9361 94.0113 17.1602C94.0561 17.2241 94.1052 17.2849 94.1583 17.3422C94.3496 17.5321 94.5999 17.651 94.8679 17.6794C95.1359 17.7077 95.4056 17.6438 95.6323 17.4982C96.5953 16.8642 97.5663 16.1892 98.5213 15.5142C98.7712 15.3343 98.9398 15.0631 98.9906 14.7595C99.0413 14.4559 98.9701 14.1445 98.7923 13.8932C98.7552 13.8334 98.7078 13.7806 98.6523 13.7372" fill="#BF5E28"/>
    <path d="M86.8176 20.8425C86.6458 20.6693 86.4246 20.5533 86.1844 20.5105C85.9442 20.4677 85.6966 20.5002 85.4755 20.6035C84.4395 21.1125 83.3925 21.6035 82.3805 22.0355C82.2441 22.0929 82.1206 22.1773 82.0175 22.2835C81.8525 22.4482 81.7408 22.6586 81.6967 22.8876C81.6527 23.1165 81.6784 23.3534 81.7706 23.5675C81.8326 23.7008 81.916 23.8231 82.0175 23.9295C82.183 24.0933 82.3934 24.2041 82.622 24.2481C82.8506 24.2921 83.0871 24.2672 83.3015 24.1765C84.3555 23.7155 85.4256 23.2215 86.4866 22.7035C86.7603 22.5665 86.9701 22.3284 87.0716 22.0396C87.1732 21.7507 87.1584 21.4337 87.0305 21.1555C86.9779 21.0396 86.9055 20.9337 86.8166 20.8425" fill="#BF5E28"/>
    <path d="M59.3417 27.4639C58.2057 27.5129 57.0617 27.5379 55.9417 27.5379C55.7875 27.5363 55.6346 27.5654 55.4918 27.6234C55.349 27.6814 55.2191 27.7673 55.1097 27.8759C54.947 28.0378 54.8359 28.2443 54.7905 28.4693C54.7451 28.6943 54.7674 28.9277 54.8547 29.14C54.9419 29.3524 55.0901 29.5341 55.2805 29.6622C55.471 29.7903 55.6952 29.8591 55.9247 29.8599C57.1347 29.8679 58.3117 29.8439 59.4487 29.7929C59.7542 29.7655 60.0382 29.624 60.2441 29.3966C60.45 29.1692 60.5627 28.8726 60.5597 28.5659C60.54 28.2791 60.4208 28.0082 60.2227 27.7999C60.1081 27.6845 59.9703 27.5947 59.8184 27.5366C59.6665 27.4785 59.504 27.4544 59.3417 27.4639Z" fill="#BF5E28"/>
    <path d="M109.353 4.96323C109.141 4.74787 108.853 4.62326 108.551 4.61561C108.249 4.60796 107.955 4.71788 107.732 4.92223C106.86 5.74423 106.003 6.52223 105.198 7.22223L105.14 7.28023C104.93 7.49078 104.808 7.77335 104.799 8.07054C104.79 8.36773 104.895 8.65724 105.091 8.88023L105.132 8.92123C105.342 9.13322 105.625 9.25722 105.923 9.26799C106.222 9.27877 106.513 9.17551 106.737 8.97923C107.592 8.22323 108.465 7.43223 109.322 6.62523L109.346 6.60123C109.564 6.39142 109.69 6.10387 109.696 5.80155C109.702 5.49923 109.588 5.20678 109.379 4.98823L109.353 4.96323Z" fill="#BF5E28"/>
    <path d="M80.4618 23.5818C80.3024 23.4222 80.1005 23.3118 79.8802 23.2636C79.6598 23.2153 79.4303 23.2314 79.2188 23.3098C78.1648 23.7098 77.0858 24.0928 76.0078 24.4298C75.7141 24.5251 75.4698 24.7324 75.3281 25.0067C75.1863 25.281 75.1585 25.6001 75.2508 25.8948C75.3096 26.0711 75.4082 26.2316 75.5388 26.3638C75.6895 26.5156 75.8791 26.6227 76.0868 26.6736C76.2944 26.7244 76.5121 26.7169 76.7158 26.6518C77.8108 26.2978 78.9048 25.9108 79.9748 25.5158C79.9977 25.5129 80.0203 25.5072 80.0418 25.4988L80.1228 25.4668L80.1148 25.4588C80.3788 25.3321 80.5869 25.1126 80.6994 24.8422C80.8119 24.5718 80.821 24.2694 80.7248 23.9928C80.6676 23.838 80.5776 23.6974 80.4608 23.5808" fill="#BF5E28"/>
    <path d="M67.0861 27.096C66.9575 26.9702 66.8013 26.8763 66.6299 26.8217C66.4585 26.7672 66.2767 26.7536 66.0991 26.782C65.0291 26.947 63.8991 27.087 62.7571 27.21H62.7241C62.4581 27.2362 62.21 27.356 62.0241 27.548C61.9011 27.6694 61.8064 27.8164 61.7466 27.9785C61.6868 28.1406 61.6634 28.3139 61.6781 28.486C61.7124 28.7537 61.834 29.0025 62.0241 29.194C62.1466 29.3146 62.2941 29.4065 62.4563 29.4634C62.6184 29.5203 62.7912 29.5406 62.9621 29.523C64.1561 29.399 65.3331 29.259 66.4521 29.078C66.7536 29.022 67.0223 28.8527 67.2028 28.6048C67.3834 28.3569 67.4622 28.0492 67.4231 27.745C67.3852 27.4973 67.2664 27.2691 67.0851 27.096" fill="#BF5E28"/>
    <path d="M73.878 25.6897C73.7328 25.5453 73.5521 25.4415 73.3542 25.3889C73.1562 25.3362 72.9478 25.3365 72.75 25.3897C71.6554 25.6777 70.5523 25.9411 69.441 26.1797C69.2207 26.2191 69.0173 26.3236 68.857 26.4797C68.7182 26.6168 68.6165 26.7869 68.5618 26.9742C68.507 27.1614 68.5009 27.3595 68.544 27.5497C68.5834 27.7654 68.6882 27.9636 68.844 28.1177C68.9784 28.2608 69.1478 28.3664 69.3354 28.424C69.523 28.4817 69.7225 28.4896 69.914 28.4467C71.05 28.2167 72.202 27.9367 73.338 27.6397C73.6308 27.5493 73.8785 27.3513 74.0312 27.0856C74.1839 26.8199 74.2303 26.5063 74.161 26.2077C74.1137 26.0119 74.0141 25.8325 73.873 25.6887" fill="#BF5E28"/>
    <path d="M104.315 1.945C104.161 1.96941 104.013 2.0246 103.88 2.10728C103.748 2.18996 103.633 2.29844 103.544 2.42628C103.454 2.55412 103.391 2.6987 103.358 2.85143C103.325 3.00415 103.323 3.1619 103.353 3.3153C103.382 3.4687 103.442 3.61461 103.529 3.74435C103.616 3.8741 103.728 3.98503 103.859 4.07055C103.99 4.15607 104.136 4.21444 104.29 4.24217C104.444 4.26991 104.602 4.26645 104.754 4.232L109.873 3.247C109.852 3.41823 109.87 3.59199 109.926 3.75517C109.982 3.91835 110.074 4.0667 110.196 4.189C110.334 4.33108 110.506 4.43477 110.696 4.48984C110.886 4.54491 111.088 4.54944 111.28 4.503L110.354 9.858C110.301 10.1623 110.371 10.4753 110.549 10.728C110.726 10.9807 110.997 11.1525 111.301 11.2055C111.606 11.2585 111.919 11.1885 112.171 11.0108C112.424 10.8331 112.596 10.5623 112.649 10.258L114.415 0L104.315 1.945Z" fill="#BF5E28"/>
    </g>
    </g>
    <defs>
    <clipPath id="clip0_696_2">
    <rect width="114.419" height="29.864" fill="white"/>
    </clipPath>
    </defs>
    </svg>
    