<svg width="66" height="73" viewBox="0 0 66 73" fill="none" xmlns="http://www.w3.org/2000/svg">
    <g clip-path="url(#clip0_697_52)">
    <path d="M35.7905 28.11H58.9405C60.3105 28.11 61.4205 27 61.4205 25.63V2.48C61.4205 1.11 60.3105 0 58.9405 0H35.7905C34.4205 0 33.3105 1.11 33.3105 2.48V25.63C33.3105 27 34.4205 28.11 35.7905 28.11ZM38.2705 23.15V4.96H56.4605V23.15H38.2705Z" fill="#BF5E28"/>
    <path d="M25.63 0H2.48C1.11 0 0 1.11 0 2.48V25.63C0 27 1.11 28.11 2.48 28.11H25.63C27 28.11 28.11 27 28.11 25.63V2.48C28.11 1.11 27 0 25.63 0ZM23.15 4.96V23.15H4.96V4.96H23.15Z" fill="#BF5E28"/>
    <path d="M25.63 33.3203H2.48C1.11 33.3203 0 34.4303 0 35.8003V58.9503C0 60.3203 1.11 61.4303 2.48 61.4303H25.63C27 61.4303 28.11 60.3203 28.11 58.9503V35.8003C28.11 34.4303 27 33.3203 25.63 33.3203ZM23.15 38.2703V56.4603H4.96V38.2703H23.15Z" fill="#BF5E28"/>
    <path d="M64.0698 54.1009C62.8398 51.9409 60.7398 50.3909 58.3098 49.8609L53.2298 48.7409V38.3409C53.2298 34.6409 50.2198 31.6309 46.5198 31.6309C42.8198 31.6309 39.8098 34.6409 39.8098 38.3409V47.3409C37.5298 47.9209 35.4798 49.2509 34.0098 51.1009C32.0398 53.5809 31.2598 56.7909 31.8598 59.8809C32.4198 63.9609 35.7298 71.4409 35.7698 71.5109C36.1698 72.4109 37.0598 72.9909 38.0398 72.9909H58.6498C59.6598 73.0009 60.5498 72.4009 60.9398 71.4709C61.1898 70.8709 63.4098 65.4709 64.7998 61.2209C65.5698 58.8509 65.3098 56.2609 64.0798 54.1009H64.0698ZM42.2898 60.3009C43.6598 60.3009 44.7698 59.1909 44.7698 57.8209V38.3409C44.7698 37.3709 45.5598 36.5809 46.5298 36.5809C47.4998 36.5809 48.2898 37.3709 48.2898 38.3409V50.7409C48.2898 51.9609 49.1998 53.0109 50.4398 53.2009L57.2598 54.7109C58.3398 54.9509 59.2398 55.6109 59.7798 56.5709C60.3298 57.5309 60.4398 58.6409 60.0998 59.7009C59.1598 62.5709 57.7898 66.0809 56.9998 68.0609H39.6998C38.9898 66.3309 37.1098 61.6109 36.7898 59.1809C36.7898 59.1209 36.7698 59.0609 36.7598 59.0109C36.4098 57.3109 36.8298 55.5609 37.9098 54.2009C38.4298 53.5509 39.0898 53.0109 39.8298 52.6309V57.8409C39.8298 59.2109 40.9398 60.3209 42.3098 60.3209L42.2898 60.3009Z" fill="#BF5E28"/>
    <path d="M49.1798 9.51094L46.4898 12.2009L45.5598 11.2709C44.5898 10.3009 43.0198 10.3009 42.0498 11.2709C41.0798 12.2409 41.0798 13.8109 42.0498 14.7809L44.7298 17.4609C45.1998 17.9309 45.8198 18.1909 46.4798 18.1909C47.1398 18.1909 47.7598 17.9309 48.2298 17.4609L52.6798 13.0109C53.6498 12.0409 53.6498 10.4709 52.6798 9.50094C51.7098 8.53094 50.1398 8.53094 49.1698 9.50094L49.1798 9.51094Z" fill="#BF5E28"/>
    </g>
    <defs>
    <clipPath id="clip0_697_52">
    <rect width="65.23" height="73" fill="white"/>
    </clipPath>
    </defs>
    </svg>
    