<svg width="73" height="73" viewBox="0 0 73 73" fill="none" xmlns="http://www.w3.org/2000/svg">
    <g clip-path="url(#clip0_698_61)">
    <path d="M67.79 31.2795C70.67 31.2795 73 28.9395 73 26.0695V22.4095C73 20.4895 71.95 18.7295 70.25 17.8195L37.74 0.309453C36.97 -0.100547 36.04 -0.100547 35.27 0.309453L2.75 17.8195C1.06 18.7295 0 20.4895 0 22.4095V26.0695C0 28.9495 2.34 31.2795 5.21 31.2795H7.82V57.3495H5.21C2.33 57.3495 0 59.6895 0 62.5595V67.7694C0 70.6494 2.34 72.9795 5.21 72.9795H67.78C70.66 72.9795 72.99 70.6394 72.99 67.7694V62.5595C72.99 59.6795 70.65 57.3495 67.78 57.3495H65.17V31.2795H67.78H67.79ZM5.21 22.4095L36.5 5.56945L67.79 22.4195V26.0795H5.21V22.4195V22.4095ZM39.11 57.3595V31.2895H46.93V57.3595H39.11ZM26.07 57.3595V31.2895H33.89V57.3595H26.07ZM13.04 31.2795H20.86V57.3495H13.04V31.2795ZM67.79 67.7895H5.21V62.5795H67.78V67.7895H67.79ZM59.97 57.3595H52.15V31.2895H59.97V57.3595Z" fill="#BF5E28"/>
    </g>
    <defs>
    <clipPath id="clip0_698_61">
    <rect width="73" height="73" fill="white"/>
    </clipPath>
    </defs>
    </svg>
    