
<svg xmlns="http://www.w3.org/2000/svg" xmlns:xlink="http://www.w3.org/1999/xlink" id="Group_74" data-name="Group 74" width="114.419" height="29.864" viewBox="0 0 114.419 29.864"><defs><clipPath id="clip-path"><rect id="Rectangle_58" data-name="Rectangle 58" width="114.419" height="29.864" fill="#399936"></rect></clipPath></defs><g id="Group_73" data-name="Group 73" clip-path="url(#clip-path)"><path id="Path_69" data-name="Path 69" d="M3.465,23.3a1.156,1.156,0,0,0-.242-1.421l-.008-.008L3.2,21.86c-.791-.7-1.211-1.114-1.223-1.126a1.163,1.163,0,0,0-1.638.007l-.007.007a1.163,1.163,0,0,0,.013,1.645s.446.439,1.3,1.2c.008.008.014.017.022.024a1.2,1.2,0,0,0,.195.137,1.155,1.155,0,0,0,1.453-.236,1.183,1.183,0,0,0,.135-.187l0,0c.005-.008.008-.018.012-.026" transform="translate(0 -15.762)" fill="#399936"></path><path id="Path_70" data-name="Path 70" d="M185.169,115.339c-1.111-.189-2.239-.4-3.35-.617a1.185,1.185,0,0,0-1.063.322,1.209,1.209,0,0,0-.313.576,1.181,1.181,0,0,0,.321,1.078,1.225,1.225,0,0,0,.585.3c1.127.239,2.288.444,3.458.625a1.191,1.191,0,0,0,1.333-.955,1.163,1.163,0,0,0-.329-1.021,1.183,1.183,0,0,0-.642-.313" transform="translate(-139.4 -88.623)" fill="#399936"></path><path id="Path_71" data-name="Path 71" d="M126.93,98.332c-1.037-.362-2.083-.748-3.2-1.194a1.163,1.163,0,0,0-1.258.254,1.259,1.259,0,0,0-.256.388,1.157,1.157,0,0,0,.272,1.259,1.054,1.054,0,0,0,.387.255c1.07.428,2.181.848,3.283,1.244a1.186,1.186,0,0,0,1.482-.725,1.161,1.161,0,0,0-.272-1.209,1.308,1.308,0,0,0-.436-.272" transform="translate(-94.366 -74.988)" fill="#399936"></path><path id="Path_72" data-name="Path 72" d="M155.676,108.112c-1.087-.28-2.189-.577-3.268-.914h-.016a1.163,1.163,0,0,0-1.168,1.925,1.427,1.427,0,0,0,.239.189h-.148l.453.123c1.111.338,2.239.659,3.342.938a1.189,1.189,0,0,0,1.407-.848,1.168,1.168,0,0,0-.3-1.1,1.239,1.239,0,0,0-.543-.313" transform="translate(-116.584 -82.784)" fill="#399936"></path><path id="Path_73" data-name="Path 73" d="M99.068,86.172c-1.012-.453-2.058-.938-3.095-1.449a1.15,1.15,0,0,0-1.333.214,1.312,1.312,0,0,0-.222.3,1.149,1.149,0,0,0,.222,1.342.933.933,0,0,0,.255.189l.049.033c.008.008.033.016.041.025l.025.008c1.095.535,2.1,1.012,3.062,1.432a.509.509,0,0,0,.05.033h.017a1.163,1.163,0,0,0,1.291-1.884,1.11,1.11,0,0,0-.362-.247" transform="translate(-72.856 -65.364)" fill="#399936"></path><path id="Path_74" data-name="Path 74" d="M215.188,119.716c-1.119-.066-2.263-.157-3.4-.272a1.132,1.132,0,0,0-.939.33,1.11,1.11,0,0,0-.338.7,1.128,1.128,0,0,0,.346.955,1.091,1.091,0,0,0,.692.329c1.144.123,2.3.214,3.441.28l.09.008a1.2,1.2,0,0,0,1.2-1.1,1.174,1.174,0,0,0-1.1-1.226" transform="translate(-162.646 -92.282)" fill="#399936"></path><path id="Path_75" data-name="Path 75" d="M21.867,37.766c-.9-.659-1.811-1.366-2.683-2.074l-.025-.025a1.172,1.172,0,0,0-1.556.09l-.09.09a1.17,1.17,0,0,0-.247.856,1.192,1.192,0,0,0,.419.783c.988.79,1.86,1.465,2.733,2.107l.049.049.042.024A1.169,1.169,0,0,0,22,37.881c-.041-.041-.09-.074-.132-.115" transform="translate(-13.336 -27.362)" fill="#399936"></path><path id="Path_76" data-name="Path 76" d="M72.2,71.946c-.989-.542-2-1.111-2.988-1.687a1.16,1.16,0,0,0-1.416.181,1.318,1.318,0,0,0-.181.23,1.181,1.181,0,0,0,.181,1.416,1.169,1.169,0,0,0,.239.173c1,.592,2.025,1.169,3.054,1.737a1.2,1.2,0,0,0,1.581-.477,1.159,1.159,0,0,0-.2-1.366,1.077,1.077,0,0,0-.272-.206" transform="translate(-52.125 -54.159)" fill="#399936"></path><path id="Path_77" data-name="Path 77" d="M46.426,55.771c-.955-.609-1.918-1.243-2.865-1.892a1.15,1.15,0,0,0-1.481.131,1.292,1.292,0,0,0-.131.165,1.151,1.151,0,0,0,.131,1.482,1.044,1.044,0,0,0,.165.132c1.029.716,1.993,1.349,2.923,1.95a1.192,1.192,0,0,0,1.6-.353,1.158,1.158,0,0,0-.148-1.449,1.77,1.77,0,0,0-.2-.165" transform="translate(-32.248 -41.466)" fill="#399936"></path><path id="Path_78" data-name="Path 78" d="M442.178,40.73a1.154,1.154,0,0,0-1.564-.066c-.872.724-1.77,1.441-2.667,2.124-.041.041-.082.066-.115.1a1.188,1.188,0,0,0-.107,1.539l.107.107a1.148,1.148,0,0,0,1.531.1c.906-.691,1.827-1.432,2.733-2.173a1.163,1.163,0,0,0,.156-1.638.4.4,0,0,0-.074-.09" transform="translate(-338.027 -31.208)" fill="#399936"></path><path id="Path_79" data-name="Path 79" d="M391.585,75.98a1.194,1.194,0,0,0-1.424-.173c-.889.543-1.779,1.054-2.642,1.523l-.321.173a1.464,1.464,0,0,0-.263.2,1.174,1.174,0,0,0-.2,1.383.981.981,0,0,0,.189.255,1.149,1.149,0,0,0,1.391.206c1.029-.551,2.05-1.144,3.054-1.737a1.166,1.166,0,0,0,.214-1.827" transform="translate(-298.701 -58.449)" fill="#399936"></path><path id="Path_80" data-name="Path 80" d="M417.512,59.293a1.149,1.149,0,0,0-1.482-.115c-.946.666-1.892,1.316-2.815,1.926a.858.858,0,0,0-.189.156,1.168,1.168,0,0,0-.156,1.456,1.72,1.72,0,0,0,.147.182,1.184,1.184,0,0,0,1.474.156c.963-.634,1.934-1.309,2.889-1.984a1.167,1.167,0,0,0,.271-1.621.6.6,0,0,0-.14-.156" transform="translate(-318.86 -45.556)" fill="#399936"></path><path id="Path_81" data-name="Path 81" d="M364.389,90.5a1.184,1.184,0,0,0-1.342-.239c-1.036.509-2.083,1-3.095,1.432a1.1,1.1,0,0,0-.363.248,1.164,1.164,0,0,0-.247,1.284,1.349,1.349,0,0,0,.247.362,1.175,1.175,0,0,0,1.284.247c1.054-.461,2.124-.955,3.185-1.473a1.18,1.18,0,0,0,.544-1.548,1.1,1.1,0,0,0-.214-.313" transform="translate(-277.571 -69.657)" fill="#399936"></path><path id="Path_82" data-name="Path 82" d="M245.454,120.8c-1.136.049-2.28.074-3.4.074a1.164,1.164,0,0,0-.832.338,1.161,1.161,0,0,0,.815,1.984c1.21.008,2.387-.016,3.524-.067a1.22,1.22,0,0,0,1.111-1.227,1.234,1.234,0,0,0-.337-.766,1.147,1.147,0,0,0-.881-.337" transform="translate(-186.113 -93.337)" fill="#399936"></path><path id="Path_83" data-name="Path 83" d="M465.506,20.646a1.168,1.168,0,0,0-1.621-.041c-.872.822-1.729,1.6-2.534,2.3l-.058.058a1.17,1.17,0,0,0-.049,1.6l.041.041a1.173,1.173,0,0,0,1.605.058c.855-.756,1.728-1.547,2.585-2.354l.024-.024a1.143,1.143,0,0,0,.033-1.613Z" transform="translate(-356.154 -15.683)" fill="#399936"></path><path id="Path_84" data-name="Path 84" d="M336.028,102.55a1.178,1.178,0,0,0-1.243-.272c-1.054.4-2.133.783-3.211,1.12a1.172,1.172,0,0,0-.757,1.465,1.214,1.214,0,0,0,.288.469,1.161,1.161,0,0,0,1.177.288c1.095-.354,2.189-.741,3.259-1.136a.281.281,0,0,0,.067-.017l.081-.032-.008-.008a1.192,1.192,0,0,0,.61-1.466,1.14,1.14,0,0,0-.264-.412" transform="translate(-255.566 -78.969)" fill="#399936"></path><path id="Path_85" data-name="Path 85" d="M276.682,118.068a1.151,1.151,0,0,0-.987-.314c-1.07.165-2.2.305-3.342.428h-.033a1.128,1.128,0,0,0-.7.338,1.178,1.178,0,0,0-.346.938,1.227,1.227,0,0,0,.346.708,1.167,1.167,0,0,0,.938.329c1.194-.124,2.371-.264,3.49-.445a1.2,1.2,0,0,0,.971-1.333,1.134,1.134,0,0,0-.338-.649" transform="translate(-209.596 -90.971)" fill="#399936"></path><path id="Path_86" data-name="Path 86" d="M306.72,111.82a1.169,1.169,0,0,0-1.128-.3q-1.642.432-3.309.79a1.119,1.119,0,0,0-.584.3,1.147,1.147,0,0,0-.313,1.07,1.069,1.069,0,0,0,.3.568,1.13,1.13,0,0,0,1.07.329c1.136-.23,2.288-.51,3.424-.807a1.212,1.212,0,0,0,.823-1.432,1.115,1.115,0,0,0-.288-.519" transform="translate(-232.843 -86.131)" fill="#399936"></path><path id="Path_87" data-name="Path 87" d="M455.6,1.945a1.165,1.165,0,1,0,.439,2.287l5.119-.985a1.139,1.139,0,0,0,.323.942,1.138,1.138,0,0,0,1.084.314l-.926,5.355a1.164,1.164,0,0,0,2.295.4L465.7,0Z" transform="translate(-351.285)" fill="#399936"></path></g></svg>