<svg width="66" height="73" viewBox="0 0 66 73" fill="none" xmlns="http://www.w3.org/2000/svg">
    <g clip-path="url(#clip0_698_65)">
    <path d="M46.4606 31.3695C46.4606 29.7995 45.1806 28.5195 43.6106 28.5195H14.2406C12.6706 28.5195 11.3906 29.7995 11.3906 31.3695C11.3906 32.9395 12.6706 34.2195 14.2406 34.2195H43.6106C45.1806 34.2195 46.4606 32.9395 46.4606 31.3695Z" fill="black"/>
    <path d="M14.2406 39.9199C12.6706 39.9199 11.3906 41.1999 11.3906 42.7699C11.3906 44.3399 12.6706 45.6199 14.2406 45.6199H32.0806C33.6506 45.6199 34.9306 44.3399 34.9306 42.7699C34.9306 41.1999 33.6506 39.9199 32.0806 39.9199H14.2406Z" fill="black"/>
    <path d="M20.94 67.3H11.4C8.26 67.3 5.7 64.74 5.7 61.6V11.41C5.7 8.27 8.26 5.71 11.4 5.71H46.46C49.6 5.71 52.16 8.27 52.16 11.41V28.95C52.16 30.52 53.44 31.8 55.01 31.8C56.58 31.8 57.86 30.52 57.86 28.95V11.41C57.86 5.12 52.74 0 46.45 0H11.41C5.12 0 0 5.12 0 11.41V61.6C0 67.89 5.12 73.01 11.41 73.01H20.95C22.52 73.01 23.8 71.73 23.8 70.16C23.8 68.59 22.52 67.31 20.95 67.31L20.94 67.3Z" fill="black"/>
    <path d="M62.9203 41.2902C59.5803 37.9502 54.1603 37.9502 50.8203 41.2902L35.1603 56.9102C34.8303 57.2402 34.5803 57.6502 34.4503 58.1002L31.0403 69.3202C30.7403 70.3202 31.0003 71.4002 31.7303 72.1402C32.2703 72.7002 33.0103 73.0002 33.7703 73.0002C34.0203 73.0002 34.2803 72.9702 34.5303 72.9002L46.0403 69.7102C46.5103 69.5802 46.9503 69.3302 47.2903 68.9802L62.9103 53.3902C66.2503 50.0502 66.2503 44.6302 62.9103 41.2902H62.9203ZM43.8003 64.4102L38.0103 66.0102L39.7003 60.4302L50.2603 49.8902L54.2903 53.9202L43.7903 64.4002L43.8003 64.4102ZM58.8903 49.3502L58.3403 49.9002L54.3103 45.8702L54.8603 45.3202C55.9703 44.2102 57.7803 44.2102 58.8903 45.3202C60.0003 46.4302 60.0003 48.2402 58.8903 49.3502Z" fill="black"/>
    <path d="M43.6106 17.1094H14.2406C12.6706 17.1094 11.3906 18.3894 11.3906 19.9594C11.3906 21.5294 12.6706 22.8094 14.2406 22.8094H43.6106C45.1806 22.8094 46.4606 21.5294 46.4606 19.9594C46.4606 18.3894 45.1806 17.1094 43.6106 17.1094Z" fill="black"/>
    <path d="M46.4606 31.3695C46.4606 29.7995 45.1806 28.5195 43.6106 28.5195H14.2406C12.6706 28.5195 11.3906 29.7995 11.3906 31.3695C11.3906 32.9395 12.6706 34.2195 14.2406 34.2195H43.6106C45.1806 34.2195 46.4606 32.9395 46.4606 31.3695Z" fill="#BF5E28"/>
    <path d="M14.2406 39.9199C12.6706 39.9199 11.3906 41.1999 11.3906 42.7699C11.3906 44.3399 12.6706 45.6199 14.2406 45.6199H32.0806C33.6506 45.6199 34.9306 44.3399 34.9306 42.7699C34.9306 41.1999 33.6506 39.9199 32.0806 39.9199H14.2406Z" fill="#BF5E28"/>
    <path d="M20.94 67.3H11.4C8.26 67.3 5.7 64.74 5.7 61.6V11.41C5.7 8.27 8.26 5.71 11.4 5.71H46.46C49.6 5.71 52.16 8.27 52.16 11.41V28.95C52.16 30.52 53.44 31.8 55.01 31.8C56.58 31.8 57.86 30.52 57.86 28.95V11.41C57.86 5.12 52.74 0 46.45 0H11.41C5.12 0 0 5.12 0 11.41V61.6C0 67.89 5.12 73.01 11.41 73.01H20.95C22.52 73.01 23.8 71.73 23.8 70.16C23.8 68.59 22.52 67.31 20.95 67.31L20.94 67.3Z" fill="#BF5E28"/>
    <path d="M62.9203 41.2902C59.5803 37.9502 54.1603 37.9502 50.8203 41.2902L35.1603 56.9102C34.8303 57.2402 34.5803 57.6502 34.4503 58.1002L31.0403 69.3202C30.7403 70.3202 31.0003 71.4002 31.7303 72.1402C32.2703 72.7002 33.0103 73.0002 33.7703 73.0002C34.0203 73.0002 34.2803 72.9702 34.5303 72.9002L46.0403 69.7102C46.5103 69.5802 46.9503 69.3302 47.2903 68.9802L62.9103 53.3902C66.2503 50.0502 66.2503 44.6302 62.9103 41.2902H62.9203ZM43.8003 64.4102L38.0103 66.0102L39.7003 60.4302L50.2603 49.8902L54.2903 53.9202L43.7903 64.4002L43.8003 64.4102ZM58.8903 49.3502L58.3403 49.9002L54.3103 45.8702L54.8603 45.3202C55.9703 44.2102 57.7803 44.2102 58.8903 45.3202C60.0003 46.4302 60.0003 48.2402 58.8903 49.3502Z" fill="#BF5E28"/>
    <path d="M43.6106 17.1094H14.2406C12.6706 17.1094 11.3906 18.3894 11.3906 19.9594C11.3906 21.5294 12.6706 22.8094 14.2406 22.8094H43.6106C45.1806 22.8094 46.4606 21.5294 46.4606 19.9594C46.4606 18.3894 45.1806 17.1094 43.6106 17.1094Z" fill="#BF5E28"/>
    </g>
    <defs>
    <clipPath id="clip0_698_65">
    <rect width="65.42" height="73" fill="white"/>
    </clipPath>
    </defs>
    </svg>
    