<svg width="73" height="73" viewBox="0 0 73 73" fill="none" xmlns="http://www.w3.org/2000/svg">
    <path d="M4.22062 29C4.82062 29.25 5.52062 29.24 6.12062 28.99L12.4506 26.32C13.7106 25.79 14.3006 24.33 13.7706 23.07C13.5106 22.46 13.0306 21.99 12.4206 21.74C11.8106 21.49 11.1306 21.5 10.5206 21.75L9.83062 22.04C14.7906 11.63 25.3106 4.96 36.9006 4.96C50.5706 4.96 62.5106 14.2 65.9306 27.44C66.2106 28.53 67.2006 29.3 68.3306 29.3C68.5406 29.3 68.7506 29.27 68.9506 29.22C69.5906 29.05 70.1306 28.65 70.4706 28.08C70.8106 27.51 70.9006 26.84 70.7306 26.2C66.7406 10.77 52.8306 0 36.9006 0C23.2206 0 10.8506 7.95 5.15062 20.34L4.76062 19.41C4.50062 18.8 4.02062 18.33 3.41062 18.08C2.80062 17.83 2.12062 17.84 1.51062 18.09C0.900622 18.34 0.430622 18.83 0.180622 19.44C-0.0693781 20.05 -0.0593781 20.73 0.190622 21.34L2.86062 27.67C3.12062 28.28 3.60062 28.75 4.21062 29H4.22062Z" fill="black"/>
    <path d="M72.811 51.2291L70.141 44.8991C69.881 44.2891 69.401 43.8191 68.791 43.5691C68.181 43.3191 67.501 43.3191 66.891 43.5791L60.561 46.2491C59.951 46.5091 59.481 46.9891 59.231 47.5991C58.981 48.2091 58.991 48.8891 59.241 49.4991C59.771 50.7591 61.231 51.3491 62.491 50.8191L63.431 50.4191C58.581 61.1491 47.951 68.0391 36.111 68.0391C22.441 68.0391 10.501 58.7991 7.08098 45.5591C6.74098 44.2391 5.38098 43.4391 4.06098 43.7791C3.42098 43.9491 2.88098 44.3491 2.54098 44.9191C2.20098 45.4891 2.11098 46.1591 2.28098 46.7991C6.27098 62.2291 20.181 72.9991 36.111 72.9991C49.891 72.9991 62.301 64.9691 67.951 52.4591L68.251 53.1691C68.641 54.0891 69.541 54.6791 70.531 54.6791C70.861 54.6791 71.191 54.6191 71.491 54.4891C72.751 53.9591 73.341 52.4991 72.811 51.2391V51.2291Z" fill="black"/>
    <path d="M60.2298 36.4995C60.2298 33.0195 57.5698 30.1295 54.1398 29.8095C54.0098 29.4495 53.8598 29.0995 53.6998 28.7595C55.9098 26.1095 55.7398 22.1795 53.2798 19.7195C52.0198 18.4595 50.3298 17.7595 48.5298 17.7595C46.9498 17.7595 45.4398 18.3095 44.2398 19.2995C43.8898 19.1395 43.5398 18.9995 43.1798 18.8595C42.8598 15.4295 39.9698 12.7695 36.4998 12.7695C33.0298 12.7695 30.1298 15.4295 29.8098 18.8595C29.4598 18.9895 29.0998 19.1395 28.7498 19.2995C27.5498 18.2995 26.0398 17.7595 24.4598 17.7595C22.6598 17.7595 20.9798 18.4595 19.7098 19.7195C17.2498 22.1795 17.0898 26.0995 19.2898 28.7595C19.1298 29.1095 18.9898 29.4595 18.8498 29.8095C15.4198 30.1295 12.7598 33.0195 12.7598 36.4995C12.7598 39.9795 15.4198 42.8695 18.8498 43.1895C18.9798 43.5495 19.1298 43.8995 19.2898 44.2395C17.0798 46.8895 17.2498 50.8195 19.7098 53.2795C20.9798 54.5395 22.6598 55.2395 24.4598 55.2395C26.0398 55.2395 27.5498 54.6895 28.7498 53.6995C29.0998 53.8595 29.4498 53.9995 29.8098 54.1395C30.1298 57.5695 33.0198 60.2295 36.4998 60.2295C39.9798 60.2295 42.8698 57.5695 43.1798 54.1395C43.5398 53.9995 43.8898 53.8595 44.2398 53.6995C45.4398 54.6995 46.9498 55.2395 48.5298 55.2395C50.3298 55.2395 52.0098 54.5395 53.2798 53.2795C55.7398 50.8195 55.8998 46.8995 53.6998 44.2395C53.8598 43.8895 53.9998 43.5395 54.1398 43.1895C57.5698 42.8695 60.2298 39.9795 60.2298 36.4995ZM52.3198 38.2595C51.1998 38.2595 50.2198 39.0195 49.9298 40.0995C49.6198 41.2695 49.1498 42.3995 48.5398 43.4595C47.9798 44.4295 48.1398 45.6595 48.9298 46.4495L49.7698 47.2895C50.0998 47.6195 50.2798 48.0595 50.2798 48.5295C50.2798 48.9995 50.0998 49.4395 49.7698 49.7695C49.1098 50.4295 47.9398 50.4295 47.2898 49.7695L46.4498 48.9295C45.6598 48.1395 44.4198 47.9795 43.4598 48.5395C42.4098 49.1495 41.2798 49.6195 40.1098 49.9295C39.0298 50.2195 38.2698 51.1995 38.2698 52.3195V53.5095C38.2698 54.4795 37.4798 55.2695 36.5098 55.2695C35.5398 55.2695 34.7498 54.4795 34.7498 53.5095V52.3195C34.7498 51.1995 33.9898 50.2095 32.9098 49.9295C31.7398 49.6195 30.6098 49.1495 29.5598 48.5395C29.1798 48.3195 28.7498 48.2095 28.3198 48.2095C27.6598 48.2095 27.0298 48.4695 26.5698 48.9395L25.7298 49.7795C25.0698 50.4395 23.8998 50.4395 23.2498 49.7795C22.5998 49.1195 22.5698 47.9795 23.2498 47.2995L24.0898 46.4595C24.8798 45.6695 25.0398 44.4395 24.4798 43.4695C23.8698 42.4195 23.3998 41.2895 23.0898 40.1095C22.7998 39.0295 21.8198 38.2695 20.6998 38.2695H19.5098C18.5398 38.2695 17.7498 37.4795 17.7498 36.5095C17.7498 35.5395 18.5398 34.7495 19.5098 34.7495H20.6998C21.8198 34.7495 22.8098 33.9895 23.0898 32.9095C23.3998 31.7395 23.8698 30.6095 24.4798 29.5495C25.0398 28.5795 24.8798 27.3495 24.0898 26.5595L23.2498 25.7195C22.9198 25.3895 22.7398 24.9495 22.7398 24.4795C22.7398 24.0095 22.9198 23.5695 23.2498 23.2395C23.9098 22.5795 25.0798 22.5795 25.7298 23.2395L26.5698 24.0795C27.3598 24.8695 28.5898 25.0295 29.5598 24.4695C30.6098 23.8595 31.7398 23.3895 32.9198 23.0795C33.9998 22.7895 34.7598 21.8095 34.7598 20.6895V19.4995C34.7598 18.5295 35.5498 17.7395 36.5198 17.7395C37.4898 17.7395 38.2798 18.5295 38.2798 19.4995V20.6895C38.2798 21.8095 39.0398 22.7895 40.1198 23.0795C41.2898 23.3895 42.4198 23.8595 43.4698 24.4695C44.4398 25.0295 45.6698 24.8695 46.4598 24.0795L47.2998 23.2395C47.9598 22.5795 49.1298 22.5795 49.7798 23.2395C50.1098 23.5695 50.2898 24.0095 50.2898 24.4795C50.2898 24.9495 50.1098 25.3895 49.7798 25.7195L48.9398 26.5595C48.1498 27.3495 47.9898 28.5795 48.5498 29.5495C49.1598 30.5995 49.6298 31.7295 49.9398 32.9095C50.2298 33.9895 51.2098 34.7495 52.3398 34.7495H53.5298C54.4998 34.7495 55.2898 35.5395 55.2898 36.5095C55.2898 37.4795 54.4998 38.2695 53.5298 38.2695H52.3398L52.3198 38.2595Z" fill="black"/>
    <path d="M36.501 29.7891C32.801 29.7891 29.791 32.7991 29.791 36.4991C29.791 40.1991 32.801 43.2091 36.501 43.2091C40.201 43.2091 43.211 40.1991 43.211 36.4991C43.211 32.7991 40.201 29.7891 36.501 29.7891ZM38.261 36.4991C38.261 37.4691 37.471 38.2591 36.501 38.2591C35.531 38.2591 34.741 37.4691 34.741 36.4991C34.741 35.5291 35.531 34.7391 36.501 34.7391C37.471 34.7391 38.261 35.5291 38.261 36.4991Z" fill="black"/>
    <path d="M4.22062 29C4.82062 29.25 5.52062 29.24 6.12062 28.99L12.4506 26.32C13.7106 25.79 14.3006 24.33 13.7706 23.07C13.5106 22.46 13.0306 21.99 12.4206 21.74C11.8106 21.49 11.1306 21.5 10.5206 21.75L9.83062 22.04C14.7906 11.63 25.3106 4.96 36.9006 4.96C50.5706 4.96 62.5106 14.2 65.9306 27.44C66.2106 28.53 67.2006 29.3 68.3306 29.3C68.5406 29.3 68.7506 29.27 68.9506 29.22C69.5906 29.05 70.1306 28.65 70.4706 28.08C70.8106 27.51 70.9006 26.84 70.7306 26.2C66.7406 10.77 52.8306 0 36.9006 0C23.2206 0 10.8506 7.95 5.15062 20.34L4.76062 19.41C4.50062 18.8 4.02062 18.33 3.41062 18.08C2.80062 17.83 2.12062 17.84 1.51062 18.09C0.900622 18.34 0.430622 18.83 0.180622 19.44C-0.0693781 20.05 -0.0593781 20.73 0.190622 21.34L2.86062 27.67C3.12062 28.28 3.60062 28.75 4.21062 29H4.22062Z" fill="#BF5E28"/>
    <path d="M72.811 51.2291L70.141 44.8991C69.881 44.2891 69.401 43.8191 68.791 43.5691C68.181 43.3191 67.501 43.3191 66.891 43.5791L60.561 46.2491C59.951 46.5091 59.481 46.9891 59.231 47.5991C58.981 48.2091 58.991 48.8891 59.241 49.4991C59.771 50.7591 61.231 51.3491 62.491 50.8191L63.431 50.4191C58.581 61.1491 47.951 68.0391 36.111 68.0391C22.441 68.0391 10.501 58.7991 7.08098 45.5591C6.74098 44.2391 5.38098 43.4391 4.06098 43.7791C3.42098 43.9491 2.88098 44.3491 2.54098 44.9191C2.20098 45.4891 2.11098 46.1591 2.28098 46.7991C6.27098 62.2291 20.181 72.9991 36.111 72.9991C49.891 72.9991 62.301 64.9691 67.951 52.4591L68.251 53.1691C68.641 54.0891 69.541 54.6791 70.531 54.6791C70.861 54.6791 71.191 54.6191 71.491 54.4891C72.751 53.9591 73.341 52.4991 72.811 51.2391V51.2291Z" fill="#BF5E28"/>
    <path d="M60.2298 36.4995C60.2298 33.0195 57.5698 30.1295 54.1398 29.8095C54.0098 29.4495 53.8598 29.0995 53.6998 28.7595C55.9098 26.1095 55.7398 22.1795 53.2798 19.7195C52.0198 18.4595 50.3298 17.7595 48.5298 17.7595C46.9498 17.7595 45.4398 18.3095 44.2398 19.2995C43.8898 19.1395 43.5398 18.9995 43.1798 18.8595C42.8598 15.4295 39.9698 12.7695 36.4998 12.7695C33.0298 12.7695 30.1298 15.4295 29.8098 18.8595C29.4598 18.9895 29.0998 19.1395 28.7498 19.2995C27.5498 18.2995 26.0398 17.7595 24.4598 17.7595C22.6598 17.7595 20.9798 18.4595 19.7098 19.7195C17.2498 22.1795 17.0898 26.0995 19.2898 28.7595C19.1298 29.1095 18.9898 29.4595 18.8498 29.8095C15.4198 30.1295 12.7598 33.0195 12.7598 36.4995C12.7598 39.9795 15.4198 42.8695 18.8498 43.1895C18.9798 43.5495 19.1298 43.8995 19.2898 44.2395C17.0798 46.8895 17.2498 50.8195 19.7098 53.2795C20.9798 54.5395 22.6598 55.2395 24.4598 55.2395C26.0398 55.2395 27.5498 54.6895 28.7498 53.6995C29.0998 53.8595 29.4498 53.9995 29.8098 54.1395C30.1298 57.5695 33.0198 60.2295 36.4998 60.2295C39.9798 60.2295 42.8698 57.5695 43.1798 54.1395C43.5398 53.9995 43.8898 53.8595 44.2398 53.6995C45.4398 54.6995 46.9498 55.2395 48.5298 55.2395C50.3298 55.2395 52.0098 54.5395 53.2798 53.2795C55.7398 50.8195 55.8998 46.8995 53.6998 44.2395C53.8598 43.8895 53.9998 43.5395 54.1398 43.1895C57.5698 42.8695 60.2298 39.9795 60.2298 36.4995ZM52.3198 38.2595C51.1998 38.2595 50.2198 39.0195 49.9298 40.0995C49.6198 41.2695 49.1498 42.3995 48.5398 43.4595C47.9798 44.4295 48.1398 45.6595 48.9298 46.4495L49.7698 47.2895C50.0998 47.6195 50.2798 48.0595 50.2798 48.5295C50.2798 48.9995 50.0998 49.4395 49.7698 49.7695C49.1098 50.4295 47.9398 50.4295 47.2898 49.7695L46.4498 48.9295C45.6598 48.1395 44.4198 47.9795 43.4598 48.5395C42.4098 49.1495 41.2798 49.6195 40.1098 49.9295C39.0298 50.2195 38.2698 51.1995 38.2698 52.3195V53.5095C38.2698 54.4795 37.4798 55.2695 36.5098 55.2695C35.5398 55.2695 34.7498 54.4795 34.7498 53.5095V52.3195C34.7498 51.1995 33.9898 50.2095 32.9098 49.9295C31.7398 49.6195 30.6098 49.1495 29.5598 48.5395C29.1798 48.3195 28.7498 48.2095 28.3198 48.2095C27.6598 48.2095 27.0298 48.4695 26.5698 48.9395L25.7298 49.7795C25.0698 50.4395 23.8998 50.4395 23.2498 49.7795C22.5998 49.1195 22.5698 47.9795 23.2498 47.2995L24.0898 46.4595C24.8798 45.6695 25.0398 44.4395 24.4798 43.4695C23.8698 42.4195 23.3998 41.2895 23.0898 40.1095C22.7998 39.0295 21.8198 38.2695 20.6998 38.2695H19.5098C18.5398 38.2695 17.7498 37.4795 17.7498 36.5095C17.7498 35.5395 18.5398 34.7495 19.5098 34.7495H20.6998C21.8198 34.7495 22.8098 33.9895 23.0898 32.9095C23.3998 31.7395 23.8698 30.6095 24.4798 29.5495C25.0398 28.5795 24.8798 27.3495 24.0898 26.5595L23.2498 25.7195C22.9198 25.3895 22.7398 24.9495 22.7398 24.4795C22.7398 24.0095 22.9198 23.5695 23.2498 23.2395C23.9098 22.5795 25.0798 22.5795 25.7298 23.2395L26.5698 24.0795C27.3598 24.8695 28.5898 25.0295 29.5598 24.4695C30.6098 23.8595 31.7398 23.3895 32.9198 23.0795C33.9998 22.7895 34.7598 21.8095 34.7598 20.6895V19.4995C34.7598 18.5295 35.5498 17.7395 36.5198 17.7395C37.4898 17.7395 38.2798 18.5295 38.2798 19.4995V20.6895C38.2798 21.8095 39.0398 22.7895 40.1198 23.0795C41.2898 23.3895 42.4198 23.8595 43.4698 24.4695C44.4398 25.0295 45.6698 24.8695 46.4598 24.0795L47.2998 23.2395C47.9598 22.5795 49.1298 22.5795 49.7798 23.2395C50.1098 23.5695 50.2898 24.0095 50.2898 24.4795C50.2898 24.9495 50.1098 25.3895 49.7798 25.7195L48.9398 26.5595C48.1498 27.3495 47.9898 28.5795 48.5498 29.5495C49.1598 30.5995 49.6298 31.7295 49.9398 32.9095C50.2298 33.9895 51.2098 34.7495 52.3398 34.7495H53.5298C54.4998 34.7495 55.2898 35.5395 55.2898 36.5095C55.2898 37.4795 54.4998 38.2695 53.5298 38.2695H52.3398L52.3198 38.2595Z" fill="#BF5E28"/>
    <path d="M36.501 29.7891C32.801 29.7891 29.791 32.7991 29.791 36.4991C29.791 40.1991 32.801 43.2091 36.501 43.2091C40.201 43.2091 43.211 40.1991 43.211 36.4991C43.211 32.7991 40.201 29.7891 36.501 29.7891ZM38.261 36.4991C38.261 37.4691 37.471 38.2591 36.501 38.2591C35.531 38.2591 34.741 37.4691 34.741 36.4991C34.741 35.5291 35.531 34.7391 36.501 34.7391C37.471 34.7391 38.261 35.5291 38.261 36.4991Z" fill="#BF5E28"/>
    </svg>
    